<?xml version="1.0" encoding="UTF-8"?>
<svg xmlns="http://www.w3.org/2000/svg" viewBox="0 0 458.96 410.32">
  <defs>
    <style>
      .cls-1, .cls-2 {
        fill: #fff;
      }

      .cls-3 {
        fill: #6588fc;
      }

      .cls-2, .cls-4, .cls-5, .cls-6, .cls-7 {
        stroke-width: .75px;
      }

      .cls-2, .cls-4, .cls-5, .cls-6, .cls-7, .cls-8 {
        stroke-linecap: round;
      }

      .cls-2, .cls-4, .cls-6 {
        stroke: #223242;
      }

      .cls-2, .cls-4, .cls-7, .cls-8 {
        stroke-linejoin: round;
      }

      .cls-9 {
        fill: #223242;
      }

      .cls-10 {
        fill: #fcc6ba;
      }

      .cls-11 {
        fill: #80ba91;
      }

      .cls-12 {
        fill: #abd1ff;
      }

      .cls-13, .cls-14 {
        fill: #bbc5d4;
      }

      .cls-15 {
        fill: #909ab5;
      }

      .cls-4, .cls-16, .cls-5, .cls-6, .cls-7, .cls-8 {
        fill: none;
      }

      .cls-14 {
        opacity: .52;
      }

      .cls-16 {
        opacity: .5;
      }

      .cls-5 {
        stroke: #fff;
      }

      .cls-5, .cls-6 {
        stroke-miterlimit: 10;
      }

      .cls-7, .cls-8 {
        stroke: #6588fc;
      }

      .cls-17 {
        fill: #d9e7fc;
      }
    </style>
  </defs>
  <g id="BACKGROUND">
    <path class="cls-12" d="m33.23,295.01C-20.65,228.45-7.14,113.09,60.24,49.19,141.32-27.71,261.07,7.23,278.37,12.28c88.44,25.8,171.98,103.31,179.93,198.14,4.49,53.56-13.82,128.29-59.62,146.66-33.58,13.47-52.46-15.18-126.62-14.64-55.45.41-61.84,16.55-106.08,14.1-8.77-.48-87.75-5.94-132.75-61.53Z"/>
  </g>
  <g id="OBJECTS">
    <g>
      <g>
        <path class="cls-9" d="m301.9,327.85l-.72-.84c34.08-36.32,48.3-91.89,48.44-92.44l1.1.14c-.14.56-14.45,56.51-48.81,93.14Z"/>
        <g>
          <path class="cls-11" d="m349.05,235.89s1.99-35.35,11.38-59.37c3.24-8.29,7.04-15.28,10.51-20.83,0,0,1.62,44.15-21.89,80.2Z"/>
          <path class="cls-9" d="m370.94,155.69s-8.86,16.63-9.2,37.68c-.34,21.05,2.63,36.59-23.79,65.89,0,0,13.78-77.64,32.99-103.57Z"/>
        </g>
      </g>
      <g>
        <path class="cls-11" d="m318.86,311.91c-3.24-1.26,1.4-21.65,10.87-40,10.84-20.98,18.98-21.82,30.26-43.38,10.27-19.61,5.91-23.45,14.68-37.21,16.61-26.05,46.95-35.35,47.75-32.23.47,1.86-9.97,6.63-17.2,20.19-8.3,15.55-2.04,23.27-7.44,38.69-6.2,17.68-18.45,19.01-42.6,46.17-23.87,26.86-36.32,47.76-36.32,47.76Z"/>
        <path class="cls-9" d="m318.86,311.91s36.31-32.29,71.9-81.7c0,0-43.81,28.66-71.9,81.7Z"/>
        <path class="cls-9" d="m311.33,329.63c2.26-11.78,8.92-24.07,8.99-24.19,9.48-24.08,21.35-43.74,35.25-58.34,1.3-1.37,2.64-2.71,3.99-4.07,6.4-6.43,13.02-13.08,17.95-24.19,2.67-6.01,3.53-10.37,4.36-14.58.84-4.29,1.64-8.34,4.2-13.75,5.01-10.57,13.95-19.96,26.58-27.9l.43,1.07c-12.38,7.79-21.13,16.96-26.02,27.26-2.48,5.24-3.26,9.2-4.08,13.39-.84,4.3-1.72,8.74-4.46,14.91-5.06,11.37-11.78,18.13-18.28,24.66-1.35,1.35-2.68,2.69-3.97,4.05-13.76,14.45-25.52,33.94-34.96,57.92-.11.21-6.65,12.29-8.87,23.83l-1.12-.06Z"/>
      </g>
      <path class="cls-9" d="m314.04,320.95s50.9-38.76,88.87-59.21l-32.77,2.62-36.54,29.04-19.56,27.56Z"/>
      <path class="cls-11" d="m314.04,320.95c8.66-17.89,17.75-28.56,24.41-34.98,9.63-9.28,15.09-10.55,27.9-23.27,11.43-11.33,13.03-16.22,18.86-21.54,9.09-8.3,24.76-14.3,53.53-2.49,0,0-4.48-1.6-9.59.91-5.11,2.51-20.68,23.58-37.1,26.45-16.42,2.88-32.74,4.99-50.99,23.65-18.25,18.66-27.03,31.26-27.03,31.26Z"/>
      <path class="cls-9" d="m309.36,330.35l-.94-.53,5.14-9.13c15.76-27.99,36.36-41.3,56.27-54.18,7.78-5.03,15.13-9.79,21.92-15.27,23.89-19.31,36.75-14.77,37.28-14.57l-.52,1.2c-.13-.05-12.9-4.48-36.19,14.34-6.84,5.53-14.22,10.3-22.04,15.36-19.76,12.78-40.2,26-55.77,53.65l-5.14,9.13Z"/>
    </g>
    <g>
      <g>
        <path class="cls-9" d="m162.41,339.78l.87-.67c-26.07-42.44-28.81-99.73-28.84-100.3l-1.1-.08c.02.58,2.78,58.27,29.07,101.06Z"/>
        <g>
          <path class="cls-11" d="m134.73,240.21s5.17-35.03.8-60.45c-1.51-8.77-3.82-16.38-6.1-22.52,0,0-10.47,42.92,5.3,82.96Z"/>
          <path class="cls-9" d="m129.43,157.25s5.33,18.07,1.43,38.76c-3.9,20.68-9.94,35.31,10.04,69.33,0,0,2.13-78.82-11.47-108.09Z"/>
        </g>
      </g>
      <g>
        <path class="cls-11" d="m149,320.75c3.43-.59,2.99-21.49-2.6-41.37-6.39-22.74-14.19-25.2-20.91-48.58-6.11-21.27-1.07-24.16-6.89-39.4-11.03-28.86-38.88-44.07-40.28-41.18-.84,1.73,8.43,8.5,12.79,23.24,5,16.9-2.69,23.21-.5,39.39,2.51,18.56,14.25,22.33,32.43,53.8,17.98,31.12,25.96,54.09,25.96,54.09Z"/>
        <path class="cls-9" d="m149,320.75s-29.07-38.94-53.98-94.5c0,0,37.15,36.89,53.98,94.5Z"/>
        <path class="cls-9" d="m152.81,339.62c.16-11.99-3.89-25.37-3.93-25.51-4.43-25.5-12.11-47.14-22.78-64.24-1-1.6-2.04-3.19-3.09-4.79-4.97-7.59-10.12-15.43-12.72-27.31-1.41-6.43-1.37-10.87-1.33-15.16.04-4.37.07-8.5-1.35-14.32-2.78-11.36-9.65-22.36-20.42-32.68l-.64.96c10.56,10.12,17.29,20.87,20,31.94,1.38,5.63,1.34,9.66,1.3,13.93-.04,4.38-.08,8.91,1.37,15.51,2.66,12.16,7.89,20.13,12.94,27.83,1.05,1.6,2.08,3.17,3.07,4.77,10.57,16.93,18.16,38.38,22.59,63.78.06.23,4.04,13.38,3.89,25.13l1.1.17Z"/>
      </g>
      <path class="cls-9" d="m151.91,330.58s-42.06-48.21-75.13-75.89l31.58,9.16,29.94,35.8,13.61,30.93Z"/>
      <path class="cls-11" d="m151.91,330.58c-4.88-19.27-11.64-31.55-16.87-39.17-7.56-11.02-12.65-13.37-22.65-28.41-8.91-13.4-9.5-18.51-14.14-24.89-7.23-9.96-21.38-18.99-51.93-13.22,0,0,4.71-.67,9.21,2.82,4.5,3.49,15.51,27.26,31.01,33.38,15.5,6.12,31.07,11.48,45.18,33.43,14.12,21.96,20.18,36.06,20.18,36.06Z"/>
      <path class="cls-9" d="m154.59,340.73l1.03-.33-3.2-9.98c-9.81-30.59-27.3-47.78-44.21-64.4-6.61-6.5-12.85-12.63-18.39-19.37-19.51-23.72-33.02-21.86-33.59-21.77l.27,1.28c.13-.02,13.54-1.79,32.57,21.33,5.59,6.79,11.86,12.96,18.49,19.48,16.79,16.5,34.14,33.56,43.83,63.78l3.2,9.98Z"/>
    </g>
    <g>
      <ellipse class="cls-14" cx="237.64" cy="386.04" rx="93.49" ry="5.67"/>
      <g>
        <path class="cls-1" d="m346.3,105.66c-8.97-17.86-24.56-25.72-39.69-29.75-13.73-3.66-27.47-.08-39.64,8.99-8.33,6.22-17.62,9.37-26.92,9.47-.8,0-4.01,0-4.81,0-9.3-.11-18.59-3.26-26.92-9.47-12.16-9.07-25.91-12.65-39.64-8.99-15.13,4.03-30.72,11.89-39.69,29.75-15.79,31.45-12.57,77.98,3.12,108.19,3.3,6.36,3.72,14.62,3.33,22.36-.57,11.18-.73,21.67-.39,32.85.41,13.81,1.39,27.63,3.43,41.19,3.5,23.25,10.38,46.52,23.79,62.68,3.34,4.03,7.03,7.54,10.95,10.48,10.99,8.23,23.1.54,28.15-14.18,3.2-9.32,3.74-19.81,4.42-30.03,1.5-22.54,7.34-43.58,26.3-46.26,1.06-.15,2.11-.21,3.16-.18.8-.02,1.6.06,2.41.14.8-.08,1.61-.16,2.41-.14,1.05-.03,2.11.03,3.16.18,18.96,2.69,24.81,23.73,26.3,46.26.68,10.22,1.22,20.71,4.42,30.03,5.05,14.72,17.15,22.41,28.15,14.18,3.92-2.94,7.6-6.45,10.95-10.48,13.41-16.16,20.3-39.42,23.79-62.68,2.04-13.56,3.02-27.38,3.43-41.19.34-11.19.18-21.68-.39-32.85-.39-7.73.03-16,3.33-22.36,15.68-30.21,18.91-76.74,3.12-108.19Z"/>
        <path class="cls-17" d="m326.85,336.51c-15.22,8.23-31.98.54-38.97-14.18-4.43-9.32-5.18-19.81-6.12-30.03-2.07-22.54-10.16-43.58-36.42-46.26-1.46-.15-2.92-.21-4.38-.18-1.11-.02-2.22.06-3.33.14-1.11-.08-2.23-.16-3.33-.14-1.45-.03-2.91.03-4.38.18-26.25,2.69-34.35,23.73-36.42,46.26-.94,10.22-1.69,20.71-6.12,30.03-6.99,14.72-23.75,22.41-38.97,14.18-1.74-.94-3.44-1.97-5.11-3.03,4.07,14.88,10.05,28.73,18.94,39.44,3.34,4.03,7.03,7.54,10.95,10.48,10.99,8.23,23.09.54,28.15-14.18,3.2-9.32,3.74-19.81,4.42-30.03,1.5-22.54,7.34-43.58,26.3-46.26,1.06-.15,2.11-.21,3.16-.18.8-.02,1.6.06,2.41.14.8-.08,1.61-.16,2.41-.14,1.05-.03,2.11.03,3.16.18,18.96,2.69,24.81,23.73,26.3,46.26.68,10.22,1.22,20.71,4.42,30.03,5.05,14.72,17.15,22.41,28.15,14.18,3.92-2.94,7.6-6.45,10.95-10.48,8.89-10.71,14.87-24.56,18.94-39.44-1.67,1.06-3.36,2.08-5.11,3.03Z"/>
        <path class="cls-17" d="m237.64,122.32c26.55,0,49.08-19.98,57.22-47.75-9.71.24-19.21,3.85-27.89,10.33-8.33,6.22-17.62,9.37-26.92,9.47-.8,0-4.01,0-4.81,0-9.3-.11-18.59-3.26-26.92-9.47-8.68-6.48-18.18-10.09-27.89-10.33,8.14,27.77,30.68,47.75,57.22,47.75Z"/>
      </g>
    </g>
    <g>
      <path class="cls-14" d="m98.92,401.51c0,2.22-14.14,4.02-31.58,4.02s-31.58-1.8-31.58-4.02,14.14-4.02,31.58-4.02,31.58,1.8,31.58,4.02Z"/>
      <path class="cls-10" d="m49.99,381.36l-10.74.15c.89,4.05,1.85,8.19,2.9,12.43l7.4-.1.44-12.48Z"/>
      <path class="cls-10" d="m75.82,379.54l-11.37.16,4.12,11.91,8.47-2.99s-.45-3.43-1.22-9.08Z"/>
      <path class="cls-9" d="m52.3,392.52l-10.67-.03s-2.38,2.06-3.42,11.17l22.31.07s.62-5.38-5.23-7.47l-2.99-3.73Z"/>
      <path class="cls-9" d="m67.57,389.72s-.66,7.09.27,9.97l24.59.25s1.35-6.29-14.41-10.19l-10.45-.03Z"/>
      <path class="cls-9" d="m44.38,392.84l-1.42-3.21s4.4-2.01,9.65-.49v3.89s-8.23-.19-8.23-.19Z"/>
      <path class="cls-9" d="m73.54,389.86l-.93-3.18s2.41-2.11,5.43-.72l.15,3.89h-4.65Z"/>
      <polygon class="cls-10" points="51.93 174.63 62.29 172.72 56.25 145.06 46.75 147.13 51.93 174.63"/>
      <path class="cls-9" d="m55.78,131.28s15.27-3.63,14.21,4.95c-1.06,8.58-3.9,11.28-3.9,11.28l-10.31-16.23Z"/>
      <path class="cls-10" d="m68.27,142.23c1.67,7.66-3.05,15.19-10.55,16.83-7.5,1.64-14.93-3.24-16.6-10.9-1.67-7.66,3.05-15.19,10.55-16.83,7.5-1.64,14.93,3.24,16.6,10.9Z"/>
      <path class="cls-10" d="m67.67,140.23s4.98,15.77-1.71,24.22c-.35.44-.86.69-1.41.7-3.34.06-18.12-1.56-22.34-14.63l25.46-10.29Z"/>
      <path class="cls-1" d="m56.76,152.61s11.58-4.99,12.83-2.02c0,0,.99,14.79-4.86,14.8-10.08.02-7.97-12.77-7.97-12.77Z"/>
      <path class="cls-5" d="m52.98,147.89s2.81,4.53,6.48,6.28"/>
      <path class="cls-5" d="m51.08,154.69s2.55,5.84,9.42,8.36"/>
      <path class="cls-9" d="m65.26,136.07s-4.79,11.67-12.41,12.61c0,0-3.65-2.94-4.77-.25-1.11,2.69.7,6.1,3,6.26,0,0-1.96,4.98-1.39,8.01,0,0-5.37-2.04-7.48-4.33-2.75-3-4.41-10.45-3.2-17.41,1.4-8.01,19.79-17.85,26.25-4.89Z"/>
      <path class="cls-9" d="m45.04,136.84c-.3-3.24-3.68-6.62-7.61-6.48-2.96.11-5.28,2.17-6.34,4.34-1.88,3.84-.26,8.97,2.8,10.39,4.25,1.97,11.62-3.06,11.14-8.24Z"/>
      <path class="cls-6" d="m65.1,135.68s1.78,4.45-3.34,9.09"/>
      <path class="cls-6" d="m44.01,136.17s1.27-6.52-6.08-7.11"/>
      <path class="cls-9" d="m60.59,164.79s-5.24-1.23-7.1-2.39c0,0,5.32,3.58,7.43,3.99l-.34-1.6Z"/>
      <path class="cls-1" d="m49.04,155.49c.33.8,1.24,1.17,2.04.84.8-.33,1.17-1.24.84-2.04-.33-.8-1.24-1.17-2.04-.84-.8.33-1.17,1.24-.84,2.04Z"/>
      <path class="cls-9" d="m86.51,236.29c-16.76,0-44.07,1.27-44.07,1.27-.69,3.25.4,2.37-1.32,5.95-2.62,5.43-3.44,11.55-2.24,17.46.43,2.12.89,4.37,1.33,6.5,0,0,.24,12.48,0,20.38-.24,7.9-2.84,22.09-4.57,29.5-1.73,7.41-2.71,13.99-2.31,22.79.4,8.79,5.8,43.15,5.8,43.15,0,0,3.81,4.76,11.73,0,0,0,.69-49.24,2.26-54.71,1.57-5.47,1.7-2.15,6.05-10.89,1.96-3.95,5.75-18.63,9.32-33.54.08,3.67.07,6.97-.11,9.46-.88,12.15-5.57,28.45-6.04,33.78-.47,5.33,1.31,52.76,1.31,52.76,0,0,4.43,5.5,13.17,1.03,0,0,2.81-44.57,2.63-49.56s9.54-20.33,11.94-33.37c2.39-13.04.29-49.91-4.86-61.97Z"/>
      <path class="cls-7" d="m48.65,237.29s-3.79,8.87-1.89,20.01c1.89,11.13-1.67,47.55-6.04,58.64-4.37,11.09-4.25,28.04,1.72,68.4"/>
      <line class="cls-4" x1="68.48" y1="284.15" x2="74.76" y2="270.12"/>
      <path class="cls-7" d="m67.11,382.41s-1.79-48.86,0-54.65c1.79-5.79,7.64-28.7,3.74-48.91"/>
      <path class="cls-1" d="m100.32,225.5c5.53-9.38,6.09-10.7,13.39-27.54l-5.84-2.78-9.9,12.36c-1.19-1.96-8.82-13.51-10.8-21.65-2.94-12.1-14.81-14.4-14.81-14.4.9,4.92,3.82,10.29,5.72,12.48,0,0,0,0,0,0l-1.6,4.77c2.92,2.88,13.25,50.5,23.84,36.76Z"/>
      <path class="cls-10" d="m107.87,195.18l-9.9,12.36c-.76-1.26-3.52-5.91-6.84-11.77-5.45,1.78-6.62,5.6-8.5,9.8,4.66,13.37,11.13,28.45,17.7,19.94,5.53-9.38,5.77-9.77,13.98-29.48l-6.43-.84Z"/>
      <path class="cls-1" d="m84.22,189.88s-7.62-16.33-7.23-16.57c0,0-2.1-1.99-15.66-3.88l-.86,3.44-8.27-1.79s-11.64,2.01-17.78,7.96c0,0-.75,13.58.65,20.3l.78,3.72c1.03,4.93,11.23,19.31,11.23,19.31l-4.65,15.19s29.27,5.2,44.07-1.27l-6.89-19.03,4.59-27.38Z"/>
      <path class="cls-1" d="m47.08,222.37s-10.62,25.03-10.74,37.81c-.12,12.77-2.13,50.68-2.13,50.68,0,0,31.18,10.4,58.14-3.45,0,0,5.73-60.96-13.57-90.92l-31.71,5.89Z"/>
      <path class="cls-4" d="m68.05,170.81c-.86,3.63-2.31,5.23-2.31,5.23l-3.44-2.57,2.25,6.09s7.5,19.46,8.7,24.92c1.2,5.47,17,73.46,1.5,109.1"/>
      <path class="cls-1" d="m50.59,167.82l10.4,5.92-6.35,5.31-7.56-5.44s-.16-3.51,3.5-5.79Z"/>
      <path class="cls-1" d="m68.02,170.53s-3.11-3.08-6.94-3.31l-.62,5.65"/>
      <polyline class="cls-4" points="47.08 173.61 54.64 179.05 59.55 174.07 67.39 187.08"/>
      <rect class="cls-9" x="36.68" y="378.77" width="17.42" height="8.37" rx="2.14" ry="2.14" transform="translate(-34.61 5.71) rotate(-5.21)"/>
      <rect class="cls-9" x="62.02" y="375.98" width="17.42" height="8.37" rx="2.14" ry="2.14"/>
      <g>
        <polygon class="cls-13" points="148.62 142.31 145.99 140.23 121.67 169.57 125.6 172.68 148.62 142.31"/>
        <path class="cls-13" d="m120.9,167.09h7.86c1.14,0,2.06.93,2.06,2.06v3.13h-11.99v-3.13c0-1.14.93-2.06,2.06-2.06Z" transform="translate(132.43 -40.84) rotate(38.41)"/>
        <path class="cls-13" d="m128.25,174.79l-2.65-2.1-3.92-3.11-2.12-1.68c-.76-.6-1.86-.47-2.46.28l-69.36,87.49c-1.88,2.37-2.05,5.54-.69,8.04.46.83,1.08,1.59,1.87,2.22.59.47,1.23.83,1.9,1.09,2.9,1.13,6.32.29,8.36-2.27l69.36-87.49c.6-.76.47-1.86-.28-2.46Z"/>
        <line class="cls-4" x1="122.93" y1="171.49" x2="48.92" y2="265.92"/>
        <path class="cls-13" d="m43.52,262.24h13.03v.81c0,2.02-1.64,3.66-3.66,3.66h-5.7c-2.02,0-3.66-1.64-3.66-3.66v-.81h0Z" transform="translate(175.13 26.14) rotate(38.41)"/>
        <path class="cls-15" d="m182.05,137.62c-10.14,12.78-26.99,16.3-37.64,7.86-10.65-8.45-11.07-25.66-.94-38.44,10.14-12.79,26.99-16.3,37.64-7.86,10.65,8.45,11.07,25.66.94,38.44Z"/>
        <g class="cls-16">
          <path class="cls-1" d="m178.72,134.98c-8.39,10.58-22.34,13.49-31.15,6.5-8.82-6.99-9.16-21.23-.78-31.82,8.39-10.58,22.34-13.49,31.15-6.5,8.82,6.99,9.16,21.23.78,31.82Z"/>
        </g>
        <g class="cls-16">
          <path class="cls-1" d="m178.72,134.98c8.39-10.58,8.04-24.83-.78-31.82-8.82-6.99-22.77-4.08-31.15,6.5-.6.76-1.15,1.55-1.66,2.35,4.93-1.38,9.6-1.52,13.32.92,9.32,6.12,5.6,23.71,7.51,31.16,4.71-1.57,9.23-4.66,12.77-9.12Z"/>
        </g>
      </g>
      <path class="cls-1" d="m40.63,230.03c.17-.01-2.37-2.91-4.79-5.71,1.25-6.45,10.06-44.41-1.42-45.28,0,0-10.13,11.41-11.27,40.41-.03.24.01,7.96.02,7.97.25,2.71,16.49,19.56,25.73,24.97,1.77-1.72,3.48-3.5,5.21-5.26l-13.47-17.09Z"/>
      <path class="cls-10" d="m54.09,247.12l-13.47-17.09c.17-.01-2.37-2.91-4.79-5.71.22-1.11.65-3.12,1.17-5.69-6.75-4.64-10.44-5.17-13.46-5.02-.18,1.86-.32,3.79-.4,5.83-.03.24.01,7.96.02,7.97.25,2.71,16.49,19.56,25.73,24.97,1.77-1.72,3.48-3.5,5.21-5.26Z"/>
      <g>
        <path class="cls-3" d="m52.22,245.58s5.29-5.18,6.24-8.17,3,.64,1.79,3.43c-1.22,2.8-2.2,4.92-2.2,4.92l5.21,1.23s3.15,6.57-7.6,9.2l-8.09-3.64s1.14-5.46,4.66-6.98Z"/>
        <path class="cls-3" d="m62.25,246.76s7.05.68,7.83.7c3.54.08,3.91,2.09,2.16,2.03-2.7-.09-11.26.17-11.26.17l1.27-2.9Z"/>
        <path class="cls-3" d="m61.67,252.47s13.21,1.62,13.09.82c-.13-.8-2.4-2.3-4.56-2.51-3.34-.33-10.11-1.47-10.11-1.47l1.57,3.16Z"/>
        <path class="cls-3" d="m58.83,255.11s12.05,2.26,12.02,1.47-1.96-2.39-3.94-2.71c-3.05-.49-9.19-1.96-9.19-1.96l1.11,3.2Z"/>
        <path class="cls-3" d="m54.2,255.34s9.35,5.44,9.56,4.78c.21-.67-.93-2.56-2.48-3.41-2.39-1.31-7.06-4.35-7.06-4.35l-.02,2.98Z"/>
        <path class="cls-3" d="m49.59,253.48s-4.78-1.7-6.7-2.66c-2.15-1.06,3.88-9.72,7.09-10.81s1.01,2.29,4.88,3.65l-5.26,9.82Z"/>
        <path class="cls-3" d="m59.13,243.38s-1.37,3.25,3.48,3.6l-7.06.24,3.58-3.84Z"/>
      </g>
      <line class="cls-4" x1="38.99" y1="209.39" x2="42.44" y2="196.93"/>
      <g>
        <path class="cls-3" d="m117.11,191.05s-1.15,1.22-4.56,1.47c-3.41.25-6.97,1.44-6.37,2.64s6.53.79,6.53.79c0,0,6.32-1.52,4.39-4.9Z"/>
        <path class="cls-3" d="m114.81,194.67s-1.15,1.22-4.56,1.47-4.93,1.54-4.33,2.75c.6,1.2,4.5.69,4.5.69,0,0,6.32-1.52,4.39-4.9Z"/>
        <path class="cls-3" d="m112.16,198.19s-.81.86-3.22,1.04c-2.41.18-3.49,1.09-3.06,1.94.43.85,3.18.48,3.18.48,0,0,4.47-1.08,3.11-3.47Z"/>
        <path class="cls-3" d="m118.51,189.77s-1.51.72-4.78-.27c-3.27-.99-5.16-.34-5.03,1,.13,1.34,3.95,2.26,3.95,2.26,0,0,6.44.86,5.87-2.99Z"/>
      </g>
      <path class="cls-2" d="m79.76,211.58s4.28-4.44,4.28-9.2c0-4.42-4.74-9.58-4.74-9.58l-.51-7.45"/>
      <path class="cls-2" d="m50.81,211.58s7.64,5.05,17.21,2.01"/>
      <rect class="cls-3" x="50.42" y="196.82" width="9.51" height="3.39" transform="translate(-47.86 20.09) rotate(-14.47)"/>
      <path class="cls-5" d="m47.79,394.67s3-1.65,6.09,0"/>
      <path class="cls-5" d="m49.37,396.44s3-1.65,6.09,0"/>
      <path class="cls-5" d="m79.22,391.97s1.79-.99,4.03-.67"/>
      <path class="cls-5" d="m75.88,390.91s1.79-.99,4.03-.67"/>
    </g>
    <g>
      <ellipse class="cls-14" cx="349.05" cy="407.13" rx="48.84" ry="3.19"/>
      <g>
        <path class="cls-3" d="m309.8,285.62h78.49c2.83,0,5.13,2.3,5.13,5.13v111.26c0,2.83-2.3,5.13-5.13,5.13h-78.49c-2.83,0-5.13-2.3-5.13-5.13v-111.26c0-2.83,2.3-5.13,5.13-5.13Z"/>
        <rect class="cls-1" x="313.81" y="285.62" width="70.48" height="112.25"/>
        <path class="cls-15" d="m364.73,280h-4.3c-.79,0-1.48-.56-1.59-1.34-.65-4.82-4.79-8.54-9.79-8.54s-9.13,3.72-9.79,8.54c-.11.78-.8,1.34-1.59,1.34h-4.3c-.87,0-1.57.7-1.57,1.57v9.09c0,.87.7,1.57,1.57,1.57h31.36c.87,0,1.57-.7,1.57-1.57v-9.09c0-.87-.7-1.57-1.57-1.57Zm-15.68,4.08c-2.25,0-4.08-1.83-4.08-4.08s1.82-4.08,4.08-4.08,4.08,1.82,4.08,4.08-1.82,4.08-4.08,4.08Z"/>
        <g>
          <g>
            <path class="cls-3" d="m371.96,305.57c-.65-1.2-1.77-1.73-2.86-2-.99-.25-1.98,0-2.86.6-.6.42-1.27.63-1.94.64-.06,0-.29,0-.35,0-.67,0-1.34-.22-1.94-.64-.88-.61-1.87-.85-2.86-.6-1.09.27-2.22.8-2.86,2-1.14,2.11-.91,5.24.22,7.27.24.43.27.98.24,1.5-.04.75-.05,1.46-.03,2.21.03.93.1,1.86.25,2.77.25,1.56.75,3.13,1.72,4.21.24.27.51.51.79.7.79.55,1.67.04,2.03-.95.23-.63.27-1.33.32-2.02.11-1.52.53-2.93,1.9-3.11.08-.01.15-.01.23-.01.06,0,.12,0,.17,0,.06,0,.12-.01.17,0,.08,0,.15,0,.23.01,1.37.18,1.79,1.6,1.9,3.11.05.69.09,1.39.32,2.02.36.99,1.24,1.51,2.03.95.28-.2.55-.43.79-.7.97-1.09,1.46-2.65,1.72-4.21.15-.91.22-1.84.25-2.77.02-.75.01-1.46-.03-2.21-.03-.52,0-1.08.24-1.5,1.13-2.03,1.36-5.16.22-7.27Z"/>
            <path class="cls-1" d="m359.73,321.45c-.31-.63-.55-1.45-.7-2.41-.12-.75-.19-1.58-.23-2.54-.02-.68-.01-1.33.03-2.05.04-.64.03-1.6-.47-2.49-.89-1.6-.99-4.07-.21-5.51.19-.35.52-.74,1.54-1,.08-.02.16-.03.24-.03.32,0,.64.17.84.31.94.66,2.04,1.01,3.16,1.02h.35c1.17-.01,2.26-.37,3.2-1.02.21-.14.52-.31.84-.31.08,0,.16,0,.24.03,1.02.25,1.35.65,1.54,1,.78,1.44.68,3.91-.21,5.51-.5.89-.51,1.85-.47,2.49.04.72.05,1.38.03,2.05-.03.96-.1,1.79-.23,2.54-.16.96-.39,1.77-.7,2.41,0-.06-.02-.3-.02-.3-.26-3.68-2.15-4.7-3.68-4.9-.16-.02-.32-.03-.48-.03-.08,0-.15,0-.21,0-.05,0-.16,0-.17,0-.21,0-.37.01-.53.03-1.54.2-3.42,1.22-3.68,4.9,0,0-.02.24-.02.3Z"/>
          </g>
          <polyline class="cls-8" points="362.19 311.23 363.96 313.07 366.34 310.09"/>
        </g>
        <g>
          <path class="cls-3" d="m347.26,332.05h-22.4c-.56,0-1.02-.46-1.02-1.02h0c0-.56.46-1.02,1.02-1.02h22.4c.56,0,1.02.46,1.02,1.02h0c0,.56-.46,1.02-1.02,1.02Z"/>
          <path class="cls-3" d="m373.23,338.59h-48.37c-.56,0-1.02-.46-1.02-1.02h0c0-.56.46-1.02,1.02-1.02h48.37c.56,0,1.02.46,1.02,1.02h0c0,.56-.46,1.02-1.02,1.02Z"/>
          <path class="cls-3" d="m373.23,345.55h-48.37c-.56,0-1.02-.46-1.02-1.02h0c0-.56.46-1.02,1.02-1.02h48.37c.56,0,1.02.46,1.02,1.02h0c0,.56-.46,1.02-1.02,1.02Z"/>
          <path class="cls-3" d="m373.23,352.51h-48.37c-.56,0-1.02-.46-1.02-1.02h0c0-.56.46-1.02,1.02-1.02h48.37c.56,0,1.02.46,1.02,1.02h0c0,.56-.46,1.02-1.02,1.02Z"/>
          <path class="cls-3" d="m373.23,359.47h-48.37c-.56,0-1.02-.46-1.02-1.02h0c0-.56.46-1.02,1.02-1.02h48.37c.56,0,1.02.46,1.02,1.02h0c0,.56-.46,1.02-1.02,1.02Z"/>
          <path class="cls-3" d="m373.23,366.42h-48.37c-.56,0-1.02-.46-1.02-1.02h0c0-.56.46-1.02,1.02-1.02h48.37c.56,0,1.02.46,1.02,1.02h0c0,.56-.46,1.02-1.02,1.02Z"/>
          <path class="cls-3" d="m373.23,374.18h-48.37c-.56,0-1.02-.46-1.02-1.02h0c0-.56.46-1.02,1.02-1.02h48.37c.56,0,1.02.46,1.02,1.02h0c0,.56-.46,1.02-1.02,1.02Z"/>
          <path class="cls-3" d="m373.23,381.14h-48.37c-.56,0-1.02-.46-1.02-1.02h0c0-.56.46-1.02,1.02-1.02h48.37c.56,0,1.02.46,1.02,1.02h0c0,.56-.46,1.02-1.02,1.02Z"/>
        </g>
        <polygon class="cls-9" points="384.29 397.88 313.81 397.88 313.81 400.49 349.05 399.18 384.29 400.49 384.29 397.88"/>
      </g>
    </g>
    <g>
      <path class="cls-1" d="m233.4,49.25l2.57,7.51c.04.12.12.22.24.28l7.81,2.54c.44.14.44.76,0,.91l-7.77,2.5c-.11.06-.19.16-.23.28l-2.5,7.55c-.15.45-.79.46-.95,0l-2.57-7.51c-.04-.12-.12-.22-.24-.28l-7.55-2.46c-.51-.17-.51-.88,0-1.05,2.64-.85,7.52-2.44,7.52-2.44.11-.06.19-.16.23-.28l2.5-7.55c.15-.45.79-.46.94,0Z"/>
      <path class="cls-1" d="m251.52,35.35l1.39,4.07c.02.06.07.12.13.15l4.23,1.38c.24.08.24.41,0,.49l-4.21,1.36c-.06.03-.1.09-.13.15l-1.36,4.09c-.08.25-.43.25-.51,0l-1.39-4.07c-.02-.06-.07-.12-.13-.15l-4.09-1.33c-.28-.09-.28-.48,0-.57,1.43-.46,4.07-1.32,4.07-1.32.06-.03.1-.09.13-.15l1.36-4.09c.08-.25.43-.25.51,0Z"/>
      <path class="cls-1" d="m379.08,110.44l1.39,4.07c.02.06.07.12.13.15l4.23,1.38c.24.08.24.41,0,.49l-4.21,1.36c-.06.03-.1.09-.13.15l-1.36,4.09c-.08.25-.43.25-.51,0l-1.39-4.07c-.02-.06-.07-.12-.13-.15l-4.09-1.33c-.28-.09-.28-.48,0-.57,1.43-.46,4.07-1.32,4.07-1.32.06-.03.1-.09.13-.15l1.36-4.09c.08-.25.43-.25.51,0Z"/>
    </g>
  </g>
</svg>