<?xml version="1.0" encoding="UTF-8"?>
<svg id="Layer_1" data-name="Layer 1" xmlns="http://www.w3.org/2000/svg" viewBox="0 0 894.28 194.6">
  <defs>
    <style>
      .cls-1, .cls-2 {
        fill: #50a0e2;
      }

      .cls-3 {
        letter-spacing: -.08em;
      }

      .cls-4 {
        fill: none;
      }

      .cls-5 {
        letter-spacing: 0em;
      }

      .cls-2 {
        font-family: AvenirLTStd-Medium, 'Avenir LT Std';
        font-size: 102px;
        font-weight: 500;
      }
    </style>
  </defs>
  <g>
    <path class="cls-1" d="m122,150c-2.3-8.3-6.8-15.7-12.7-21.4-2.9-2.8-6.2-5.3-9.6-6.6-1.7-.7-3.3-1.2-4.9-1.2h-1.1c-.4,0-1,0-1.4.1-1,.1-1.8.2-2.7.4-3.4.8-5.4,2.2-7.4,5-2,2.8-3.5,6.5-4.8,10.5-1.4,3.9-2.7,8.2-3.7,12.2s-1.8,8.3-2.5,12.5c-.8,4.3-1.4,8.7-2.5,13.4-.3,1.2-.6,2.4-1.1,3.8-.5,1.3-1,2.8-2.3,4.5-.6.9-1.5,1.9-3,2.8-1.4.9-3.5,1.3-5.1,1.2-.4,0-.8-.1-1.2-.2l-.7-.2c-.5-.1-.9-.3-1.3-.4-.8-.3-1.6-.7-2.3-1.1-2.8-1.6-4.8-3.6-6.5-5.7-1.7-2-3.1-4.2-4.3-6.3-2.4-4.4-4-8.9-5.2-13.5-.6-2.3-1.1-4.6-1.5-7-.3-2.4-.6-4.8-.7-7.1-.2-4.7-.1-9.2.1-13.6.4-8.9.7-17.5-.8-26.2-.1-.6.3-1.1.8-1.2s1,.2,1.1.6c3.4,8.5,4.5,17.8,5.3,26.6.5,4.4.8,8.8,1.4,13,.3,2.1.8,4.1,1.3,6.1.6,2,1.2,4,1.9,5.9,1.4,3.9,3.2,7.6,5.4,10.9,2,3.3,4.8,6.3,7.1,7.4.3.1.5.3.8.3.1,0,.2.1.3.1h.1c-.1,0-.2-.1-.3-.1-.5-.1-1.5.1-1.9.4-.5.3-.6.5-.6.5,0,0,.3-.7.6-1.5s.5-1.7.7-2.7c.8-3.9,1.4-8.3,2.2-12.8.7-4.5,1.7-9,2.8-13.5,1.3-4.6,2.6-8.8,4.3-13.3,1.8-4.4,3.7-8.9,7.1-13.2,1.7-2.2,3.9-4.2,6.5-5.8,2.6-1.5,5.6-2.3,8.3-2.6,1.3-.2,2.7-.3,3.9-.2h1.9c.8,0,1.5.1,2.2.2,2.9.5,5.5,1.4,7.8,2.7,4.6,2.6,8.2,6,11.2,9.8,5.8,7.6,9.6,16.8,9.7,26.1,0,.8-.6,1.4-1.4,1.4-.6.1-1.2-.4-1.3-1h0Z"/>
    <path class="cls-1" d="m83.5,20.1c6.6,1.5,13.4,2.1,19.9,1.1s12.7-3.3,19-6.1c6.3-2.8,12.9-5.6,20.1-7.4,1.8-.5,3.6-.8,5.5-1.1,1.8-.3,4-.5,6.1-.5,4.2.2,8.9,1.6,12.5,4.8,3.6,3.1,5.8,7.3,6.8,11.3,1.1,4,1.5,8,1.4,11.9-.3,7.8-2,15-4.4,22s-5.5,13.6-9,19.9-7.9,12.3-11,17.6c-3.1,5.4-4.7,10.8-5,17-.2,3.1-.1,6.3.3,9.5l.5,5.1c.2,1.9.3,3.7.4,5.6.3,7.4-.5,14.8-2,22-1.5,7.1-3.5,14.1-6.7,20.9-1.6,3.4-3.3,6.8-6.1,10.1-.8.8-1.5,1.7-2.6,2.5s-2.5,1.7-4.6,2-4.6-.5-5.9-1.7c-1.8-1.4-2.3-2.8-2.8-3.9-.9-2.3-1.2-4-1.5-5.9-.3-1.8-.5-3.6-.8-5.3-.5-3.5-.9-6.9-1.4-10.2-1-6.7-2.4-13.3-5.1-19.3-2.6-6-6.6-11.5-12.4-15-.5-.3-.6-.9-.3-1.4.3-.4.8-.6,1.3-.4,3.4,1.3,6.5,3.4,9.2,5.9s4.9,5.5,6.8,8.6c3.7,6.3,6,13.3,7.7,20.1.9,3.5,1.6,6.9,2.3,10.3.4,1.7.8,3.3,1.2,4.9.4,1.5.9,3.1,1.4,4.1.2.5.5.6.2.3,0,0-.6-.4-1-.3-.4,0-.3,0,0-.2.3-.3.7-.7,1-1.2,1.5-2.1,2.9-5,4.1-8,2.3-6,4-12.5,5.1-18.9s1.4-13,1.1-19.4c-.1-1.6-.2-3.2-.4-4.8l-.6-5.2c-.4-3.7-.6-7.4-.4-11.3.1-3.8.8-7.8,1.8-11.7,1.1-3.9,2.8-7.5,4.8-10.8,1.9-3.3,4-6.3,5.9-9.1s3.7-5.6,5.3-8.5c3.3-5.8,6.3-11.7,8.6-17.8s4-12.4,4.4-18.5c.5-6-.6-12.1-3.9-15.3-1.6-1.6-3.8-2.5-6.5-2.8-1.4-.1-2.7-.1-4.3,0s-3.2.4-4.8.6c-6.4,1-12.7,3.3-19.4,5.5-6.6,2.2-13.7,4.4-21.1,4.6-7.3.3-14.6-1.2-21.2-3.7-.7-.3-1.1-1.1-.8-1.8-.1-.5.6-.9,1.3-.7Z"/>
    <path class="cls-1" d="m46,129.9c-.1-8.4-.8-16.7-3.8-23.8-2.8-7.2-8-12.7-14-18.7-1.5-1.5-3-3.1-4.5-4.8-1.5-1.7-2.9-3.5-4.3-5.3-2.7-3.6-5.2-7.4-7.3-11.4-4.2-8.1-7.2-17.5-6.3-27.7.5-5,2-10.1,4.7-14.5s6.6-8.3,11.3-10.8c2.3-1.3,4.8-2.2,7.3-2.8,2.5-.7,5.1-.9,7.7-.9,5.2,0,10,1.6,14.2,3.5,8.4,3.8,15.2,8.8,22.3,12.9,7,4.2,14.5,7.4,22.8,8.5.6.1,1,.6.9,1.2,0,.5-.5.8-.9.9-4.3.5-8.8.3-13.2-.5s-8.6-2.2-12.7-3.8c-8.1-3.2-15.6-7.4-22.9-9.9-3.7-1.2-7.2-1.9-10.5-1.8s-6.5,1.2-9.3,2.8c-5.5,3.4-8.9,9.5-9.4,16.3-.6,6.8,1.4,14.3,4.7,21.2,1.6,3.5,3.6,6.9,5.8,10.2,2.3,3.3,4.6,6.3,7.3,9.6,2.7,3.3,5.6,6.7,8,10.6s4.4,8.3,5.5,12.8c2.2,9.1,1.4,18.1-.8,26.4-.2.8-1,1.2-1.7,1-.5,0-.9-.6-.9-1.2Z"/>
  </g>
  <text class="cls-2" transform="translate(194.56 135.86)"><tspan class="cls-5" x="0" y="0">DEN</tspan><tspan class="cls-3" x="221.85" y="0">T</tspan><tspan class="cls-5" x="271.93" y="0">AL CARE</tspan></text>
  <rect class="cls-4" width="894" height="194.6"/>
</svg>