<?xml version="1.0" encoding="UTF-8"?>
<svg id="Layer_1" data-name="Layer 1" xmlns="http://www.w3.org/2000/svg" xmlns:xlink="http://www.w3.org/1999/xlink" viewBox="0 0 3293.91489 2000">
  <defs>
    <clipPath id="clippath">
      <path d="m817.07445,1779.3366s-98.217-331.8885-82.40151-340.6718c15.81551-8.7833,403.53719-9.1331,403.53719-9.1331,0,0-44.462,349.0601-56.8074,349.8049-12.3454.7448-231.63259,1.5145-264.32828,0Z" fill="#1b3d9e" stroke-width="0"/>
    </clipPath>
    <clipPath id="clippath-1">
      <path d="m1042.90262,711.3611s-4.3977,729.6514,13.1929,731.645,1299.50542,9.9679,1310.49962,0c10.9941-9.9679,15.3917-737.6257,0-737.6257s-1323.69252,5.9807-1323.69252,5.9807Z" fill="#d4dfff" stroke-width="0"/>
    </clipPath>
    <clipPath id="clippath-2">
      <rect x="2310.61035" y="1365.7319" width="357.0336" height="412.9838" rx="12.0794" ry="12.0794" fill="#1b3d9e" stroke-width="0"/>
    </clipPath>
    <clipPath id="clippath-3">
      <path d="m2404.98405,1365.7319s-4.738-339.9694,1.5793-343.9177,54.4865-7.8966,58.4348,1.5793,0,342.3384,0,342.3384h-60.0141Z" fill="#fc476a" stroke-width="0"/>
    </clipPath>
    <clipPath id="clippath-4">
      <path d="m2504.05955,871.3233h132.0127c2.06124,0,3.7347,1.67346,3.7347,3.7347v490.6739h-139.4821v-490.6739c0-2.06124,1.67346-3.7347,3.7347-3.7347Z" fill="#d4dfff" stroke-width="0"/>
    </clipPath>
    <clipPath id="clippath-5">
      <path d="m1319.37215,613.0392l-52.9766,6.8533c-29.1679-13.6659-57.4119-22.5158-83.7437-19.7648-26.4517,2.7637-41.64773,30.4587-35.1208,49.107,5.7402,16.4005,53.3344,33.2213,73.8643,33.6163,20.5299.3946,51.7197-4.3429,63.1689-14.5007.0166-.0148.028-.0332.0446-.048h34.7633v-55.2631Z" fill="#fe8e9c" stroke-width="0"/>
    </clipPath>
    <clipPath id="clippath-6">
      <path d="m1266.39555,619.8925s-16.98,1.5073-20.2637,1.5869c-11.8931.2881-23.8114.9428-23.8114.9428,0,0-7.4083-24.0484-18.3031-19.1202-16.0004,7.2378,2.2879,18.4665,2.2879,18.4665,0,0-28.4351-4.7392-31.2133-4.9026-2.7781-.1634,21.285,50.5921-4.3858,66.0078-25.6707,15.4158-54.26602,7.2921-57.84042-32.6763s37.36882-78.3121,75.06262-77.0123c37.6937,1.2998,78.4672,46.7074,78.4672,46.7074Z" fill="#1b3d9e" stroke-width="0"/>
    </clipPath>
    <clipPath id="clippath-7">
      <path d="m1386.09865,984.9433s-7.9137,10.6444-10.5276,15.9097c-2.614,5.2653-3.4556,31.6002-2.9072,31.5102s6.3981-.4002,7.6099-3.8843l6.4699-22.2321s.4447,23.8389-.345,25.5275c-.7896,1.6886-14.5165,29.0495-13.3074,29.9178,1.2092.8683,6.4061,4.0363,10.4568-2.7824,4.0506-6.8186,13.6264-24.4724,14.805-27.2916,1.1785-2.8191-18.7572,37.2049-17.9565,37.5227.8008.3178,5.9079,2.9656,7.9317.3569,2.0238-2.6088,19.867-31.0179,20.4552-33.3035.5882-2.2857-11.1208,27.2186-10.5099,27.2059s2.9472,3.0191,6.1394-1.0073c3.1923-4.0264,13.9155-25.6631,14.4297-26.7983.5143-1.1352.3523-14.9176.3523-14.9176,0,0,2.674,16.1881,2.0489,18.2968s-5.5378,14.3678-3.2593,14.7969c1.7327.3263,4.7411-2.9982,7.1085-7.3425,2.3674-4.3442,5.3751-10.8511,5.1492-17.0312s-11.6074-40.774-11.6074-40.774l-32.5362-3.6796Z" fill="#fe8e9c" stroke-width="0"/>
    </clipPath>
    <clipPath id="clippath-8">
      <path d="m2221.61265,620.0173s-339.3558-27.8446-409.8373-42.6372c-70.482-14.7923-129.1941,17.3628-129.1941,17.3628v72.139s182.3669,155.3737,264.143,157.4181c81.776,2.0444,252.8245-43.6141,254.1873-51.1102,1.3627-7.4961,0-51.7916-6.8145-54.5174-6.8149-2.7258-233.0621,23.1699-237.151,18.3996-2.656-3.0984-40.9617-41.5572-74.5828-70.1901h339.2494v-46.8646Z" fill="#1b3d9e" stroke-width="0"/>
    </clipPath>
    <clipPath id="clippath-9">
      <path d="m2229.10015,721.8929s5.8021-9.2558,16.6452-10.7688,14.3735,0,14.3735,0c0,0,29.1156,78.9,23.8347,80.5676-5.2809,1.6677-17.2325,1.9456-20.8458-1.3897-3.6132-3.3353-31.0274-41.4807-31.0274-41.4807,0,0,1.7661-20.6275-2.9802-26.9284Z" fill="#1b3d9e" stroke-width="0"/>
    </clipPath>
    <clipPath id="clippath-10">
      <path d="m2254.39555,641.9364s3.9462-9.9195,15.4822-10.5534c11.5361-.6338,38.5256,13.7299,40.9342,14.7441,2.4086,1.0141,34.9145,9.76,35.48,10.0463,6.9532,3.5216.7627,11.8173.7627,11.8173l-90.5261-1.0668-2.133-24.9875Z" fill="#1b3d9e" stroke-width="0"/>
    </clipPath>
  </defs>
  <path d="m1178.51645,1601.6122c-108.75362-32.2881-213.43082-74.2607-304.09652-132.1033-391.64439-249.8596-305.55719-828.6362,1.768-1109.8618,96.3699-88.1857,221.22889-149.7194,352.34562-160.6263,146.748-12.2072,300.3751,33.84,410.8259,132.4761,100.3581,89.6228,159.3073,212.5978,289.8501,265.7084,151.4119,61.6011,319.3324,37.4744,478.0286,55.7231,311.9443,35.8712,515.7996,309.1998,446.8986,621.0957-79.8534,361.473-412.1058,441.9269-734.1572,454.5203-186.7202,7.3012-373.4403-11.4338-557.2779-43.1845-122.9414-21.2332-256.3783-45.8028-384.1852-83.7477Z" fill="#f6f9ff" stroke-width="0"/>
  <g>
    <g>
      <g>
        <path d="m815.93745,1165.4429c-15.96452,14.0183-39.72992,18.4882-59.69652,11.228-19.96648-7.2602-35.3104-25.9508-38.5422-46.9491-3.8024-24.7051,6.7143-54.3965-10.7489-72.2804-8.775-8.9863-22.7239-12.0716-30.1608-22.1932-6.2442-8.4983-6.381-19.8729-6.2648-30.4178.2063-18.725.4126-37.45.6189-56.1749-8.3315-10.3934-25.1423-9.7663-35.0906-18.6244-9.841-8.7625-11.9764-23.0653-13.7412-36.1233-5.2131-38.5704-12.5121-76.8589-21.8545-114.6422,29.2012,8.5819,58.1068,17.8864,85.7868,30.5425,15.4479,7.0632,31.5974,15.6834,39.3494,30.7975,7.8002,15.2079,5.3025,33.3399,5.0656,50.43-.0765,5.52.145,11.2249,2.4781,16.2283,6.013,12.8951,22.5634,15.864,34.8978,22.9565,13.6267,7.8357,23.1276,22.4454,24.7633,38.079,1.48462,14.1905-3.1278,28.6696-.4462,42.6833,5.9449,31.067,43.1675,45.4075,58.0439,73.3214,15.5542,29.186-9.60708,59.3173-34.45808,81.1388Z" fill="#d4dfff" stroke-width="0"/>
        <path d="m892.56145,1443.0547c-.50732,0-.95652-.3643-1.04592-.8818-5.8564-33.918-26.3296-125.6143-61.8935-229.8868-26.1011-76.5283-56.3262-148.8613-89.835-214.9892-41.8775-82.6426-89.0298-155.7705-140.148-217.3526-.375-.4516-.3125-1.1215.1392-1.4965.45121-.3746,1.1211-.3125,1.4966.1391,51.22361,61.709,98.4678,134.978,140.4194,217.771,33.5547,66.2222,63.8194,138.6528,89.9527,215.2808,35.603,104.3935,56.0996,196.209,61.9633,230.1728.0996.5781-.2881,1.128-.8667,1.2276-.061.0107-.122.0156-.18208.0156Z" fill="#1c056d" stroke-width="0"/>
      </g>
      <g>
        <path d="m354.80194,1077.8643c10.0364,8.0717,14.2872,21.0952,19.3898,32.9208s12.8781,24.1817,25.3954,27.2145c13.573,3.2887,27.8276-5.676,41.4574-2.6314,11.0386,2.4658,18.8632,12.1707,24.69491,21.8621,5.83169,9.6913,10.90339,20.3432,19.91179,27.1828,13.9841,10.6174,33.4011,9.2416,50.7941,6.84s36.3254-5.0571,51.4957,3.7828c18.459,10.7561,25.3401,35.2469,43.6648,46.2302,7.7954,4.6723,16.999,6.4368,26.0623,7.1102,27.0017,2.0063,54.6061-5.2489,77.1319-20.2723-1.2993-24.6278-9.86459-51.2451-25.3419-70.4458-15.4774-19.2007-38.7266-32.5436-63.3538-33.8541-7.8571-.4181-15.8008.3465-23.5622-.9458-32.6123-5.4301-49.5611-43.2897-79.7826-56.6953-12.8396-5.6954-27.7674-6.5288-41.1612-2.2981-13.1072,4.1402-24.81,12.9163-38.4786,14.3676-13.3551,1.4181-26.2549-4.3739-39.184-8.008-24.7995-6.9708-44.9008-1.0991-69.1338,7.6398Z" fill="#d4dfff" stroke-width="0"/>
        <path d="m883.41745,1434.3467c-.47422,0-.90632-.3194-1.02932-.7998-15.5249-60.6895-50.2676-118.8399-100.47268-168.1641-43.14061-42.3838-98.54391-79.0801-164.67091-109.0693-71.1533-32.2686-153.2329-56.7364-258.30999-77-.5767-.1114-.9537-.669-.8423-1.2451.1118-.5772.6718-.9502,1.2446-.8428,105.24561,20.2969,187.47661,44.8125,258.78561,77.1523,66.35449,30.0928,121.96339,66.9297,165.28228,109.4893,50.4819,49.5957,85.4218,108.0879,101.0429,169.1523.1455.5694-.1977,1.1475-.7666,1.293-.0879.0234-.1767.0342-.26358.0342Z" fill="#1c056d" stroke-width="0"/>
      </g>
      <path d="m925.22773,1076.7825c-15.5036,2.993-32.2459-1.2088-44.499-11.1677-12.2531-9.959-19.788-25.4891-20.027-41.2771-.1815-11.9949,3.5992-23.6708,7.7238-34.9356,1.4108-3.853,2.8914-7.8793,2.38-11.9505-.4059-3.2312-2.038-6.1717-3.8138-8.9017-6.6766-10.2643-15.9826-19.1837-19.5028-30.9115-6.2483-20.8167,7.6528-43.2287,3.2958-64.5217-1.51828-7.4202-5.17628-14.2004-7.7854-21.3108-9.1872-25.0383-4.377-54.7161,12.2486-75.5707,23.4067,9.3908,38.6807,34.3483,38.913,59.5674.1159,12.5738-3.3356,25.8902,2.0096,37.2718,3.1952,6.8038,9.1147,11.8527,14.6572,16.9302,9.7084,8.8939,19.0795,19.0821,22.5128,31.7929,5.3944,19.971-4.932,42.0061,1.7618,61.5799,6.6422,19.4228,28.27812,30.9765,34.1543,50.6446,1.574,5.2682,1.9011,10.8548,1.4563,16.3351-.6843,8.4294-3.4576,17.1312-9.8063,22.7185-9.885,8.6996-22.7496,1.2109-35.6789,3.7069Z" fill="#d4dfff" stroke-width="0"/>
      <path d="m934.02773,1439.5762c-.5459,0-1.0102-.418-1.0576-.9727-4.5918-53.958-3.3325-109.1826-2.1148-162.5889,1.6846-73.8759,3.4263-150.2675-10.3876-223.8974-7.1446-38.0811-18.5669-75.9688-29.6128-112.6094-15.3672-50.9731-31.2574-103.6821-35.7998-157.561-.0494-.585.3847-1.0991.9697-1.1485.5752-.0483,1.09862.3843,1.1484.9698,4.5235,53.6567,20.3814,106.2578,35.7168,157.1264,11.062,36.6944,22.501,74.6377,29.6665,112.8301,13.8555,73.8486,12.11092,150.3535,10.4238,224.3389-1.2163,53.3496-2.4746,108.5156,2.108,162.3603.0498.585-.3843,1.0987-.9688,1.1485-.0308.0029-.0615.0039-.0918.0039Z" fill="#1c056d" stroke-width="0"/>
    </g>
    <g>
      <path d="m817.07445,1779.3366s-98.217-331.8885-82.40151-340.6718c15.81551-8.7833,403.53719-9.1331,403.53719-9.1331,0,0-44.462,349.0601-56.8074,349.8049-12.3454.7448-231.63259,1.5145-264.32828,0Z" fill="#1b3d9e"/>
      <g clip-path="url(#clippath)">
        <path d="m912.79773,1403.8599s-113.4278,144.9088-106.9831,148.7757c6.44482,3.8669,325.08039,69.6034,324.94819,65.7365-.1323-3.8668,32.40142-188.8404,32.40142-188.8404l-250.36652-25.6718Z" fill="#1c056d" stroke-width="0"/>
      </g>
    </g>
  </g>
  <g>
    <g>
      <g>
        <rect x="1567.42135" y="1494.29" width="277.4296" height="235.7672" fill="#1b3d9e" stroke-width="0"/>
        <rect x="1461.80005" y="1730.0572" width="495.3715" height="50.1499" rx="20.8532" ry="20.8532" fill="#1c056d" stroke-width="0"/>
      </g>
      <path d="m1009.07453,672.0503c.5882-1.1722,1.7797-1.9055,3.0911-1.9143,55.9507-.3768,1341.22462-8.9305,1398.16332.0127,22.4483,3.5259,16.8667,858.0832,0,890.7305-12.4044,24.0101-1384.10972,2.8972-1400.04512,0-19.6485-3.5722-29.3789-832.6902-1.2093-888.8289Z" fill="#6880e4" stroke-width="0"/>
      <g>
        <path d="m1042.90262,711.3611s-4.3977,729.6514,13.1929,731.645,1299.50542,9.9679,1310.49962,0c10.9941-9.9679,15.3917-737.6257,0-737.6257s-1323.69252,5.9807-1323.69252,5.9807Z" fill="#d4dfff"/>
        <g clip-path="url(#clippath-1)">
          <polygon points="1884.83345 688.8271 1386.64065 1462.3017 1018.39082 1462.3017 1042.90262 711.3611 1884.83345 688.8271" fill="#6880e4" opacity=".46" stroke-width="0"/>
          <polygon points="1500.37565 1468.6153 1979.20325 684.6786 2189.32615 684.6786 1728.00315 1464.5117 1500.37565 1468.6153" fill="#6880e4" opacity=".46" stroke-width="0"/>
          <polygon points="2278.19055 687.589 1814.59625 1469.2879 2101.76755 1465.6528 2410.16745 898.0323 2403.95285 692.5208 2278.19055 687.589" fill="#6880e4" opacity=".46" stroke-width="0"/>
        </g>
      </g>
    </g>
    <circle cx="1706.13615" cy="1516.43513" r="33.71681" transform="translate(-450.44258 768.34139) rotate(-22.49999)" fill="#1b3d9e" stroke-width="0"/>
    <g>
      <path d="m1388.12425,1026.614c1.6537-7.715,4.8911-13.5755,9.7181-17.5752,4.8199-3.9932,10.1314-6.061,15.9212-6.2029,5.7899-.1359,11.3007,1.5894,16.5409,5.1689,5.2342,3.5862,8.9559,9.0979,11.1653,16.5415.2718,17.9243.4144,35.6351.4144,53.1393,0,17.5106.2706,35.0861.8262,52.7259,12.1281,0,23.9144-.1356,35.3576-.4138,11.4371-.2711,22.3959-.4134,32.8763-.4134,7.4436,2.21,12.9556,5.7249,16.5409,10.5451,3.5805,4.8268,5.3055,9.8604,5.1702,15.0943-.1426,5.2402-2.2106,10.067-6.203,14.4737-4.0008,4.413-9.8608,7.4436-17.5761,9.0976-10.7522,0-21.5033.0712-32.2555.2068-10.7522.1423-21.5044.071-32.2554-.2068.5484,13.7888.8914,28.7408,1.034,44.8686.1353,16.128.3418,31.0864.6197,44.8685-.5557,9.0979-3.5152,15.8566-8.8907,20.2633-5.3768,4.4133-11.372,6.6167-17.9893,6.6167-6.6161,0-12.8903-2.274-18.8155-6.8233-5.9323-4.5486-9.4464-11.23-10.5456-20.0567-.2779-14.0599-.0713-28.8761.6209-44.4548.6849-15.5724.7562-30.3949.2065-44.4552-11.8563-.2715-24.6053-.8918-38.2518-1.8609-13.6466-.9627-26.88-2.9592-39.6991-5.9964-12.8202-3.0302-24.6065-7.3013-35.3575-12.8193-10.7522-5.5117-19.4364-12.8197-26.0525-21.9176-6.0677-8.5419-9.5116-17.7821-10.3391-27.7068-.8275-9.9248.1353-20.121,2.8943-30.6018,2.753-10.4738,6.8891-21.0901,12.4072-31.842,5.5108-10.7519,11.5072-21.0904,17.988-31.0152,6.4748-9.9247,12.9556-19.2295,19.4364-27.9137,6.4747-8.6841,12.1994-16.3346,17.1617-22.9513,11.0229-14.8871,22.3307-29.3608,33.9104-43.4211,11.5785-14.0603,23.157-28.2561,34.7367-42.5942,6.0604-4.9624,12.3347-7.5082,18.8155-7.6505,6.4747-.1356,12.0568,1.4475,16.7486,4.7558,4.6846,3.3084,7.9219,7.9993,9.7182,14.0603,1.789,6.0674,1.3046,12.8194-1.4472,20.2633-9.3763,11.5787-20.4063,24.7472-33.0829,39.4924-12.6838,14.7516-25.161,30.1883-37.4256,46.3161-12.2707,16.1277-23.436,32.5336-33.4961,49.2106-10.0673,16.6837-17.1617,32.8761-21.2966,48.5904-1.655,5.5183-1.0341,10.2739,1.8603,14.2671,2.8943,3.9997,7.1657,7.308,12.8202,9.9248,5.6473,2.6234,12.1982,4.7558,19.643,6.4098,7.4436,1.6541,14.8159,2.8947,22.1241,3.7218,7.3011.8272,14.0597,1.4475,20.2627,1.8609,6.203.4134,10.9588.7625,14.2674,1.034-.5556-17.3686-.8274-34.8018-.8274-52.3124v-52.3122Z" fill="#fff" stroke-width="0"/>
      <path d="m1588.68865,1217.254c-3.5853-11.8506-7.1718-26.6731-10.751-44.4551-3.5865-17.7821-6.2743-37.0116-8.0645-57.6883-1.7963-20.6767-2.416-41.9027-1.8603-63.6844.5484-21.7753,2.9584-42.5942,7.2358-62.444,4.2714-19.8496,10.8175-37.9031,19.643-54.1731,8.8206-16.2636,20.5356-29.0833,35.151-38.4587,18.1957-11.5791,36.94-19.8498,56.2411-24.8122,19.2938-4.9624,38.1806-6.8879,56.6542-5.7896,18.4664,1.105,36.0425,5.0337,52.7259,11.786,16.6773,6.7586,31.2866,15.9209,43.8339,27.4999,12.5425,11.5791,22.6025,25.5035,30.1886,41.7671,7.5789,16.27,11.6437,34.4658,12.1994,54.5868.2718,19.0227.9628,39.3569,2.0681,60.9963,1.098,21.6461,1.1693,43.3568.2065,65.1319-.97,21.7816-3.793,42.8011-8.4776,63.0643-4.6905,20.2633-12.4059,38.5297-23.1581,54.7934-9.0973,13.7887-21.2967,24.9544-36.5982,33.4963-15.3003,8.5489-31.8423,14.5453-49.6238,17.9893-17.7826,3.4439-36.0485,4.342-54.7939,2.6877-18.7515-1.6543-36.3264-5.8539-52.7259-12.6131-16.4056-6.752-30.8796-15.9212-43.4208-27.5-12.5485-11.579-21.4392-25.6393-26.6734-42.1805Zm69.0614-273.347c-7.173,5.5181-13.5825,13.5819-19.2298,24.1916-5.6534,10.6163-8.8908,21.853-9.7182,33.7032-1.1053,16.5415-2.2094,33.2895-3.3087,50.2447-1.1041,16.9549-1.5184,33.703-1.2406,50.2444.2718,16.5415,1.6549,32.8115,4.1361,48.7973,2.4812,15.9921,7.0293,31.293,13.6466,45.9026,4.1349,9.6532,10.2666,17.7817,18.4023,24.3984,8.1285,6.6164,17.2258,11.7211,27.2931,15.3009,10.0601,3.5862,20.741,5.5827,32.0489,5.9961,11.3007.4137,22.3307-.6849,33.0829-3.308,10.7523-2.6171,20.8836-6.8236,30.3952-12.6132,9.5104-5.7892,17.5749-13.2331,24.191-22.3307,4.6846-5.7895,8.4776-13.8534,11.3731-24.1919,2.8944-10.3385,5.0264-21.8463,6.4096-34.5301,1.3759-12.6774,2.2033-25.7749,2.4812-39.2859.2718-13.5046.2718-26.3242,0-38.4587-.2779-12.1284-.5557-22.9513-.8275-32.4626-.2778-9.5114-.4131-16.4705-.4131-20.8836.2718-13.2331-1.8615-25.5681-6.4096-37.0116-4.5492-11.4368-10.8235-21.4325-18.8167-29.9811-7.9992-8.5422-17.4396-15.4365-28.3271-20.677-10.8935-5.2335-22.6085-8.2704-35.1498-9.0976-12.5484-.8271-25.6393.8272-39.2859,4.9624-13.6465,4.1352-27.229,11.1654-40.733,21.0904Z" fill="#fff" stroke-width="0"/>
      <path d="m2077.07465,1026.614c1.6538-7.715,4.8911-13.5755,9.7182-17.5752,4.8199-3.9932,10.1313-6.061,15.9212-6.2029,5.7898-.1359,11.3006,1.5894,16.5409,5.1689,5.2341,3.5862,8.9559,9.0979,11.1653,16.5415.2718,17.9243.4143,35.6351.4143,53.1393,0,17.5106.2706,35.0861.8263,52.7259,12.1281,0,23.9144-.1356,35.3576-.4138,11.4371-.2711,22.3959-.4134,32.8763-.4134,7.4436,2.21,12.9556,5.7249,16.5409,10.5451,3.5804,4.8268,5.3054,9.8604,5.1701,15.0943-.1425,5.2402-2.2106,10.067-6.2029,14.4737-4.0009,4.413-9.8608,7.4436-17.5761,9.0976-10.7523,0-21.5033.0712-32.2555.2068-10.7522.1423-21.5044.071-32.2555-.2068.5485,13.7888.8915,28.7408,1.0341,44.8686.1353,16.128.3418,31.0864.6197,44.8685-.5557,9.0979-3.5153,15.8566-8.8908,20.2633-5.3767,4.4133-11.3719,6.6167-17.9892,6.6167-6.6161,0-12.8903-2.274-18.8155-6.8233-5.9324-4.5486-9.4464-11.23-10.5456-20.0567-.2779-14.0599-.0713-28.8761.6209-44.4548.6849-15.5724.7562-30.3949.2065-44.4552-11.8563-.2715-24.6053-.8918-38.2519-1.8609-13.6465-.9627-26.8799-2.9592-39.699-5.9964-12.8203-3.0302-24.6065-7.3013-35.3575-12.8193-10.7523-5.5117-19.4364-12.8197-26.0525-21.9176-6.0677-8.5419-9.5117-17.7821-10.3391-27.7068-.8275-9.9248.1353-20.121,2.8943-30.6018,2.753-10.4738,6.8891-21.0901,12.4071-31.842,5.5109-10.7519,11.5073-21.0904,17.9881-31.0152,6.4747-9.9247,12.9555-19.2295,19.4364-27.9137,6.4747-8.6841,12.1993-16.3346,17.1617-22.9513,11.0228-14.8871,22.3307-29.3608,33.9104-43.4211,11.5785-14.0603,23.157-28.2561,34.7367-42.5942,6.0604-4.9624,12.3346-7.5082,18.8155-7.6505,6.4747-.1356,12.0568,1.4475,16.7486,4.7558,4.6845,3.3084,7.9219,7.9993,9.7182,14.0603,1.789,6.0674,1.3046,12.8194-1.4472,20.2633-9.3763,11.5787-20.4064,24.7472-33.0829,39.4924-12.6838,14.7516-25.161,30.1883-37.4256,46.3161-12.2707,16.1277-23.436,32.5336-33.4961,49.2106-10.0673,16.6837-17.1617,32.8761-21.2967,48.5904-1.6549,5.5183-1.034,10.2739,1.8603,14.2671,2.8943,3.9997,7.1658,7.308,12.8203,9.9248,5.6473,2.6234,12.1982,4.7558,19.643,6.4098,7.4435,1.6541,14.8158,2.8947,22.1241,3.7218,7.301.8272,14.0597,1.4475,20.2627,1.8609,6.2029.4134,10.9587.7625,14.2674,1.034-.5557-17.3686-.8275-34.8018-.8275-52.3124v-52.3122Z" fill="#fff" stroke-width="0"/>
    </g>
    <g>
      <path d="m1307.45745,1566.5561l-132.5872-372.7571,33.6676,5.4103c1.9014.3055,3.4883,1.6163,4.1474,3.4257l132.6913,364.2753c.0295.0811-.0313.1666-.1176.1655l-37.8015-.5197Z" fill="#1b3d9e" opacity=".54" stroke-width="0"/>
      <g>
        <path d="m881.20693,1582.3899c5.5991-.9917,280.68282-391.4466,293.66332-388.5909s164.1388,461.7299,158.523,460.8379-466.09632-69.7832-452.18632-72.247Z" fill="#fc476a" stroke-width="0"/>
        <path d="m1132.10212,1519.2393c-2.1368,1.9154-4.3042,3.1554-6.5059,3.7202-2.2035.5681-4.3125.5497-6.3297-.055-2.0165-.6009-3.844-1.7355-5.4797-3.4051-1.6363-1.6661-2.8757-3.8371-3.71938-6.5065,1.33788-16.4039,2.36508-33.0721,3.08228-50.0005.7155-16.9256,1.6291-33.7539,2.7374-50.4787,1.1045-16.7247,2.701-33.1938,4.7856-49.4134,2.0804-16.2165,5.15972-31.8193,9.23-46.8059.3308-1.2151,1.4548-2.3036,3.3709-3.267,1.9124-.9639,4.2391-1.6509,6.9809-2.0597,2.7397-.4104,5.7226-.5704,8.95023-.4806,3.2238.09,6.3308.4779,9.3209,1.164,2.9876.6856,5.6436,1.7084,7.9643,3.0604,2.32,1.3555,4.0129,3.1032,5.082,5.2441,1.7339,2.388,2.7711,6.4973,3.1131,12.3251.3416,5.8303.2099,12.8505-.3882,21.0638-.6024,8.2163-1.6972,17.3371-3.2898,27.3634-1.593,10.0294-3.4773,20.3291-5.6476,30.8969-2.1744,10.5708-4.5619,21.1774-7.1659,31.8178-2.6082,10.6442-5.3669,20.6957-8.2774,30.1626-2.9128,9.4665-5.83043,18.0873-8.75513,25.8615-2.9248,7.7747-5.7545,14.0523-8.4835,18.828-.022.1387-.2147.4607-.5754.9646Zm-28.4758,62.2347c-3.0138-2.3113-5.4413-4.984-7.2817-8.0227-1.8416-3.039-2.90118-6.1313-3.1747-9.2713-.2768-3.143.385-6.2071,1.9876-9.1913,1.6005-2.9864,4.2676-5.5898,8.0015-7.8127,5.1442-3.1275,10.2969-4.3161,15.45942-3.565,5.16318.7468,9.13528,3.8802,11.92358,9.3932,2.62042,4.7805,3.8762,9.9439,3.7709,15.4921-.10848,5.5452-2.52348,10.3379-7.2486,14.3762-3.4521,3.1132-7.35188,4.3947-11.70088,3.8455-4.34872-.5517-8.26392-2.2998-11.73712-5.244Z" fill="#fff" stroke-width="0"/>
      </g>
    </g>
  </g>
  <g>
    <g>
      <rect x="2310.61035" y="1365.7319" width="357.0336" height="412.9838" rx="12.0794" ry="12.0794" fill="#1b3d9e"/>
      <g clip-path="url(#clippath-2)">
        <path d="m2677.69405,1424.2108s-139.8401,196.9025-392.9232,251.399v120.522h401.7397s10.4888-364.8674-8.8165-371.921Z" fill="#1c056d" stroke-width="0"/>
      </g>
    </g>
    <g>
      <path d="m2404.98405,1365.7319s-4.738-339.9694,1.5793-343.9177,54.4865-7.8966,58.4348,1.5793,0,342.3384,0,342.3384h-60.0141Z" fill="#fc476a"/>
      <g clip-path="url(#clippath-3)">
        <polygon points="2446.29275 1070.3099 2446.29275 1372.4404 2423.73865 1372.4404 2423.73865 1070.9178 2446.29275 1070.3099" fill="#d40221" stroke-width="0"/>
        <path d="m2393.91605,1083.3677s70.0871-5.3171,79.8572-.432c0,0-.4885-69.8563-4.3965-71.3218-3.9081-1.4656-70.8333-1.8426-72.2988,5.9178-1.4656,7.7603-3.1619,65.836-3.1619,65.836Z" fill="#d4dfff" stroke-width="0"/>
      </g>
    </g>
    <g>
      <path d="m2504.05955,871.3233h132.0127c2.06124,0,3.7347,1.67346,3.7347,3.7347v490.6739h-139.4821v-490.6739c0-2.06124,1.67346-3.7347,3.7347-3.7347Z" fill="#d4dfff"/>
      <g clip-path="url(#clippath-4)">
        <rect x="2489.12715" y="853.2511" width="47.8485" height="530.4756" fill="#6880e4" opacity=".46" stroke-width="0"/>
        <rect x="2500.32485" y="909.2527" width="17.5747" height="6.1216" fill="#6880e4" stroke-width="0"/>
        <rect x="2500.32485" y="937.4364" width="17.5747" height="6.1217" fill="#6880e4" stroke-width="0"/>
        <rect x="2500.32485" y="965.6202" width="17.5747" height="6.1217" fill="#6880e4" stroke-width="0"/>
        <rect x="2500.32485" y="993.804" width="17.5747" height="6.1217" fill="#6880e4" stroke-width="0"/>
        <rect x="2500.32485" y="1021.9878" width="17.5747" height="6.1217" fill="#6880e4" stroke-width="0"/>
        <rect x="2500.32485" y="1050.1716" width="17.5747" height="6.1216" fill="#6880e4" stroke-width="0"/>
        <rect x="2500.32485" y="1078.3554" width="17.5747" height="6.1216" fill="#6880e4" stroke-width="0"/>
        <rect x="2500.32485" y="1106.5392" width="17.5747" height="6.1216" fill="#6880e4" stroke-width="0"/>
        <rect x="2500.32485" y="1134.723" width="17.5747" height="6.1216" fill="#6880e4" stroke-width="0"/>
        <rect x="2500.32485" y="1162.9067" width="17.5747" height="6.1217" fill="#6880e4" stroke-width="0"/>
        <rect x="2500.32485" y="1191.0905" width="17.5747" height="6.1217" fill="#6880e4" stroke-width="0"/>
        <rect x="2500.32485" y="1219.2743" width="17.5747" height="6.1217" fill="#6880e4" stroke-width="0"/>
        <rect x="2500.32485" y="1247.4581" width="17.5747" height="6.1216" fill="#6880e4" stroke-width="0"/>
        <rect x="2500.32485" y="1275.6419" width="17.5747" height="6.1216" fill="#6880e4" stroke-width="0"/>
        <rect x="2500.32485" y="1303.8257" width="17.5747" height="6.1216" fill="#6880e4" stroke-width="0"/>
        <rect x="2500.32485" y="1332.0095" width="17.5747" height="6.1216" fill="#6880e4" stroke-width="0"/>
        <path d="m2609.63525,852.6687c-38.7049,33.1567-52.279,92.4587-31.8511,139.1506,9.7216,22.2208,26.3388,42.0404,29.4555,66.0936,3.0236,23.3345-7.2388,46.0319-15.3554,68.1172-7.9986,21.7641-14.1556,44.7574-12.5306,67.8877,2.6576,37.828,25.8601,73.2156,22.07,110.9469-3.6404,36.2399-31.8275,67.7918-30.2045,104.1778.4645,0-.4881,1.6024-.0236,1.6024h90.6204l-.0429-560.2984,11.148.1114-63.2858,2.2108Z" fill="#6880e4" opacity=".17" stroke-width="0"/>
      </g>
    </g>
  </g>
  <path d="m2910.78365,1784.458H621.27673c-2.3481,0-4.2509-1.9033-4.2509-4.251s1.9028-4.2509,4.2509-4.2509h2289.50691c2.3476,0,4.2509,1.9033,4.2509,4.2509s-1.9033,4.251-4.2509,4.251Z" fill="#1c056d" stroke-width="0"/>
  <g>
    <g>
      <g>
        <path d="m1319.37215,613.0392l-52.9766,6.8533c-29.1679-13.6659-57.4119-22.5158-83.7437-19.7648-26.4517,2.7637-41.64773,30.4587-35.1208,49.107,5.7402,16.4005,53.3344,33.2213,73.8643,33.6163,20.5299.3946,51.7197-4.3429,63.1689-14.5007.0166-.0148.028-.0332.0446-.048h34.7633v-55.2631Z" fill="#fe8e9c"/>
        <g clip-path="url(#clippath-5)">
          <path d="m1202.95845,685.373s10.1941-19.9248,9.7307-35.2159c-.4633-15.2912-21.4801-39.1188-21.4801-39.1188l-17.4428.8909s5.6883,55.8362.6432,65.6826c-5.0452,9.8464,0,0,0,0l28.549,7.7612Z" fill="#e57492" stroke-width="0"/>
        </g>
      </g>
      <path d="m1284.56425,668.3503s10.4944-16.1084-13.8947-32.3678c0,0,21.7524,3.5155,29.2229,18.0171,7.4706,14.5017,5.9325,14.7214,5.9325,14.7214l-21.2607-.3707Z" fill="#e57492" stroke-width="0"/>
    </g>
    <g>
      <path d="m1266.39555,619.8925s-16.98,1.5073-20.2637,1.5869c-11.8931.2881-23.8114.9428-23.8114.9428,0,0-7.4083-24.0484-18.3031-19.1202-16.0004,7.2378,2.2879,18.4665,2.2879,18.4665,0,0-28.4351-4.7392-31.2133-4.9026-2.7781-.1634,21.285,50.5921-4.3858,66.0078-25.6707,15.4158-54.26602,7.2921-57.84042-32.6763s37.36882-78.3121,75.06262-77.0123c37.6937,1.2998,78.4672,46.7074,78.4672,46.7074Z" fill="#1b3d9e"/>
      <g clip-path="url(#clippath-6)">
        <path d="m1148.88245,690.1765s19.5418-16.3702,18.5768-34.4645c-.9651-18.0943-6.7982-46.4214-3.9323-48.3014,2.866-1.8801,32.966,10.1344,32.966,10.1344,0,0-5.542-8.1253,4.1143-12.2852,9.6562-4.16,0,0,0,0,0,0,15.2984,16.7468,14.217,18.5042-1.0815,1.7573-36.2293-1.7574-36.2293-1.7574,0,0,13.7887,33.8635,3.9203,53.8707-9.8684,20.0073-33.6328,14.2992-33.6328,14.2992" fill="#1c056d" stroke-width="0"/>
      </g>
    </g>
    <path d="m1265.28075,668.721s-8.09-2.3246-8.09-16.3693,0-1.4036,0-1.4036c0,0,8.2207,14.9456,8.09,17.7729Z" fill="#f6f9ff" stroke-width="0"/>
    <path d="m1199.50555,651.5899s32.2652,17.5481,35.2934,15.6846-2.4459-21.5469-2.4459-21.5469c0,0,3.4941-.2329,4.3094,2.9117.8153,3.1447,5.3576,21.6634,0,22.0128s-31.9188-12.7341-37.1569-19.0622Z" fill="#e57492" stroke-width="0"/>
    <g>
      <path d="m1386.09865,984.9433s-7.9137,10.6444-10.5276,15.9097c-2.614,5.2653-3.4556,31.6002-2.9072,31.5102s6.3981-.4002,7.6099-3.8843l6.4699-22.2321s.4447,23.8389-.345,25.5275c-.7896,1.6886-14.5165,29.0495-13.3074,29.9178,1.2092.8683,6.4061,4.0363,10.4568-2.7824,4.0506-6.8186,13.6264-24.4724,14.805-27.2916,1.1785-2.8191-18.7572,37.2049-17.9565,37.5227.8008.3178,5.9079,2.9656,7.9317.3569,2.0238-2.6088,19.867-31.0179,20.4552-33.3035.5882-2.2857-11.1208,27.2186-10.5099,27.2059s2.9472,3.0191,6.1394-1.0073c3.1923-4.0264,13.9155-25.6631,14.4297-26.7983.5143-1.1352.3523-14.9176.3523-14.9176,0,0,2.674,16.1881,2.0489,18.2968s-5.5378,14.3678-3.2593,14.7969c1.7327.3263,4.7411-2.9982,7.1085-7.3425,2.3674-4.3442,5.3751-10.8511,5.1492-17.0312s-11.6074-40.774-11.6074-40.774l-32.5362-3.6796Z" fill="#fe8e9c"/>
      <g clip-path="url(#clippath-7)">
        <path d="m1369.60955,1010.0905c.4962,1.802,24.7505-11.6544,57.7911-6.488,0,0-4.4454-20.0647-8.0499-21.867-3.6044-1.8022-31.9593-1.8022-36.2846.2403-4.3254,2.0426-15.7394,19.8245-13.4566,28.1147Z" fill="#e57492" stroke-width="0"/>
      </g>
    </g>
    <g>
      <path d="m1682.58125,590.0925c0-2.1215-1.5195-3.9384-3.6073-4.3138l-171.8928-30.9127c-144.1945-12.3325-187.709,51.4927-187.709,51.4927v61.969l16.8682-.0672c12.4892,36.472,48.0237,140.9916,51.6408,159.9799,4.3961,23.0808-23.9685,162.0633-21.0297,163.905,2.9394,1.8418,66.6184,9.6793,72.4966,8.6996,5.8782-.9796,35.2683-154.0379,33.3092-172.5379-1.5039-14.2015-5.8958-111.595-16.7181-160.523l226.6421-.9022v-76.7894Z" fill="#fc476a" stroke-width="0"/>
      <path d="m1455.93915,667.7841s-4.2936-22.7279-23.3573-38.5047c0,0,101.8921,20.3784,131.4736,22.3505,29.5816,1.9721,118.5258-5.8519,118.5258-5.8519v21.1039l-226.6421.9022Z" fill="#d40221" stroke-width="0"/>
    </g>
    <path d="m2193.70025,728.9626s35.8262-8.5087,36.7218-6.8667c.8957,1.6421,5.971,18.0624,4.0305,24.0334-1.9406,5.971-37.1697,18.8087-37.1697,18.8087l-3.5826-35.9754Z" fill="#e57492" stroke-width="0"/>
    <g>
      <path d="m2221.61265,620.0173s-339.3558-27.8446-409.8373-42.6372c-70.482-14.7923-129.1941,17.3628-129.1941,17.3628v72.139s182.3669,155.3737,264.143,157.4181c81.776,2.0444,252.8245-43.6141,254.1873-51.1102,1.3627-7.4961,0-51.7916-6.8145-54.5174-6.8149-2.7258-233.0621,23.1699-237.151,18.3996-2.656-3.0984-40.9617-41.5572-74.5828-70.1901h339.2494v-46.8646Z" fill="#1b3d9e"/>
      <g clip-path="url(#clippath-8)">
        <path d="m1963.39295,783.3564c-1.2001,0-2.1572-.0415-2.9228-.1264-.1856-.0205-.3789-.0484-.5811-.084-.8671-.1509-1.4472-.9771-1.2959-1.8442.1514-.8677.9776-1.4522,1.8448-1.2964.1338.0229.2627.042.3847.0556,1.0069.1119,2.5869.1348,4.5957.0718.8868-.0283,1.6162.6616,1.6446,1.5425.0273.8804-.6631,1.6162-1.543,1.644-.7715.0245-1.4814.0371-2.127.0371Zm7.4053-.3227c-.8291,0-1.5293-.6421-1.5888-1.4824-.0616-.8784.6005-1.6407,1.4794-1.7022,1.6172-.1137,3.3848-.2563,5.2891-.4262.8652-.0787,1.6514.5683,1.7295,1.4462.0781.877-.5693,1.6514-1.4463,1.7295-1.9258.1719-3.7129.3164-5.3496.4312-.0381.0024-.0752.0039-.1133.0039Zm10.6289-.9346c-.8086,0-1.5009-.6123-1.584-1.4336-.0888-.8759.5498-1.6582,1.4258-1.7466,1.6856-.1709,3.4502-.3564,5.2881-.5566.8731-.0933,1.6631.5366,1.7578,1.4126.0947.875-.5371,1.6621-1.4121,1.7573-1.8476.2012-3.6201.3877-5.3135.5586-.0537.0059-.1084.0083-.1621.0083Zm-26.3125-.6015c-.207,0-.4179-.0411-.6211-.127-1.4394-.6099-3.0976-1.3843-4.9287-2.3022-.7871-.3946-1.1054-1.3526-.7109-2.1397.3945-.7876,1.3535-1.1045,2.1387-.7109,1.7714.8877,3.3681,1.6338,4.7451,2.2173.8105.3432,1.1894,1.2793.8457,2.0898-.2578.6074-.8477.9727-1.4688.9727Zm36.9082-.5503c-.7988,0-1.4883-.5987-1.582-1.4117-.1006-.8745.5264-1.6655,1.4014-1.7661,1.7099-.1977,3.4726-.4048,5.2832-.622.874-.1079,1.667.519,1.7724,1.393.1045.8745-.5195,1.668-1.3935,1.773-1.8145.2173-3.5811.4253-5.2969.623-.0615.0073-.124.0108-.1846.0108Zm10.5772-1.2676c-.793,0-1.4805-.5908-1.5801-1.398-.1084-.874.5117-1.6699,1.3857-1.7783,1.7247-.2138,3.4844-.4346,5.2784-.6631.8701-.1132,1.6718.5069,1.7822,1.3804.1113.8735-.5068,1.6714-1.3799,1.7827-1.7978.2285-3.5605.4502-5.2881.6641-.0664.0083-.1328.0122-.1982.0122Zm10.5625-1.3423c-.7891,0-1.4746-.5854-1.5791-1.3892-.1133-.873.5029-1.6728,1.376-1.7861,1.7334-.2251,3.4912-.4556,5.2753-.6919.8731-.1133,1.6748.499,1.7891,1.3711.1162.8731-.498,1.6743-1.3711,1.79-1.7861.2364-3.5478.4673-5.2832.6929-.0693.0088-.1387.0132-.207.0132Zm10.5566-1.397c-.7861,0-1.4707-.581-1.5781-1.3818-.1172-.8726.4951-1.6748,1.3672-1.7925l5.2724-.7139c.8692-.1254,1.6758.4922,1.795,1.3643.1181.8726-.4922,1.6763-1.3653,1.7949l-5.2763.7149c-.0723.0097-.1446.0141-.2149.0141Zm-78.1679-.1772c-.2569,0-.5176-.0625-.7598-.1934-1.4834-.8052-3.0469-1.6767-4.6865-2.6098-.7647-.4356-1.0323-1.4087-.5967-2.1739.4346-.7646,1.4072-1.0341,2.1748-.5966,1.6191.9213,3.164,1.7822,4.6299,2.5776.7734.4199,1.0605,1.3882.6406,2.1616-.2891.5322-.8369.8345-1.4023.8345Zm88.7158-1.2612c-.7842,0-1.4668-.5782-1.5772-1.3765-.1201-.8721.4893-1.6768,1.3614-1.7969l5.2695-.7314c.8681-.1167,1.6777.4873,1.7988,1.3589.1211.872-.4873,1.6777-1.3584,1.7993l-5.2744.7314c-.0742.0103-.1475.0152-.2197.0152Zm10.542-1.4712c-.7823,0-1.4649-.5757-1.5772-1.3721-.1221-.8721.4854-1.6782,1.3565-1.8008l5.2666-.7456c.8642-.1309,1.6787.4815,1.8027,1.3535.124.8716-.4814,1.6787-1.3535,1.8028l-5.2705.7465c-.0762.0108-.1504.0157-.2246.0157Zm10.5371-1.4986c-.7803,0-1.4619-.5732-1.5762-1.3681-.125-.8716.4805-1.6792,1.3525-1.8042l5.2647-.7578c.8789-.1231,1.6807.478,1.8066,1.3496.126.8711-.4785,1.6796-1.3496,1.8056l-5.2705.7588c-.0762.0108-.1523.0161-.2275.0161Zm-119.0664-1.0342c-.2744,0-.5528-.0712-.8067-.2211-1.4824-.8726-3.0136-1.7862-4.5898-2.7378-.7539-.4546-.9971-1.4346-.542-2.1885.4551-.7525,1.4365-.9971,2.1885-.541,1.5664.9448,3.0879,1.8525,4.5605,2.7202.7588.4468,1.0117,1.4238.5654,2.1826-.2978.5044-.8291.7856-1.3759.7856Zm129.5986-.4877c-.7793,0-1.4609-.5713-1.5762-1.3653-.1259-.8711.4776-1.6802,1.3487-1.8066l5.2646-.7681c.8789-.1265,1.6807.4746,1.8086,1.3457.1279.8716-.4746,1.6812-1.3457,1.8091l-5.2686.7686c-.0781.0112-.1552.0166-.2314.0166Zm10.5303-1.543c-.7783,0-1.459-.5698-1.5752-1.3623-.128-.8711.4746-1.6812,1.3457-1.8091l5.2637-.7773c.8691-.1299,1.6816.4726,1.8105,1.3432.1289.8711-.4727,1.6817-1.3438,1.8111l-5.2675.7773c-.0782.0117-.1563.0171-.2334.0171Zm10.5478-1.562c-.7763,0-1.457-.5684-1.5752-1.3594-.1289-.8711.4717-1.6821,1.3428-1.8115l5.2676-.7866c.8789-.1329,1.6826.4702,1.8135,1.3408.1298.8706-.4707,1.6821-1.3409,1.8125l-5.2714.7866c-.0791.0122-.1583.0176-.2364.0176Zm10.5244-1.5752c-.7763,0-1.456-.5669-1.5742-1.3574-.1308-.8706.4688-1.6827,1.3399-1.8135l5.2607-.7925c.874-.1333,1.6836.4678,1.8145,1.3379.1318.8706-.4678,1.6831-1.3379,1.8144l-5.2647.7935c-.0801.0117-.1592.0176-.2383.0176Zm-170.3261-.334c-.2842,0-.5733-.0762-.834-.2363-1.4785-.9102-2.9912-1.8482-4.5342-2.8125-.7471-.4668-.9736-1.4502-.5068-2.1968.4648-.7461,1.4472-.9746,2.1963-.5073,1.5371.9604,3.0439,1.8945,4.5166,2.8007.75.462.9834,1.4439.5214,2.1934-.3007.4893-.8232.7588-1.3593.7588Zm180.8515-1.2554c-.7744,0-1.4541-.5654-1.5742-1.355-.1318-.8706.4668-1.6836,1.3369-1.8154l5.2598-.7998c.8682-.1265,1.6836.4653,1.8164,1.3359.1328.8707-.4658,1.6836-1.3359,1.8165l-5.2618.7998c-.081.0122-.1621.018-.2412.018Zm10.5215-1.603c-.7744,0-1.4531-.5645-1.5742-1.3535-.1328-.8701.4648-1.6836,1.335-1.8164l5.2587-.8057c.876-.1323,1.6846.4639,1.8184,1.3335.1328.8706-.4639,1.6841-1.334,1.8179l-5.2607.8061c-.0821.0122-.1631.0181-.2432.0181Zm10.5205-1.6152c-.7734,0-1.4521-.5635-1.5742-1.3516-.1338-.8706.4639-1.6846,1.334-1.8184l5.2588-.811c.8652-.1323,1.6845.4619,1.8183,1.3325.1348.8701-.4619,1.6841-1.332,1.8189l-5.2607.811c-.0821.0127-.1631.0186-.2442.0186Zm-210.9267-1.168c-.2911,0-.586-.0796-.8506-.2471-1.4756-.9341-2.9766-1.8891-4.4981-2.8637-.7422-.4751-.958-1.461-.4834-2.2027.4756-.7412,1.4619-.959,2.2022-.4824,1.5176.9712,3.0127,1.9233,4.4844,2.8545.7441.4707.9658,1.4556.4941,2.1997-.3027.4795-.8203.7417-1.3486.7417Zm221.4472-.4575c-.7724,0-1.4511-.5625-1.5732-1.3501-.1348-.8701.4609-1.6846,1.331-1.8194l5.2588-.8169c.876-.1352,1.6856.4605,1.8203,1.3301.1358.8701-.4599,1.6851-1.33,1.8203l-5.2608.8169c-.083.0132-.165.0191-.2461.0191Zm10.5186-1.6367c-.7725,0-1.4512-.5621-1.5733-1.3487-.1357-.8701.46-1.6855,1.3301-1.8208l5.2598-.8218c.8652-.1308,1.6855.4595,1.8213,1.3291.1357.8697-.459,1.6851-1.3291,1.8213l-5.2617.8218c-.0831.0132-.1651.0191-.2471.0191Zm10.5215-1.6465c-.7715,0-1.4493-.5611-1.5733-1.3472-.1367-.8696.458-1.6855,1.3282-1.8218l5.2587-.8271c.8789-.1358,1.6866.4575,1.8233,1.3266.1367.8697-.457,1.6861-1.3272,1.8228l-5.2607.8276c-.083.0127-.167.0191-.249.0191Zm10.5205-1.6568c-.7705,0-1.4492-.56-1.5723-1.3457-.1377-.8696.4561-1.686,1.3252-1.8232l5.2617-.8325c.8604-.1387,1.6856.455,1.8233,1.3252.1377.8696-.4551,1.6865-1.3252,1.8242l-5.2617.8325c-.085.0132-.168.0195-.251.0195Zm-261.9766-.3418c-.2959,0-.5957-.0825-.8633-.2553-1.4726-.9512-2.9638-1.9185-4.4697-2.9009-.7383-.4805-.9463-1.4683-.4658-2.2061.4805-.7363,1.4668-.9467,2.206-.4648,1.5039.9795,2.9913,1.9448,4.46,2.894.7393.4776.9512,1.4644.4736,2.2041-.3047.4722-.8173.729-1.3408.729Zm272.501-1.3261c-.7705,0-1.4483-.5591-1.5723-1.3438-.1386-.8696.4541-1.6865,1.3242-1.8252l5.2637-.8374c.8672-.1455,1.6865.4541,1.8252,1.3233.1387.8696-.4541,1.687-1.3232,1.8252l-5.2657.8383c-.0839.0132-.1689.0196-.2519.0196Zm10.5322-1.6783c-.7695,0-1.4472-.5586-1.5722-1.3427-.1387-.8697.4531-1.687,1.3222-1.8262l5.2715-.8442c.8633-.1382,1.6865.4526,1.8262,1.3217.1396.8692-.4522,1.687-1.3223,1.8267l-5.2715.8442c-.0849.0137-.1699.0205-.2539.0205Zm10.5528-1.6938c-.7686,0-1.4454-.5571-1.5723-1.3408-.1397-.8692.4512-1.6875,1.3203-1.8272l5.3164-.8594c.8691-.1381,1.6875.4493,1.8291,1.3184.1416.8687-.4482,1.688-1.3174,1.8291l-5.3203.8594c-.0859.0141-.1719.0205-.2558.0205Zm-302.5059-1.1118c-.2998,0-.6035-.0845-.8731-.2613-1.4697-.9648-2.9541-1.9418-4.4492-2.9301-.7343-.4854-.9365-1.4746-.4511-2.209.4843-.7354,1.4736-.9365,2.2089-.4512,1.4932.9863,2.9737,1.9614,4.4414,2.9243.7354.4834.9405,1.4717.4581,2.2075-.3067.4668-.8155.7198-1.335.7198Zm-8.8818-5.8672c-.3028,0-.6094-.0859-.8799-.2666-1.4688-.9751-2.9463-1.9595-4.4326-2.9526-.7315-.4893-.9288-1.4791-.4395-2.2115.4873-.7309,1.4775-.9297,2.2109-.4399,1.4844.9917,2.96,1.9746,4.4248,2.9487.7334.4868.9336,1.4766.4463,2.21-.3076.4619-.8134.7119-1.33.7119Zm-8.8526-5.9107c-.3047,0-.6142-.0874-.8867-.2705l-4.418-2.9721c-.7304-.4917-.9238-1.4829-.4316-2.2129.4922-.7285,1.4834-.9253,2.2129-.4307l4.414,2.9683c.7305.4907.9258,1.4814.4346,2.2124-.3076.458-.8115.7055-1.3252.7055Zm-8.8232-5.9492c-.3076,0-.6192-.0884-.8926-.2739l-4.4072-2.9878c-.7276-.4951-.917-1.4868-.4219-2.2148.4951-.729,1.4893-.9156,2.2139-.4229l4.4023,2.9849c.7295.4936.9199,1.4848.4268,2.2138-.3086.4551-.8106.7007-1.3213.7007Zm-8.8037-5.9804c-.3096,0-.6221-.0899-.8965-.2769l-4.3877-2.9951c-.7276-.4971-.9131-1.4893-.417-2.2158.4971-.7271,1.4902-.9136,2.2158-.417l4.3838,2.9931c.7275.4961.916,1.4878.4199,2.2154-.3086.4526-.8095.6963-1.3183.6963Zm-8.7764-6.002c-.3115,0-.625-.0903-.9004-.2793l-4.4004-3.0229c-.7246-.4991-.9082-1.4917-.4092-2.2168.501-.7266,1.4932-.9073,2.2178-.4097l4.3945,3.0195c.7266.4981.9112,1.4907.4131,2.2168-.3086.4502-.8076.6924-1.3154.6924Zm-8.7793-6.0405c-.3125,0-.6279-.0913-.9043-.2818l-4.3799-3.0249c-.7246-.5009-.9062-1.4936-.4053-2.2182.502-.7251,1.4952-.9043,2.2178-.4048l4.3779,3.0229c.7247.5.9073,1.4927.4073,2.2178-.3096.4483-.8076.689-1.3135.689Zm-8.7549-6.0523c-.3135,0-.6299-.0918-.9072-.2841l-4.3731-3.0342c-.7236-.502-.9023-1.4956-.4003-2.2188.5029-.7236,1.497-.9013,2.2187-.3994l4.3711,3.0317c.7236.502.9033,1.4952.4023,2.2188-.3095.4468-.8066.686-1.3115.686Zm-8.7412-6.0717c-.3144,0-.6318-.0928-.9102-.2857l-4.3681-3.043c-.7217-.5034-.8994-1.497-.3955-2.2192.5039-.7231,1.499-.8989,2.2197-.396l4.3662,3.041c.7227.503.9004,1.4966.3975,2.2193-.3096.4453-.8057.6836-1.3096.6836Zm-8.7295-6.0884c-.3154,0-.6338-.0933-.9121-.2876l-4.333-3.0298c-.7217-.5044-.9121-1.5088-.4072-2.23.5058-.7217,1.4843-.9077,2.206-.4028l4.3604,3.0493c.7217.5044.8984,1.498.3935,2.2197-.3095.4439-.8047.6812-1.3076.6812Zm-8.7207-6.1031c-.3164,0-.6357-.0937-.9141-.289l-4.3584-3.0576c-.7207-.5059-.8945-1.5005-.3886-2.2207.5078-.7217,1.5029-.8926,2.2207-.3887l4.3564,3.0561c.7207.5059.8955,1.5.3907,2.2207-.3106.4424-.8047.6792-1.3067.6792Zm-8.7109-6.1171c-.3174,0-.6367-.0943-.916-.2901l-4.3536-3.0639c-.7197-.5069-.8925-1.5015-.3857-2.2212.5078-.7198,1.502-.8926,2.2217-.3853l4.3515,3.062c.7198.5064.8936,1.5005.3877,2.2212-.3105.4414-.8047.6773-1.3056.6773Zm-8.7051-6.1289c-.3174,0-.6387-.0943-.918-.2916l-4.3506-3.0683c-.7197-.5078-.8916-1.5025-.3837-2.2217.5087-.7202,1.5048-.8887,2.2216-.3838l4.3506,3.0684c.7197.5073.8916,1.5019.3838,2.2212-.3105.4404-.8037.6758-1.3037.6758Zm-8.6992-6.1397c-.3184,0-.6397-.0947-.919-.292l-4.3496-3.0747c-.7187-.5083-.8887-1.5029-.3808-2.2222.5088-.7182,1.5029-.8881,2.2226-.3808l4.3477,3.0732c.7187.5083.8906,1.5029.3818,2.2222-.3105.4394-.8027.6743-1.3027.6743Zm-8.6973-6.1489c-.3183,0-.6396-.0947-.9199-.2925l-4.3486-3.0776c-.7188-.5083-.8887-1.5035-.3809-2.2222.5107-.7192,1.5059-.8897,2.2227-.3804l4.3486,3.0772c.7187.5083.8887,1.5029.3808,2.2221-.3105.439-.8027.6734-1.3027.6734Zm-8.6973-6.1558c-.3193,0-.6406-.0952-.9199-.293l-4.3506-3.0791c-.7187-.5087-.8886-1.5039-.3798-2.2221.5097-.7202,1.5058-.8872,2.2216-.3804l4.3506,3.0791c.7188.5088.8887,1.5039.3799,2.2222-.3105.4389-.8027.6733-1.3018.6733Zm-8.706-6.1577c-.3184,0-.6397-.0947-.919-.2925l-4.3593-3.0762c-.7198-.5068-.8926-1.5014-.3858-2.2211.5078-.7193,1.502-.8921,2.2217-.3853l4.3633,3.0786c.7187.5083.8906,1.5034.3818,2.2222-.3105.4394-.8027.6743-1.3027.6743Zm-8.7383-6.1489c-.3154,0-.6338-.0933-.9121-.2871-1.9961-1.3946-3.4814-2.418-4.3867-3.0186-.7344-.4868-.9346-1.4761-.4473-2.2099.4854-.733,1.4756-.9341,2.209-.4473.9189.6094,2.4258,1.6474,4.4512,3.0615.7217.5044.8984,1.4981.3935,2.2197-.3095.4439-.8047.6817-1.3076.6817Z" fill="#1c056d" stroke-width="0"/>
        <path d="m1694.56745,585.2728s2.9875,95.2262,1.4938,96.7199c-1.4938,1.4938-18.2984-10.8296-18.2984-10.8296,0,0-1.958-75.94-.3734-80.6622,1.5845-4.7222,17.178-5.2281,17.178-5.2281Z" fill="#1c056d" stroke-width="0"/>
        <path d="m1882.36325,666.8819s-72.9528-60.0659-84.1911-62.9795c0,0,73.6734,16.6494,130.6975,32.8825,57.0241,16.2331,298.4399,12.9033,298.4399,12.9033v24.1415l-344.9463-6.9478" fill="#1c056d" stroke-width="0"/>
      </g>
    </g>
    <g>
      <path d="m2229.10015,721.8929s5.8021-9.2558,16.6452-10.7688,14.3735,0,14.3735,0c0,0,29.1156,78.9,23.8347,80.5676-5.2809,1.6677-17.2325,1.9456-20.8458-1.3897-3.6132-3.3353-31.0274-41.4807-31.0274-41.4807,0,0,1.7661-20.6275-2.9802-26.9284Z" fill="#1b3d9e"/>
      <g clip-path="url(#clippath-9)">
        <path d="m2237.28015,759.3229s7.7401-8.8178,11.4631-8.6219c2.3064.1214,3.2968,1.7091,3.7166,2.8998.2624.7443.0845,1.5678-.4349,2.1619-2.1686,2.4808-8.4725,9.5237-9.846,9.1753-1.6656-.4224-4.8988-5.6151-4.8988-5.6151Z" fill="#1c056d" stroke-width="0"/>
        <path d="m2245.06825,770.7539s7.7401-8.8179,11.4632-8.6219c2.3063.1214,3.2967,1.7091,3.7165,2.8998.2624.7443.0846,1.5677-.4348,2.1619-2.1686,2.4807-8.4726,9.5237-9.8461,9.1753-1.6656-.4224-4.8988-5.6151-4.8988-5.6151Z" fill="#1c056d" stroke-width="0"/>
        <path d="m2252.22365,709.1783s27.3179,81.7639,27.1282,85.1787c0,0,9.1059-.5691,9.1059-2.8456s-22.3855-81.9537-25.2311-82.3331-11.003,0-11.003,0Z" fill="#1c056d" stroke-width="0"/>
      </g>
    </g>
    <g>
      <path d="m2221.61265,636.2681s33.5366,4.6638,34.1655,6.341c.6289,1.6771.7504,24.3148.7504,24.3148l-34.9159.0624v-30.7182Z" fill="#e57492" stroke-width="0"/>
      <g>
        <path d="m2254.39555,641.9364s3.9462-9.9195,15.4822-10.5534c11.5361-.6338,38.5256,13.7299,40.9342,14.7441,2.4086,1.0141,34.9145,9.76,35.48,10.0463,6.9532,3.5216.7627,11.8173.7627,11.8173l-90.5261-1.0668-2.133-24.9875Z" fill="#1b3d9e"/>
        <g clip-path="url(#clippath-10)">
          <path d="m2263.64095,631.3627c1.1035,1.017,40.0222,19.5186,45.8049,20.2645,5.7827.746,41.3919,10.3331,41.3919,10.3331,0,0,1.924-4.8697-1.2446-6.6958-3.1685-1.8261-37.5603-10.0436-40.2995-11.5653-2.7391-1.5218-35.9135-14.9133-38.6526-14.4568-2.7392.4566-7.0001,2.1203-7.0001,2.1203Z" fill="#1c056d" stroke-width="0"/>
          <path d="m2273.47105,668.7591c.7128-2.5661,3.2554-14.9688,5.1916-15.3964,1.9363-.4277,6.6408.8553,6.4982,1.5681-.1425.7128-1.1405,14.2559-4.2768,14.2559s-7.413-.4276-7.413-.4276Z" fill="#1c056d" stroke-width="0"/>
          <path d="m2291.90435,672.324c.7128-2.5661,3.2554-14.9687,5.1917-15.3964s6.6408.8554,6.4982,1.5682c-.1426.7127-1.1405,14.2559-4.2768,14.2559s-7.4131-.4277-7.4131-.4277Z" fill="#1c056d" stroke-width="0"/>
        </g>
      </g>
    </g>
  </g>
</svg>