<?xml version="1.0" encoding="UTF-8"?>
<svg id="Layer_2" data-name="Layer 2" xmlns="http://www.w3.org/2000/svg" viewBox="0 0 52.92 52.45">
  <defs>
    <style>
      .cls-1 {
        fill: #000;
        stroke-width: 0px;
      }
    </style>
  </defs>
  <g id="Layer_1-2" data-name="Layer 1">
    <g id="_183_Twitter_Add_Contact" data-name="183, Twitter, Add, Contact">
      <g>
        <path class="cls-1" d="M26.51,39.25c-.71,0-1.31-.6-1.31-1.3V14.25c0-.7.61-1.3,1.31-1.3s1.31.6,1.31,1.3v23.8c0,.6-.61,1.2-1.31,1.2Z"/>
        <path class="cls-1" d="M38.53,27.35H14.49c-.71,0-1.31-.6-1.31-1.3s.61-1.3,1.31-1.3h24.04c.71,0,1.31.6,1.31,1.3-.1.8-.61,1.3-1.31,1.3Z"/>
        <path class="cls-1" d="M26.51,52.45c-6.77,0-13.53-2.6-18.78-7.7C-2.58,34.55-2.58,17.85,7.73,7.65c10.3-10.2,27.17-10.2,37.47,0,10.3,10.2,10.3,26.9,0,37.1h0c-5.15,5.2-11.92,7.7-18.68,7.7ZM26.51,2.55c-6.16,0-12.32,2.3-16.97,6.9C.15,18.75.15,33.75,9.54,43.05c9.39,9.3,24.54,9.3,33.93,0,9.39-9.3,9.39-24.3,0-33.6-4.65-4.6-10.81-6.9-16.97-6.9Z"/>
      </g>
    </g>
  </g>
</svg>