<?xml version="1.0" encoding="UTF-8"?>
<svg id="Layer_2" data-name="Layer 2" xmlns="http://www.w3.org/2000/svg" viewBox="0 0 96.95 96.95">
  <defs>
    <style>
      .cls-1 {
        fill: #195467;
      }

      .cls-1, .cls-2 {
        stroke-width: 0px;
      }

      .cls-2 {
        fill: #fff;
      }
    </style>
  </defs>
  <g id="_Ñëîé_1" data-name="Ñëîé 1">
    <g>
      <circle class="cls-2" cx="48.48" cy="48.48" r="48.48"/>
      <g>
        <polygon class="cls-1" points="66.87 80.35 68.48 48.23 57.39 48.23 66.87 80.35"/>
        <g>
          <g>
            <path class="cls-1" d="M40.23,81.55h-16.64l-5.33-31.34h27.31l-5.33,31.34ZM25.63,79.14h12.57l4.51-26.52h-21.6l4.51,26.52Z"/>
            <g>
              <rect class="cls-1" x="27.09" y="51.36" width="2.41" height="29.05" transform="translate(-5.84 2.83) rotate(-5.19)"/>
              <rect class="cls-1" x="21.01" y="64.68" width="29.05" height="2.41" transform="translate(-33.29 95.32) rotate(-84.82)"/>
            </g>
            <rect class="cls-1" x="20.96" y="57.72" width="21.9" height="2.41"/>
            <rect class="cls-1" x="22.26" y="65.33" width="19.42" height="2.41"/>
            <rect class="cls-1" x="23.48" y="72.5" width="16.87" height="2.41"/>
          </g>
          <polygon class="cls-1" points="49.93 80.35 54.77 48.23 65.05 48.23 49.93 80.35"/>
          <polygon class="cls-1" points="68.48 48.23 54.77 48.23 49.93 28.32 67.27 28.32 68.48 48.23"/>
          <polygon class="cls-1" points="51.84 35.58 30.77 42.84 49.93 28.32 51.84 35.58"/>
          <path class="cls-1" d="M63.04,18.65c0,3.56-2.89,6.45-6.45,6.45s-6.45-2.89-6.45-6.45,2.89-6.45,6.45-6.45,6.45,2.89,6.45,6.45Z"/>
        </g>
      </g>
    </g>
  </g>
</svg>