<?xml version="1.0" encoding="UTF-8"?>
<svg id="Layer_2" data-name="Layer 2" xmlns="http://www.w3.org/2000/svg" viewBox="0 0 40.28 29.08">
  <defs>
    <style>
      .cls-1 {
        fill: #fff;
      }
    </style>
  </defs>
  <g id="Layer_1-2" data-name="Layer 1">
    <g>
      <path class="cls-1" d="m31.74,10.27c.76-4.18,2.02-7.18,3.03-9.03.39-.73-.41-1.53-1.12-1.12-8.43,4.91-12.13,12.08-12.58,17.82-.4,4.96,2.98,10.06,8.11,10.99,5.12.93,10.03-2.47,10.96-7.6.97-5.37-2.81-10.53-8.39-11.07Z"/>
      <path class="cls-1" d="m10.71,10.27c.76-4.18,2.02-7.18,3.03-9.03.39-.73-.41-1.53-1.12-1.12C4.19,5.03.49,12.19.03,17.94c-.4,4.96,2.98,10.06,8.11,10.99,5.12.93,10.03-2.47,10.96-7.6.97-5.37-2.81-10.53-8.39-11.07Z"/>
    </g>
  </g>
</svg>