<?xml version="1.0" encoding="UTF-8"?>
<svg id="Layer_2" data-name="Layer 2" xmlns="http://www.w3.org/2000/svg" viewBox="0 0 753.5 753.5">
  <defs>
    <style>
      .cls-1 {
        fill: #08bd08;
        stroke-width: 0px;
      }
    </style>
  </defs>
  <g id="Objects">
    <g>
      <polygon class="cls-1" points="324.19 544.15 202.9 422.86 248.68 377.08 317.74 446.14 499.21 209.35 550.6 248.74 324.19 544.15"/>
      <path class="cls-1" d="M376.75,753.5c-50.85,0-100.19-9.97-146.66-29.62-44.87-18.98-85.15-46.14-119.74-80.73s-61.75-74.88-80.73-119.74C9.97,476.94,0,427.6,0,376.75s9.97-100.19,29.62-146.66c18.98-44.87,46.14-85.15,80.73-119.74s74.88-61.75,119.74-80.73C276.56,9.97,325.9,0,376.75,0s100.19,9.97,146.66,29.62c44.87,18.98,85.15,46.14,119.74,80.73s61.75,74.88,80.73,119.74c19.66,46.47,29.62,95.81,29.62,146.66s-9.97,100.19-29.62,146.66c-18.98,44.87-46.14,85.15-80.73,119.74s-74.88,61.75-119.74,80.73c-46.47,19.66-95.81,29.62-146.66,29.62ZM376.75,64.91c-83.29,0-161.6,32.44-220.5,91.33-58.9,58.9-91.34,137.21-91.34,220.5s32.44,161.6,91.34,220.5c58.9,58.9,137.21,91.33,220.5,91.33s161.6-32.44,220.5-91.33c58.9-58.9,91.33-137.21,91.33-220.5s-32.44-161.6-91.33-220.5c-58.9-58.9-137.21-91.33-220.5-91.33Z"/>
    </g>
  </g>
</svg>