<?xml version="1.0" encoding="UTF-8"?>
<svg id="Layer_2" data-name="Layer 2" xmlns="http://www.w3.org/2000/svg" viewBox="0 0 97.2 126.71">
  <defs>
    <style>
      .cls-1 {
        fill: #50a0e2;
      }

      .cls-1, .cls-2 {
        stroke-width: 0px;
      }

      .cls-3 {
        fill: none;
        stroke: #15263f;
        stroke-linecap: round;
        stroke-linejoin: round;
      }

      .cls-2 {
        fill: #2e6c9e;
      }
    </style>
  </defs>
  <g id="OBJECTS">
    <g>
      <g>
        <path class="cls-1" d="M4.49,10.77L0,14.14c.04,5.12.49,11.39,1.84,18.25l7.32-1.67-6.2,6.65c2.06,8.11,5.46,16.82,10.9,25.34l8.45-2.6-4.57,8.14c5.1,6.71,11.61,13.18,19.91,19l4.98-1.94-1.37,4.36c4.2,2.68,8.81,5.21,13.88,7.52,0,0,2.79-9.9,2.36-23.67l-9.41-4.33,9-1.85c-1.02-10.06-3.94-21.51-10.68-32.44l-14.41,1.39,10.86-6.63c-5.35-7.16-12.55-13.97-22.15-19.83l-6.04,3.2,1.77-5.65c-1.1-.6-2.22-1.18-3.38-1.75C9.34,3.78,5.31,2.06.96.5.96.5.32,3.85.08,9.38l4.41,1.38Z"/>
        <path class="cls-3" d="M.96.5s46.66,66.68,54.18,96.69"/>
        <line class="cls-3" x1="34.57" y1="53.21" x2="53.75" y2="51"/>
        <line class="cls-3" x1="37.69" y1="58.68" x2="24.61" y2="76.2"/>
        <line class="cls-3" x1="22.43" y1="33.1" x2="33.13" y2="19.03"/>
        <line class="cls-3" x1="26.26" y1="39.26" x2="4.48" y2="42.66"/>
        <line class="cls-3" x1="10.15" y1="14.07" x2="13.07" y2="5.62"/>
      </g>
      <g>
        <path class="cls-1" d="M71.09,79.33s-1.01-21.84-8.3-17.68c-7.29,4.16.82,20.68,8.3,17.68Z"/>
        <path class="cls-1" d="M76.65,59.23s-1.01-21.84-8.29-17.68c-7.29,4.16.82,20.68,8.29,17.68Z"/>
        <path class="cls-1" d="M69.79,80.32s21.62,3.17,18.93-4.78-20.45-3.14-18.93,4.78Z"/>
        <path class="cls-1" d="M76.57,59.61s21.26,5.04,19.28-3.11c-1.99-8.15-20.1-4.91-19.28,3.11Z"/>
        <path class="cls-1" d="M81.12,49.45s18.62-7.22,15.79-14.89c-2.91-7.87-15.45,5.32-15.79,14.89Z"/>
        <g>
          <path class="cls-3" d="M67.56,97.9s.93-37.66,21.34-56.75"/>
          <path class="cls-3" d="M70.74,46.58l5.24,13.19s4.83-5.92,14.34-4.36"/>
          <path class="cls-3" d="M65.26,66.21l4.79,13.23s5.36-6.43,15.04-4.3"/>
        </g>
      </g>
      <path class="cls-2" d="M66.74,126.71h-11.54c-7.07,0-12.55-6.16-11.75-13.18l2.04-17.77h30.23l2.7,17.3c1.12,7.17-4.43,13.65-11.68,13.65Z"/>
    </g>
  </g>
</svg>