<?xml version="1.0" encoding="utf-8"?>
<!-- Generator: Adobe Illustrator 27.6.1, SVG Export Plug-In . SVG Version: 6.00 Build 0)  -->
<svg version="1.1" id="Layer_1" xmlns="http://www.w3.org/2000/svg" xmlns:xlink="http://www.w3.org/1999/xlink" x="0px" y="0px"
	 viewBox="0 0 742.7 668.6" style="enable-background:new 0 0 742.7 668.6;" xml:space="preserve">
<style type="text/css">
	.st0{fill:#50A0E2;}
	.st1{fill:none;}
</style>
<g>
	<g>
		<path class="st0" d="M438.6,359.3c-5.4-19.9-16.4-37.7-30.5-51.3c-6.9-6.8-14.8-12.6-23-15.8c-4-1.6-8-2.8-11.8-2.9
			c-0.9-0.1-1.8-0.1-2.7,0c-0.9,0-2.3,0.1-3.3,0.2c-2.3,0.2-4.4,0.5-6.4,0.9c-8.1,1.9-13,5.2-17.8,11.9c-4.7,6.6-8.5,15.7-11.6,25.1
			c-3.3,9.3-6.4,19.6-8.8,29.2c-2.5,9.7-4.2,19.8-6,30.1c-1.9,10.4-3.3,20.8-6.1,32.2c-0.7,2.9-1.5,5.8-2.6,9
			c-1.2,3.2-2.4,6.6-5.4,10.9c-1.4,2.1-3.7,4.6-7.1,6.7c-3.4,2.2-8.4,3.2-12.2,2.8c-0.9-0.1-1.9-0.2-2.8-0.4l-1.7-0.4
			c-1.1-0.3-2.1-0.7-3.1-1c-2-0.8-3.8-1.7-5.5-2.6c-6.7-3.9-11.4-8.7-15.6-13.6c-4.1-4.9-7.4-10-10.3-15.2
			c-5.7-10.5-9.6-21.4-12.5-32.4c-1.4-5.5-2.7-11.1-3.5-16.7c-0.8-5.7-1.4-11.5-1.6-17c-0.5-11.2-0.2-22,0.3-32.6
			c0.9-21.3,1.7-42-1.9-62.8c-0.2-1.4,0.7-2.6,2-2.9c1.2-0.2,2.3,0.5,2.7,1.5c8.2,20.3,10.8,42.6,12.8,63.8
			c1.1,10.6,1.8,21.1,3.4,31.2c0.7,5,1.8,9.9,3,14.6c1.4,4.8,2.8,9.6,4.5,14.2c3.4,9.3,7.7,18.2,12.9,26.1c4.9,7.8,11.4,15,17,17.7
			c0.6,0.3,1.3,0.6,1.8,0.7c0.3,0.1,0.5,0.2,0.7,0.2c0.1,0,0.3,0,0.3,0c-0.3-0.1-0.5-0.2-0.8-0.2c-1.2-0.3-3.5,0.3-4.6,1
			c-1.2,0.7-1.5,1.2-1.5,1.1c0.1-0.1,0.8-1.7,1.4-3.6c0.6-1.8,1.1-4.1,1.6-6.4c1.9-9.4,3.4-20,5.2-30.7c1.7-10.7,4-21.5,6.8-32.5
			c3-11,6.2-21.1,10.2-31.8c4.3-10.5,8.9-21.3,17.1-31.7c4.1-5.2,9.4-10.1,15.7-13.8c6.3-3.6,13.4-5.5,19.8-6.3
			c3.2-0.4,6.4-0.6,9.4-0.5c1.6,0,2.9,0,4.6,0.1c1.8,0.1,3.5,0.2,5.2,0.5c6.9,1.1,13.1,3.4,18.6,6.5c11.1,6.2,19.7,14.5,26.9,23.5
			c14,18.3,23,40.2,23.3,62.6c0,1.8-1.4,3.3-3.3,3.4C440.4,361.8,439,360.8,438.6,359.3L438.6,359.3z"/>
		<path class="st0" d="M346.2,47.5c15.9,3.7,32.1,5,47.7,2.7c15.6-2.3,30.4-7.9,45.6-14.6c15.1-6.6,31-13.5,48.3-17.7
			c4.3-1.1,8.7-2,13.1-2.6c4.4-0.8,9.6-1.2,14.6-1.1c10.1,0.5,21.4,3.9,30,11.5c8.6,7.4,13.8,17.4,16.4,27
			c2.7,9.7,3.6,19.3,3.3,28.6c-0.6,18.6-4.9,36.1-10.6,52.8c-5.7,16.7-13.1,32.6-21.7,47.7c-8.5,15.2-19,29.4-26.5,42.3
			c-7.4,13-11.3,25.9-12.1,40.8c-0.4,7.4-0.2,15,0.6,22.8l1.3,12.3c0.4,4.5,0.7,8.9,0.9,13.4c0.6,17.8-1.3,35.5-4.8,52.8
			c-3.7,17.1-8.5,33.9-16,50.1c-3.9,8.1-7.9,16.2-14.6,24.2c-1.8,2-3.7,4-6.3,6c-2.6,1.9-6,4.1-11.1,4.8c-5.1,0.8-11-1.3-14.1-4
			c-4.2-3.4-5.6-6.8-6.7-9.4c-2.1-5.4-2.8-9.7-3.7-14.2c-0.8-4.4-1.3-8.6-1.9-12.7c-1.1-8.3-2.1-16.5-3.4-24.5
			c-2.5-16-5.8-31.8-12.2-46.3c-6.2-14.5-15.9-27.5-29.7-35.9c-1.2-0.7-1.5-2.2-0.8-3.4c0.6-1,1.9-1.5,3-1c8.1,3.2,15.5,8.1,22,14.1
			c6.4,6.1,11.8,13.2,16.2,20.7c8.9,15.2,14.3,31.9,18.5,48.3c2.1,8.3,3.8,16.5,5.6,24.6c0.9,4,1.8,8,2.8,11.8
			c1,3.7,2.1,7.5,3.3,9.8c0.5,1.2,1.2,1.5,0.4,0.7c0.1-0.1-1.5-0.9-2.4-0.7c-0.9,0.1-0.6,0.1,0.1-0.5c0.7-0.6,1.6-1.6,2.5-2.8
			c3.7-5,7-12.1,9.8-19.2c5.4-14.4,9.6-29.9,12.2-45.4c2.7-15.4,3.4-31.1,2.7-46.6c-0.2-3.9-0.5-7.7-0.9-11.5l-1.5-12.5
			c-1-8.8-1.4-17.8-1-27.1c0.3-9.2,1.8-18.8,4.4-28c2.7-9.3,6.8-18.1,11.4-26c4.6-7.9,9.5-15,14.1-21.8c4.6-6.8,8.8-13.4,12.8-20.3
			c7.9-13.8,15.1-28,20.6-42.6c5.5-14.6,9.6-29.7,10.5-44.5c1.1-14.5-1.5-29.1-9.3-36.6c-3.8-3.8-9.1-5.9-15.5-6.7
			c-3.3-0.2-6.4-0.3-10.3,0.1c-3.8,0.3-7.7,0.9-11.5,1.5c-15.4,2.5-30.5,8-46.5,13.3c-15.9,5.3-32.9,10.5-50.6,11
			c-17.6,0.8-35-2.8-50.8-8.9c-1.7-0.7-2.6-2.6-1.9-4.3C343,48,344.7,47.2,346.2,47.5z"/>
		<path class="st0" d="M256.2,311c-0.2-20.1-1.8-40-9-57.1c-6.7-17.3-19.2-30.5-33.5-44.9c-3.6-3.6-7.2-7.4-10.9-11.4
			c-3.6-4.1-6.9-8.4-10.2-12.6c-6.4-8.6-12.4-17.7-17.6-27.4c-10.1-19.4-17.3-42.1-15.1-66.4c1.1-12,4.8-24.2,11.3-34.9
			c6.5-10.7,15.9-19.9,27-25.8c5.6-3,11.5-5.2,17.4-6.7c6-1.6,12.3-2.2,18.5-2.1c12.5,0.1,23.9,3.9,34,8.3
			c20.2,9,36.4,21.2,53.6,30.9c16.9,10,34.9,17.7,54.7,20.3c1.4,0.2,2.3,1.4,2.2,2.8c-0.1,1.2-1.1,2-2.2,2.2
			c-10.4,1.3-21.1,0.7-31.6-1.2c-10.5-1.9-20.6-5.3-30.4-9c-19.4-7.7-37.5-17.7-55-23.8c-8.8-2.9-17.3-4.5-25.2-4.2
			c-7.8,0.3-15.7,2.8-22.2,6.8c-13.2,8.1-21.4,22.7-22.6,39.1c-1.5,16.4,3.3,34.2,11.3,50.8c3.9,8.4,8.7,16.6,14,24.5
			c5.4,8,11,15.1,17.5,23c6.4,7.8,13.4,16,19.2,25.4c5.8,9.4,10.5,19.9,13.2,30.6c5.2,21.8,3.3,43.4-1.8,63.4
			c-0.5,1.8-2.3,2.9-4,2.4C257.2,313.9,256.2,312.5,256.2,311z"/>
	</g>
	<g>
		<g>
			<path class="st0" d="M82.1,503.6H130c2.7,0,4.9,0.9,6.8,2.8c1.9,1.9,2.8,4.1,2.8,6.8v38.3c0,2.7-0.9,4.9-2.8,6.8
				c-1.9,1.9-4.1,2.8-6.8,2.8H82.1V503.6z M133.1,551.5v-38.3c0-0.8-0.3-1.6-0.9-2.2c-0.6-0.6-1.3-0.9-2.2-0.9H91.7
				c-0.8,0-1.6,0.3-2.2,0.9c-0.6,0.6-0.9,1.3-0.9,2.2v38.3c0,0.8,0.3,1.6,0.9,2.2c0.6,0.6,1.3,0.9,2.2,0.9H130
				c0.8,0,1.6-0.3,2.2-0.9C132.8,553.1,133.1,552.3,133.1,551.5z"/>
			<path class="st0" d="M241.1,503.6v6.5h-46v19h37v6.5h-37v19h46v6.5h-52.4v-57.5H241.1z"/>
			<path class="st0" d="M340.5,553.7v-50.1h6.5v57.5h-8.9L296,510.9v50.1h-6.5v-57.5h8.9L340.5,553.7z"/>
			<path class="st0" d="M393,503.6h57.5v6.5H425v51h-6.5v-51H393V503.6z"/>
			<path class="st0" d="M506.1,503.6h38.3c2.7,0,4.9,0.9,6.8,2.8c1.9,1.9,2.8,4.1,2.8,6.8v47.9h-6.5v-21H503v21h-6.5v-47.9
				c0-2.7,0.9-4.9,2.8-6.8C501.1,504.5,503.4,503.6,506.1,503.6z M503,533.6h44.5v-20.4c0-0.8-0.3-1.6-0.9-2.2
				c-0.6-0.6-1.3-0.9-2.2-0.9h-38.3c-0.8,0-1.6,0.3-2.2,0.9c-0.6,0.6-0.9,1.3-0.9,2.2V533.6z"/>
			<path class="st0" d="M603.1,561.1v-57.6h6.5v51.1h51v6.5H603.1z"/>
		</g>
		<g>
			<path class="st0" d="M241.3,609.3h-44.9v32.6h44.9v12.5h-45.5c-3.3,0-6.1-1.1-8.4-3.4c-2.3-2.3-3.4-5.1-3.4-8.4v-33.8
				c0-3.3,1.1-6.1,3.4-8.4c2.3-2.3,5.1-3.4,8.4-3.4h45.5V609.3z"/>
			<path class="st0" d="M301.5,596.8h33.8c3.3,0,6.1,1.2,8.4,3.5c2.3,2.3,3.5,5.1,3.5,8.3v45.7h-12.5v-18.5h-32.6v18.5h-12.4v-45.7
				c0-3.3,1.1-6.1,3.4-8.4C295.4,598,298.2,596.8,301.5,596.8z M302.1,623.3h32.6v-14h-32.6V623.3z"/>
			<path class="st0" d="M453.6,608.7v14.8c0,3.2-1.2,6-3.5,8.3c-2.3,2.3-5.1,3.5-8.4,3.5h-0.6l12.5,14.7v4.2h-12.8l-15.9-18.9
				l-16.4,0.1c0.2,0,0.2,0.2,0.2,0.5c-0.1,0-0.2,0-0.2-0.1v18.4h-12.4v-57.4h45.6c3.2,0,6,1.2,8.4,3.5
				C452.4,602.7,453.6,605.5,453.6,608.7z M408.5,609.3V623h32.6v-13.7H408.5z"/>
			<path class="st0" d="M555.2,596.8v12.5h-40.6v10.1h32.6v12.5h-32.6v10.1h40.6v12.5h-53.1v-57.5H555.2z"/>
		</g>
	</g>
</g>
<rect class="st1" width="742.7" height="668.6"/>
</svg>
