<?xml version="1.0" encoding="UTF-8"?>
<svg id="Layer_1" data-name="Layer 1" xmlns="http://www.w3.org/2000/svg" xmlns:xlink="http://www.w3.org/1999/xlink" viewBox="0 0 3293.91 2000">
  <defs>
    <style>
      .cls-1 {
        fill: #193a6b;
        opacity: .04;
      }

      .cls-1, .cls-2, .cls-3, .cls-4, .cls-5, .cls-6, .cls-7, .cls-8, .cls-9, .cls-10, .cls-11, .cls-12, .cls-13, .cls-14, .cls-15, .cls-16 {
        stroke-width: 0px;
      }

      .cls-2 {
        fill: #fc476a;
      }

      .cls-3, .cls-10 {
        fill: #1b3d9e;
      }

      .cls-17 {
        clip-path: url(#clippath-2);
      }

      .cls-18 {
        clip-path: url(#clippath-6);
      }

      .cls-19 {
        stroke-width: 2px;
      }

      .cls-19, .cls-8, .cls-20 {
        fill: #fff;
      }

      .cls-19, .cls-20 {
        stroke: #fff;
        stroke-miterlimit: 10;
      }

      .cls-4 {
        fill: none;
      }

      .cls-5 {
        fill: #d40221;
      }

      .cls-6 {
        fill: #1c056d;
      }

      .cls-21 {
        clip-path: url(#clippath-7);
      }

      .cls-22 {
        clip-path: url(#clippath-1);
      }

      .cls-23 {
        opacity: .99;
      }

      .cls-24 {
        clip-path: url(#clippath-4);
      }

      .cls-7 {
        fill: #becbea;
      }

      .cls-9 {
        fill: #fe8e9c;
      }

      .cls-10 {
        opacity: .54;
      }

      .cls-10, .cls-13, .cls-14 {
        isolation: isolate;
      }

      .cls-11, .cls-13, .cls-14 {
        fill: #6880e4;
      }

      .cls-12 {
        fill: #e57492;
      }

      .cls-13 {
        opacity: .46;
      }

      .cls-25 {
        clip-path: url(#clippath-9);
      }

      .cls-26 {
        clip-path: url(#clippath);
      }

      .cls-14 {
        opacity: .17;
      }

      .cls-20 {
        stroke-width: 20px;
      }

      .cls-27 {
        clip-path: url(#clippath-3);
      }

      .cls-15 {
        fill: #f6f9ff;
      }

      .cls-28 {
        clip-path: url(#clippath-8);
      }

      .cls-29 {
        clip-path: url(#clippath-5);
      }

      .cls-30 {
        clip-path: url(#clippath-10);
      }

      .cls-16 {
        fill: #d4dfff;
      }
    </style>
    <clipPath id="clippath">
      <path class="cls-4" d="m817.07,1779.34s-98.22-331.89-82.4-340.67c15.82-8.78,403.54-9.13,403.54-9.13,0,0-44.46,349.06-56.81,349.8-12.35.74-231.63,1.51-264.33,0h0Z"/>
    </clipPath>
    <clipPath id="clippath-1">
      <path class="cls-4" d="m1019.2,711.36s-4.4,729.65,13.19,731.65,1299.51,9.97,1310.5,0c10.99-9.97,15.39-737.63,0-737.63s-1323.69,5.98-1323.69,5.98h0Z"/>
    </clipPath>
    <clipPath id="clippath-2">
      <rect class="cls-4" x="2310.61" y="1365.73" width="357.03" height="412.98" rx="12.08" ry="12.08"/>
    </clipPath>
    <clipPath id="clippath-3">
      <path class="cls-4" d="m2404.98,1365.73s-4.74-339.97,1.58-343.92,54.49-7.9,58.43,1.58,0,342.34,0,342.34h-60.01Z"/>
    </clipPath>
    <clipPath id="clippath-4">
      <path class="cls-4" d="m2504.06,871.32h132.01c2.06,0,3.73,1.67,3.73,3.73v490.67h-139.48v-490.67c0-2.06,1.67-3.73,3.73-3.73h0Z"/>
    </clipPath>
    <clipPath id="clippath-5">
      <path class="cls-4" d="m1319.37,613.04l-52.98,6.85c-29.17-13.67-57.41-22.52-83.74-19.76-26.45,2.76-41.65,30.46-35.12,49.11,5.74,16.4,53.33,33.22,73.86,33.62,20.53.39,51.72-4.34,63.17-14.5.02-.01.03-.03.04-.05h34.76v-55.26Z"/>
    </clipPath>
    <clipPath id="clippath-6">
      <path class="cls-4" d="m1266.4,619.89s-16.98,1.51-20.26,1.59c-11.89.29-23.81.94-23.81.94,0,0-7.41-24.05-18.3-19.12-16,7.24,2.29,18.47,2.29,18.47,0,0-28.44-4.74-31.21-4.9-2.78-.16,21.29,50.59-4.39,66.01-25.67,15.42-54.27,7.29-57.84-32.68s37.37-78.31,75.06-77.01c37.69,1.3,78.47,46.71,78.47,46.71h0Z"/>
    </clipPath>
    <clipPath id="clippath-7">
      <path class="cls-4" d="m1386.1,984.94s-7.91,10.64-10.53,15.91c-2.61,5.27-3.46,31.6-2.91,31.51s6.4-.4,7.61-3.88l6.47-22.23s.44,23.84-.34,25.53c-.79,1.69-14.52,29.05-13.31,29.92,1.21.87,6.41,4.04,10.46-2.78s13.63-24.47,14.81-27.29c1.18-2.82-18.76,37.2-17.96,37.52.8.32,5.91,2.97,7.93.36,2.02-2.61,19.87-31.02,20.46-33.3.59-2.29-11.12,27.22-10.51,27.21s2.95,3.02,6.14-1.01,13.92-25.66,14.43-26.8c.51-1.14.35-14.92.35-14.92,0,0,2.67,16.19,2.05,18.3s-5.54,14.37-3.26,14.8c1.73.33,4.74-3,7.11-7.34,2.37-4.34,5.38-10.85,5.15-17.03s-11.61-40.77-11.61-40.77l-32.54-3.68h0Z"/>
    </clipPath>
    <clipPath id="clippath-8">
      <path class="cls-4" d="m2221.61,620.02s-339.36-27.84-409.84-42.64c-70.48-14.79-129.19,17.36-129.19,17.36v72.14s182.37,155.37,264.14,157.42,252.82-43.61,254.19-51.11c1.36-7.5,0-51.79-6.81-54.52-6.81-2.73-233.06,23.17-237.15,18.4-2.66-3.1-40.96-41.56-74.58-70.19h339.25v-46.86h0Z"/>
    </clipPath>
    <clipPath id="clippath-9">
      <path class="cls-4" d="m2229.1,721.89s5.8-9.26,16.65-10.77,14.37,0,14.37,0c0,0,29.12,78.9,23.83,80.57-5.28,1.67-17.23,1.95-20.85-1.39s-31.03-41.48-31.03-41.48c0,0,1.77-20.63-2.98-26.93h0Z"/>
    </clipPath>
    <clipPath id="clippath-10">
      <path class="cls-4" d="m2254.4,641.94s3.95-9.92,15.48-10.55c11.54-.63,38.53,13.73,40.93,14.74,2.41,1.01,34.91,9.76,35.48,10.05,6.95,3.52.76,11.82.76,11.82l-90.53-1.07-2.13-24.99h0Z"/>
    </clipPath>
  </defs>
  <path class="cls-1" d="m1178.52,1601.61c-108.75-32.29-213.43-74.26-304.1-132.1-391.64-249.86-305.56-828.64,1.77-1109.86,96.37-88.19,221.23-149.72,352.35-160.63,146.75-12.21,300.38,33.84,410.83,132.48,100.36,89.62,159.31,212.6,289.85,265.71,151.41,61.6,319.33,37.47,478.03,55.72,311.94,35.87,515.8,309.2,446.9,621.1-79.85,361.47-412.11,441.93-734.16,454.52-186.72,7.3-373.44-11.43-557.28-43.18-122.94-21.23-256.38-45.8-384.19-83.75h0Z"/>
  <g>
    <g>
      <g>
        <path class="cls-16" d="m815.94,1165.44c-15.96,14.02-39.73,18.49-59.7,11.23-19.97-7.26-35.31-25.95-38.54-46.95-3.8-24.71,6.71-54.4-10.75-72.28-8.78-8.99-22.72-12.07-30.16-22.19-6.24-8.5-6.38-19.87-6.26-30.42.21-18.72.41-37.45.62-56.17-8.33-10.39-25.14-9.77-35.09-18.62-9.84-8.76-11.98-23.07-13.74-36.12-5.21-38.57-12.51-76.86-21.85-114.64,29.2,8.58,58.11,17.89,85.79,30.54,15.45,7.06,31.6,15.68,39.35,30.8,7.8,15.21,5.3,33.34,5.07,50.43-.08,5.52.15,11.22,2.48,16.23,6.01,12.9,22.56,15.86,34.9,22.96,13.63,7.84,23.13,22.45,24.76,38.08,1.48,14.19-3.13,28.67-.45,42.68,5.94,31.07,43.17,45.41,58.04,73.32,15.55,29.19-9.61,59.32-34.46,81.14h0Z"/>
        <path class="cls-6" d="m892.56,1443.05c-.51,0-.96-.36-1.05-.88-5.86-33.92-26.33-125.61-61.89-229.89-26.1-76.53-56.33-148.86-89.84-214.99-41.88-82.64-89.03-155.77-140.15-217.35-.38-.45-.31-1.12.14-1.5.45-.37,1.12-.31,1.5.14,51.22,61.71,98.47,134.98,140.42,217.77,33.55,66.22,63.82,138.65,89.95,215.28,35.6,104.39,56.1,196.21,61.96,230.17.1.58-.29,1.13-.87,1.23-.06.01-.12.02-.18.02h0Z"/>
      </g>
      <g>
        <path class="cls-16" d="m354.8,1077.86c10.04,8.07,14.29,21.1,19.39,32.92s12.88,24.18,25.4,27.21c13.57,3.29,27.83-5.68,41.46-2.63,11.04,2.47,18.86,12.17,24.69,21.86,5.83,9.69,10.9,20.34,19.91,27.18,13.98,10.62,33.4,9.24,50.79,6.84s36.33-5.06,51.5,3.78c18.46,10.76,25.34,35.25,43.66,46.23,7.8,4.67,17,6.44,26.06,7.11,27,2.01,54.61-5.25,77.13-20.27-1.3-24.63-9.86-51.25-25.34-70.45-15.48-19.2-38.73-32.54-63.35-33.85-7.86-.42-15.8.35-23.56-.95-32.61-5.43-49.56-43.29-79.78-56.7-12.84-5.7-27.77-6.53-41.16-2.3-13.11,4.14-24.81,12.92-38.48,14.37-13.36,1.42-26.25-4.37-39.18-8.01-24.8-6.97-44.9-1.1-69.13,7.64h0Z"/>
        <path class="cls-6" d="m883.42,1434.35c-.47,0-.91-.32-1.03-.8-15.52-60.69-50.27-118.84-100.47-168.16-43.14-42.38-98.54-79.08-164.67-109.07-71.15-32.27-153.23-56.74-258.31-77-.58-.11-.95-.67-.84-1.25.11-.58.67-.95,1.24-.84,105.25,20.3,187.48,44.81,258.79,77.15,66.35,30.09,121.96,66.93,165.28,109.49,50.48,49.6,85.42,108.09,101.04,169.15.15.57-.2,1.15-.77,1.29-.09.02-.18.03-.26.03h0Z"/>
      </g>
      <path class="cls-16" d="m925.23,1076.78c-15.5,2.99-32.25-1.21-44.5-11.17s-19.79-25.49-20.03-41.28c-.18-11.99,3.6-23.67,7.72-34.94,1.41-3.85,2.89-7.88,2.38-11.95-.41-3.23-2.04-6.17-3.81-8.9-6.68-10.26-15.98-19.18-19.5-30.91-6.25-20.82,7.65-43.23,3.3-64.52-1.52-7.42-5.18-14.2-7.79-21.31-9.19-25.04-4.38-54.72,12.25-75.57,23.41,9.39,38.68,34.35,38.91,59.57.12,12.57-3.34,25.89,2.01,37.27,3.2,6.8,9.11,11.85,14.66,16.93,9.71,8.89,19.08,19.08,22.51,31.79,5.39,19.97-4.93,42.01,1.76,61.58,6.64,19.42,28.28,30.98,34.15,50.64,1.57,5.27,1.9,10.85,1.46,16.34-.68,8.43-3.46,17.13-9.81,22.72-9.89,8.7-22.75,1.21-35.68,3.71h0Z"/>
      <path class="cls-6" d="m934.03,1439.58c-.55,0-1.01-.42-1.06-.97-4.59-53.96-3.33-109.18-2.11-162.59,1.68-73.88,3.43-150.27-10.39-223.9-7.14-38.08-18.57-75.97-29.61-112.61-15.37-50.97-31.26-103.68-35.8-157.56-.05-.59.38-1.1.97-1.15.58-.05,1.1.38,1.15.97,4.52,53.66,20.38,106.26,35.72,157.13,11.06,36.69,22.5,74.64,29.67,112.83,13.86,73.85,12.11,150.35,10.42,224.34-1.22,53.35-2.47,108.52,2.11,162.36.05.58-.38,1.1-.97,1.15-.03,0-.06,0-.09,0h0Z"/>
    </g>
    <g>
      <path class="cls-3" d="m817.07,1779.34s-98.22-331.89-82.4-340.67c15.82-8.78,403.54-9.13,403.54-9.13,0,0-44.46,349.06-56.81,349.8-12.35.74-231.63,1.51-264.33,0h0Z"/>
      <g class="cls-26">
        <path class="cls-6" d="m912.8,1403.86s-113.43,144.91-106.98,148.78c6.44,3.87,325.08,69.6,324.95,65.74-.13-3.87,32.4-188.84,32.4-188.84l-250.37-25.67h0Z"/>
      </g>
    </g>
  </g>
  <g>
    <g>
      <g>
        <rect class="cls-3" x="1543.72" y="1494.29" width="277.43" height="235.77"/>
        <rect class="cls-6" x="1438.1" y="1730.06" width="495.37" height="50.15" rx="20.85" ry="20.85"/>
      </g>
      <path class="cls-11" d="m985.37,672.05c.59-1.17,1.78-1.91,3.09-1.91,55.95-.38,1341.22-8.93,1398.16.01,22.45,3.53,16.87,858.08,0,890.73-12.4,24.01-1384.11,2.9-1400.05,0-19.65-3.57-29.38-832.69-1.21-888.83h0Z"/>
      <g>
        <path class="cls-7" d="m1019.2,711.36s-4.4,729.65,13.19,731.65,1299.51,9.97,1310.5,0c10.99-9.97,15.39-737.63,0-737.63s-1323.69,5.98-1323.69,5.98h0Z"/>
        <g class="cls-22">
          <g>
            <polygon class="cls-13" points="1861.13 688.83 1362.94 1462.3 994.69 1462.3 1019.2 711.36 1861.13 688.83"/>
            <polygon class="cls-13" points="1476.68 1468.62 1955.5 684.68 2165.63 684.68 1704.3 1464.51 1476.68 1468.62"/>
            <polygon class="cls-13" points="2254.49 687.59 1790.9 1469.29 2078.07 1465.65 2386.47 898.03 2380.25 692.52 2254.49 687.59"/>
          </g>
        </g>
      </g>
    </g>
    <g id="DES">
      <path class="cls-19" d="m1423.48,1415.16c-1.76,4.64-5.28,7.84-10.64,9.52-3.44,1.04-8.4,1.6-14.8,1.6h-13.76l-.64-5.76h6.72v-56.08h-6.72l.64-5.84h15.04c7.36,0,12.64.96,15.92,2.88,4.24,2.48,6.4,7.12,6.4,13.92,0,7.6-3.36,12.4-10,14.48,4.08,1.36,7.68,4,10.64,8,1.76,2.32,2.64,6.4,2.64,12.24,0,.88-.48,2.56-1.44,5.04Zm-12.64-48.72c-2.32-1.36-5.84-2-10.64-2h-3.6v22.8h2.4c5.28,0,9.04-.56,11.36-1.76,3.28-1.68,4.88-4.96,4.88-9.68s-1.44-7.6-4.4-9.36Zm-3.76,27.52c-1.76-.4-4.48-.64-8.24-.64h-2.24v27.2h5.76c3.6,0,6.4-.4,8.4-1.12,2.8-1.04,4.8-2.88,6.08-5.6.88-1.84,1.28-3.68,1.28-5.68,0-7.28-4-12.48-11.04-14.16Z"/>
      <path class="cls-19" d="m1481.32,1426.28l-6.24.64v-5.28c-4.24,3.6-8.24,5.36-12,5.36-6.64,0-11.68-3.12-14.96-9.36-2.56-4.88-3.84-11.04-3.84-18.4,0-6.88,1.04-12.72,3.12-17.52,2.8-6.48,7.2-9.84,13.04-10.08,1.36-.08,2.16-.08,2.48-.08,3.84,0,7.92,1.6,12.16,4.72v-4.08l6.24-.56v54.64Zm-6.24-43.76c-4.56-3.36-8.48-5.04-11.76-5.04.08,0-.8.08-2.48.24-6.88.64-10.32,7.76-10.32,21.36,0,12.16,2.8,19.12,8.48,20.96,2.16.72,3.84,1.04,5.04,1.04,2.8,0,6.48-1.68,11.04-4.96v-33.6Z"/>
      <path class="cls-19" d="m1538.68,1426.28l-6.24.64v-5.28c-4.24,3.6-8.24,5.36-12,5.36-6.64,0-11.68-3.12-14.96-9.36-2.56-4.88-3.84-11.04-3.84-18.4,0-6.88,1.04-12.72,3.12-17.52,2.8-6.48,7.2-9.84,13.04-10.08,1.36-.08,2.16-.08,2.48-.08,3.84,0,7.92,1.6,12.16,4.72v-17.68l6.24-.56v68.24Zm-6.24-43.76c-4.56-3.36-8.48-5.04-11.76-5.04.08,0-.8.08-2.48.24-6.88.64-10.32,7.76-10.32,21.36,0,12.16,2.8,19.12,8.48,20.96,2.16.72,3.84,1.04,5.04,1.04,2.8,0,6.48-1.68,11.04-4.96v-33.6Z"/>
      <path class="cls-19" d="m1627.95,1420.84c-3.44,2.16-6.08,3.68-7.84,4.4-2.8,1.12-5.68,1.68-8.8,1.68-2.32,0-4.72-.48-7.2-1.44-5.12-2-8.64-6.16-10.64-12.32-1.36-4.24-2-9.84-2-16.96,0-.24.08-2.48.24-6.96.24-6.96.56-11.6.96-14.08.96-5.76,2.88-9.92,5.84-12.4,3.76-3.2,7.84-4.8,12.16-4.8,7.68,0,13.2,3.52,16.56,10.64l-5.04,3.2c-3.28-5.28-6.96-7.92-10.96-7.92-5.52,0-9.28,3.12-11.28,9.28-1.2,3.68-1.84,8.96-1.84,15.92v7.04c0,8.64,1.12,15.04,3.28,19.2,1.36,2.64,2.96,4.24,4.64,4.64,2.64.72,4.8,1.04,6.32,1.04,2.8,0,5.92-1.12,9.36-3.44v-21.92h-13.28l.8-5.76h18.72v30.96Z"/>
      <path class="cls-19" d="m1686.11,1426.28l-6.24.64v-5.28c-4.24,3.6-8.24,5.36-12,5.36-6.64,0-11.68-3.12-14.96-9.36-2.56-4.88-3.84-11.04-3.84-18.4,0-6.88,1.04-12.72,3.12-17.52,2.8-6.48,7.2-9.84,13.04-10.08,1.36-.08,2.16-.08,2.48-.08,3.84,0,7.92,1.6,12.16,4.72v-4.08l6.24-.56v54.64Zm-6.24-43.76c-4.56-3.36-8.48-5.04-11.76-5.04.08,0-.8.08-2.48.24-6.88.64-10.32,7.76-10.32,21.36,0,12.16,2.8,19.12,8.48,20.96,2.16.72,3.84,1.04,5.04,1.04,2.8,0,6.48-1.68,11.04-4.96v-33.6Z"/>
      <path class="cls-19" d="m1743.31,1423.16c-3.36,2.56-6.8,3.84-10.24,3.84-9.68,0-14.56-5.6-14.56-16.8v-32h-9.36l.56-6h8.8v-10.88l6.24-.64v11.52h17.52l-.64,6h-16.88v33.68c0,2.64.64,4.8,2,6.48,1.36,1.84,3.36,2.8,6,2.8s5.04-.88,7.44-2.56l3.12,4.56Z"/>
      <path class="cls-19" d="m1769.47,1399.24c0,2.32.16,4.64.48,6.96.72,4.96,1.84,8.48,3.44,10.64,2.08,2.8,5.44,4.16,10,4.16,5.2,0,9.52-3.04,12.8-9.12l4.96,2.56c-3.84,8.64-9.44,12.48-18.8,12.48-3.04,0-5.36-.4-7.04-1.12-2.96-1.36-5.44-3.44-7.6-6.4-2.08-2.88-3.28-5.92-3.68-9.04-.56-4.72-.8-8.32-.8-10.8,0-8.4.8-14.16,2.4-17.36,3.52-7.12,9.2-10.64,16.96-10.64,2.4,0,4.56.4,6.56,1.12,5.04,1.92,8.48,5.6,10.32,11.04,1.36,3.76,2,8.88,2,15.52h-32Zm25.76-5.92c-.56-4.88-1.6-8.48-3.12-10.88-2.16-3.28-5.36-4.88-9.68-4.88-7.44,0-11.76,5.28-12.8,15.76h25.6Z"/>
      <path class="cls-19" d="m1860.83,1372.2l-7.76,54.08h-2.48l-10.8-32.48-10.8,32.48h-2.32l-8-54.08,6.08-.56,4.56,38.4,10.48-29.68,10.8,29.68,4.32-38.4,5.92.56Z"/>
      <path class="cls-19" d="m1915.55,1426.28l-6.24.64v-5.28c-4.24,3.6-8.24,5.36-12,5.36-6.64,0-11.68-3.12-14.96-9.36-2.56-4.88-3.84-11.04-3.84-18.4,0-6.88,1.04-12.72,3.12-17.52,2.8-6.48,7.2-9.84,13.04-10.08,1.36-.08,2.16-.08,2.48-.08,3.84,0,7.92,1.6,12.16,4.72v-4.08l6.24-.56v54.64Zm-6.24-43.76c-4.56-3.36-8.48-5.04-11.76-5.04.08,0-.8.08-2.48.24-6.88.64-10.32,7.76-10.32,21.36,0,12.16,2.8,19.12,8.48,20.96,2.16.72,3.84,1.04,5.04,1.04,2.8,0,6.48-1.68,11.04-4.96v-33.6Z"/>
      <path class="cls-19" d="m1974.99,1372.2l-15.36,48.32c-2.32,7.2-4.88,11.28-7.84,12.24-2.88.96-5.12,1.44-6.64,1.44-2.56,0-4.88-.72-7.04-2.24l3.28-4.4c1.2.4,2.4.64,3.6.64,3.44,0,5.92-1.92,7.6-5.84l-16.88-50.16,5.68-.56,14.32,42.96,13.76-42.96,5.52.56Z"/>
    </g>
    <circle class="cls-3" cx="1695.17" cy="1516.44" r="33.72"/>
    <g class="cls-23">
      <path class="cls-20" d="m1404.78,1192.44c-19.27,23.32-43.6,41.07-73.01,53.24-34.98,14.7-77.57,21.8-128.78,21.8l-5.07-35.49c91.26,2.54,153.12-22.31,185.06-75.04,9.13-14.7,13.69-29.41,13.69-44.11,0-57.8-33.46-86.7-100.89-86.7-26.36,0-55.26,4.56-86.7,13.69v-207.87h222.57l-10.65,36.5h-172.38v128.78c21.29-4.56,40.05-7.1,56.28-7.1,12.67,0,25.86,1.52,40.56,4.56,25.35,5.58,46.64,19.27,64.39,42.08,17.75,22.82,26.87,47.15,26.87,73.01,0,29.41-10.65,56.78-31.94,82.64Z"/>
      <path class="cls-20" d="m1796.68,1178.25c-8.62,32.96-25.35,56.78-50.19,72-18.76,11.66-39.55,17.75-61.85,17.75-23.83,0-44.62-6.08-62.36-17.75-28.9-19.27-47.15-49.69-54.25-91.77-3.04-16.73-4.56-53.24-4.56-110.53s1.52-92.27,5.07-111.03c7.6-43.1,25.35-73.52,53.74-91.77,19.27-12.68,40.05-18.76,62.36-18.76,40.05,0,70.98,15.21,91.77,45.12,17.75,25.86,26.87,59.83,27.89,101.91,1.01,45.12,1.52,83.66,1.52,114.58,0,38.53-3.04,68.45-9.13,90.25Zm-32.45-130.81c-.51-3.55-1.01-24.84-1.52-64.39-.51-33.97-5.07-60.33-13.69-78.59-12.17-26.36-32.96-39.55-62.87-39.55-53.23,0-80.11,39.55-80.11,118.13v130.81c0,31.94,5.07,57.8,15.21,77.57,13.69,25.35,34.98,38.03,63.88,38.03,50.19,0,76.05-39.04,77.57-117.62.51-41.07,1.01-62.36,1.52-64.39Z"/>
      <path class="cls-20" d="m2182,1226.92l-4.06,36.5h-238.8v-36.5c27.88-39.04,77.06-102.42,147.54-189.62,17.75-21.8,29.41-38.02,35.49-47.66,11.66-19.27,17.24-37.52,17.24-55.26,0-21.8-7.61-39.04-22.82-51.71-14.7-12.67-33.46-19.27-55.26-19.27-43.1,0-74.02,29.41-93.29,88.22l-34.48-8.11c10.14-38.02,23.83-65.91,41.57-84.67,20.79-21.8,49.69-32.96,85.68-32.96,32.45,0,59.83,8.62,82.64,26.36,24.84,19.27,37.01,44.62,37.01,76.56,0,29.41-11.66,60.84-34.98,94.81-3.55,5.58-25.35,32.45-64.9,80.61-32.96,40.05-64.9,81.12-94.81,122.7h196.21Z"/>
    </g>
    <g>
      <path class="cls-10" d="m1296.49,1566.56l-132.59-372.76,33.67,5.41c1.9.31,3.49,1.62,4.15,3.43l132.69,364.28c.03.08-.03.17-.12.17l-37.8-.52h0Z"/>
      <g>
        <path class="cls-2" d="m870.24,1582.39c5.6-.99,280.68-391.45,293.66-388.59s164.14,461.73,158.52,460.84-466.1-69.78-452.19-72.25Z"/>
        <path class="cls-8" d="m1121.14,1519.24c-2.14,1.92-4.3,3.16-6.51,3.72-2.2.57-4.31.55-6.33-.06-2.02-.6-3.84-1.74-5.48-3.41-1.64-1.67-2.88-3.84-3.72-6.51,1.34-16.4,2.37-33.07,3.08-50,.72-16.93,1.63-33.75,2.74-50.48,1.1-16.72,2.7-33.19,4.79-49.41,2.08-16.22,5.16-31.82,9.23-46.81.33-1.22,1.45-2.3,3.37-3.27,1.91-.96,4.24-1.65,6.98-2.06,2.74-.41,5.72-.57,8.95-.48,3.22.09,6.33.48,9.32,1.16,2.99.69,5.64,1.71,7.96,3.06,2.32,1.36,4.01,3.1,5.08,5.24,1.73,2.39,2.77,6.5,3.11,12.33.34,5.83.21,12.85-.39,21.06-.6,8.22-1.7,17.34-3.29,27.36-1.59,10.03-3.48,20.33-5.65,30.9-2.17,10.57-4.56,21.18-7.17,31.82-2.61,10.64-5.37,20.7-8.28,30.16-2.91,9.47-5.83,18.09-8.76,25.86-2.92,7.77-5.75,14.05-8.48,18.83-.02.14-.21.46-.58.96h0Zm-28.48,62.23c-3.01-2.31-5.44-4.98-7.28-8.02-1.84-3.04-2.9-6.13-3.17-9.27-.28-3.14.39-6.21,1.99-9.19,1.6-2.99,4.27-5.59,8-7.81,5.14-3.13,10.3-4.32,15.46-3.56,5.16.75,9.14,3.88,11.92,9.39,2.62,4.78,3.88,9.94,3.77,15.49-.11,5.55-2.52,10.34-7.25,14.38-3.45,3.11-7.35,4.39-11.7,3.85-4.35-.55-8.26-2.3-11.74-5.24h0Z"/>
      </g>
    </g>
  </g>
  <g>
    <g>
      <rect class="cls-3" x="2310.61" y="1365.73" width="357.03" height="412.98" rx="12.08" ry="12.08"/>
      <g class="cls-17">
        <path class="cls-6" d="m2677.69,1424.21s-139.84,196.9-392.92,251.4v120.52h401.74s10.49-364.87-8.82-371.92h0Z"/>
      </g>
    </g>
    <g>
      <path class="cls-2" d="m2404.98,1365.73s-4.74-339.97,1.58-343.92,54.49-7.9,58.43,1.58,0,342.34,0,342.34h-60.01Z"/>
      <g class="cls-27">
        <g>
          <polygon class="cls-5" points="2446.29 1070.31 2446.29 1372.44 2423.74 1372.44 2423.74 1070.92 2446.29 1070.31"/>
          <path class="cls-16" d="m2393.92,1083.37s70.09-5.32,79.86-.43c0,0-.49-69.86-4.4-71.32-3.91-1.47-70.83-1.84-72.3,5.92-1.47,7.76-3.16,65.84-3.16,65.84Z"/>
        </g>
      </g>
    </g>
    <g>
      <path class="cls-16" d="m2504.06,871.32h132.01c2.06,0,3.73,1.67,3.73,3.73v490.67h-139.48v-490.67c0-2.06,1.67-3.73,3.73-3.73h0Z"/>
      <g class="cls-24">
        <g>
          <rect class="cls-13" x="2489.13" y="853.25" width="47.85" height="530.48"/>
          <rect class="cls-11" x="2500.32" y="909.25" width="17.57" height="6.12"/>
          <rect class="cls-11" x="2500.32" y="937.44" width="17.57" height="6.12"/>
          <rect class="cls-11" x="2500.32" y="965.62" width="17.57" height="6.12"/>
          <rect class="cls-11" x="2500.32" y="993.8" width="17.57" height="6.12"/>
          <rect class="cls-11" x="2500.32" y="1021.99" width="17.57" height="6.12"/>
          <rect class="cls-11" x="2500.32" y="1050.17" width="17.57" height="6.12"/>
          <rect class="cls-11" x="2500.32" y="1078.36" width="17.57" height="6.12"/>
          <rect class="cls-11" x="2500.32" y="1106.54" width="17.57" height="6.12"/>
          <rect class="cls-11" x="2500.32" y="1134.72" width="17.57" height="6.12"/>
          <rect class="cls-11" x="2500.32" y="1162.91" width="17.57" height="6.12"/>
          <rect class="cls-11" x="2500.32" y="1191.09" width="17.57" height="6.12"/>
          <rect class="cls-11" x="2500.32" y="1219.27" width="17.57" height="6.12"/>
          <rect class="cls-11" x="2500.32" y="1247.46" width="17.57" height="6.12"/>
          <rect class="cls-11" x="2500.32" y="1275.64" width="17.57" height="6.12"/>
          <rect class="cls-11" x="2500.32" y="1303.83" width="17.57" height="6.12"/>
          <rect class="cls-11" x="2500.32" y="1332.01" width="17.57" height="6.12"/>
          <path class="cls-14" d="m2609.64,852.67c-38.7,33.16-52.28,92.46-31.85,139.15,9.72,22.22,26.34,42.04,29.46,66.09,3.02,23.33-7.24,46.03-15.36,68.12-8,21.76-14.16,44.76-12.53,67.89,2.66,37.83,25.86,73.22,22.07,110.95-3.64,36.24-31.83,67.79-30.2,104.18.46,0-.49,1.6-.02,1.6h90.62l-.04-560.3,11.15.11-63.29,2.21h0Z"/>
        </g>
      </g>
    </g>
  </g>
  <path class="cls-6" d="m2910.78,1784.46H621.28c-2.35,0-4.25-1.9-4.25-4.25s1.9-4.25,4.25-4.25h2289.51c2.35,0,4.25,1.9,4.25,4.25s-1.9,4.25-4.25,4.25Z"/>
  <g>
    <g>
      <g>
        <path class="cls-9" d="m1319.37,613.04l-52.98,6.85c-29.17-13.67-57.41-22.52-83.74-19.76-26.45,2.76-41.65,30.46-35.12,49.11,5.74,16.4,53.33,33.22,73.86,33.62,20.53.39,51.72-4.34,63.17-14.5.02-.01.03-.03.04-.05h34.76v-55.26Z"/>
        <g class="cls-29">
          <path class="cls-12" d="m1202.96,685.37s10.19-19.92,9.73-35.22c-.46-15.29-21.48-39.12-21.48-39.12l-17.44.89s5.69,55.84.64,65.68c-5.05,9.85,0,0,0,0l28.55,7.76h0Z"/>
        </g>
      </g>
      <path class="cls-12" d="m1284.56,668.35s10.49-16.11-13.89-32.37c0,0,21.75,3.52,29.22,18.02,7.47,14.5,5.93,14.72,5.93,14.72l-21.26-.37h0Z"/>
    </g>
    <g>
      <path class="cls-3" d="m1266.4,619.89s-16.98,1.51-20.26,1.59c-11.89.29-23.81.94-23.81.94,0,0-7.41-24.05-18.3-19.12-16,7.24,2.29,18.47,2.29,18.47,0,0-28.44-4.74-31.21-4.9-2.78-.16,21.29,50.59-4.39,66.01-25.67,15.42-54.27,7.29-57.84-32.68s37.37-78.31,75.06-77.01c37.69,1.3,78.47,46.71,78.47,46.71h0Z"/>
      <g class="cls-18">
        <path class="cls-6" d="m1148.88,690.18s19.54-16.37,18.58-34.46c-.97-18.09-6.8-46.42-3.93-48.3,2.87-1.88,32.97,10.13,32.97,10.13,0,0-5.54-8.13,4.11-12.29,9.66-4.16,0,0,0,0,0,0,15.3,16.75,14.22,18.5-1.08,1.76-36.23-1.76-36.23-1.76,0,0,13.79,33.86,3.92,53.87-9.87,20.01-33.63,14.3-33.63,14.3"/>
      </g>
    </g>
    <path class="cls-15" d="m1265.28,668.72s-8.09-2.32-8.09-16.37,0-1.4,0-1.4c0,0,8.22,14.95,8.09,17.77h0Z"/>
    <path class="cls-12" d="m1199.51,651.59s32.27,17.55,35.29,15.68-2.45-21.55-2.45-21.55c0,0,3.49-.23,4.31,2.91.82,3.14,5.36,21.66,0,22.01s-31.92-12.73-37.16-19.06h0Z"/>
    <g>
      <path class="cls-9" d="m1386.1,984.94s-7.91,10.64-10.53,15.91c-2.61,5.27-3.46,31.6-2.91,31.51s6.4-.4,7.61-3.88l6.47-22.23s.44,23.84-.34,25.53c-.79,1.69-14.52,29.05-13.31,29.92,1.21.87,6.41,4.04,10.46-2.78s13.63-24.47,14.81-27.29c1.18-2.82-18.76,37.2-17.96,37.52.8.32,5.91,2.97,7.93.36,2.02-2.61,19.87-31.02,20.46-33.3.59-2.29-11.12,27.22-10.51,27.21s2.95,3.02,6.14-1.01,13.92-25.66,14.43-26.8c.51-1.14.35-14.92.35-14.92,0,0,2.67,16.19,2.05,18.3s-5.54,14.37-3.26,14.8c1.73.33,4.74-3,7.11-7.34,2.37-4.34,5.38-10.85,5.15-17.03s-11.61-40.77-11.61-40.77l-32.54-3.68h0Z"/>
      <g class="cls-21">
        <path class="cls-12" d="m1369.61,1010.09c.5,1.8,24.75-11.65,57.79-6.49,0,0-4.45-20.06-8.05-21.87-3.6-1.8-31.96-1.8-36.28.24-4.33,2.04-15.74,19.82-13.46,28.11h0Z"/>
      </g>
    </g>
    <g>
      <path class="cls-2" d="m1682.58,590.09c0-2.12-1.52-3.94-3.61-4.31l-171.89-30.91c-144.19-12.33-187.71,51.49-187.71,51.49v61.97l16.87-.07c12.49,36.47,48.02,140.99,51.64,159.98,4.4,23.08-23.97,162.06-21.03,163.9,2.94,1.84,66.62,9.68,72.5,8.7,5.88-.98,35.27-154.04,33.31-172.54-1.5-14.2-5.9-111.6-16.72-160.52l226.64-.9v-76.79h0Z"/>
      <path class="cls-5" d="m1455.94,667.78s-4.29-22.73-23.36-38.5c0,0,101.89,20.38,131.47,22.35s118.53-5.85,118.53-5.85v21.1l-226.64.9Z"/>
    </g>
    <path class="cls-12" d="m2193.7,728.96s35.83-8.51,36.72-6.87c.9,1.64,5.97,18.06,4.03,24.03-1.94,5.97-37.17,18.81-37.17,18.81l-3.58-35.98Z"/>
    <g>
      <path class="cls-3" d="m2221.61,620.02s-339.36-27.84-409.84-42.64c-70.48-14.79-129.19,17.36-129.19,17.36v72.14s182.37,155.37,264.14,157.42,252.82-43.61,254.19-51.11c1.36-7.5,0-51.79-6.81-54.52-6.81-2.73-233.06,23.17-237.15,18.4-2.66-3.1-40.96-41.56-74.58-70.19h339.25v-46.86h0Z"/>
      <g class="cls-28">
        <g>
          <path class="cls-6" d="m1963.39,783.36c-1.2,0-2.16-.04-2.92-.13-.19-.02-.38-.05-.58-.08-.87-.15-1.45-.98-1.3-1.84.15-.87.98-1.45,1.84-1.3.13.02.26.04.38.06,1.01.11,2.59.13,4.6.07.89-.03,1.62.66,1.64,1.54.03.88-.66,1.62-1.54,1.64-.77.02-1.48.04-2.13.04h0Zm7.41-.32c-.83,0-1.53-.64-1.59-1.48-.06-.88.6-1.64,1.48-1.7,1.62-.11,3.38-.26,5.29-.43.87-.08,1.65.57,1.73,1.45.08.88-.57,1.65-1.45,1.73-1.93.17-3.71.32-5.35.43-.04,0-.08,0-.11,0Zm10.63-.93c-.81,0-1.5-.61-1.58-1.43-.09-.88.55-1.66,1.43-1.75,1.69-.17,3.45-.36,5.29-.56.87-.09,1.66.54,1.76,1.41.09.88-.54,1.66-1.41,1.76-1.85.2-3.62.39-5.31.56-.05,0-.11,0-.16,0h0Zm-26.31-.6c-.21,0-.42-.04-.62-.13-1.44-.61-3.1-1.38-4.93-2.3-.79-.39-1.11-1.35-.71-2.14.39-.79,1.35-1.1,2.14-.71,1.77.89,3.37,1.63,4.75,2.22.81.34,1.19,1.28.85,2.09-.26.61-.85.97-1.47.97Zm36.91-.55c-.8,0-1.49-.6-1.58-1.41-.1-.87.53-1.67,1.4-1.77,1.71-.2,3.47-.4,5.28-.62.87-.11,1.67.52,1.77,1.39.1.87-.52,1.67-1.39,1.77-1.81.22-3.58.43-5.3.62-.06,0-.12.01-.18.01Zm10.58-1.27c-.79,0-1.48-.59-1.58-1.4-.11-.87.51-1.67,1.39-1.78,1.72-.21,3.48-.43,5.28-.66.87-.11,1.67.51,1.78,1.38.11.87-.51,1.67-1.38,1.78-1.8.23-3.56.45-5.29.66-.07,0-.13.01-.2.01h0Zm10.56-1.34c-.79,0-1.47-.59-1.58-1.39-.11-.87.5-1.67,1.38-1.79,1.73-.23,3.49-.46,5.28-.69.87-.11,1.67.5,1.79,1.37.12.87-.5,1.67-1.37,1.79-1.79.24-3.55.47-5.28.69-.07,0-.14.01-.21.01h0Zm10.56-1.4c-.79,0-1.47-.58-1.58-1.38-.12-.87.5-1.67,1.37-1.79l5.27-.71c.87-.13,1.68.49,1.8,1.36.12.87-.49,1.68-1.37,1.79l-5.28.71c-.07,0-.14.01-.21.01h0Zm-78.17-.18c-.26,0-.52-.06-.76-.19-1.48-.81-3.05-1.68-4.69-2.61-.76-.44-1.03-1.41-.6-2.17.43-.76,1.41-1.03,2.17-.6,1.62.92,3.16,1.78,4.63,2.58.77.42,1.06,1.39.64,2.16-.29.53-.84.83-1.4.83h0Zm88.72-1.26c-.78,0-1.47-.58-1.58-1.38-.12-.87.49-1.68,1.36-1.8l5.27-.73c.87-.12,1.68.49,1.8,1.36.12.87-.49,1.68-1.36,1.8l-5.27.73c-.07.01-.15.02-.22.02h0Zm10.54-1.47c-.78,0-1.46-.58-1.58-1.37-.12-.87.49-1.68,1.36-1.8l5.27-.75c.86-.13,1.68.48,1.8,1.35.12.87-.48,1.68-1.35,1.8l-5.27.75c-.08.01-.15.02-.22.02h0Zm10.54-1.5c-.78,0-1.46-.57-1.58-1.37-.12-.87.48-1.68,1.35-1.8l5.26-.76c.88-.12,1.68.48,1.81,1.35.13.87-.48,1.68-1.35,1.81l-5.27.76c-.08.01-.15.02-.23.02Zm-119.07-1.03c-.27,0-.55-.07-.81-.22-1.48-.87-3.01-1.79-4.59-2.74-.75-.45-1-1.43-.54-2.19.46-.75,1.44-1,2.19-.54,1.57.94,3.09,1.85,4.56,2.72.76.45,1.01,1.42.57,2.18-.3.5-.83.79-1.38.79h0Zm129.6-.49c-.78,0-1.46-.57-1.58-1.37-.13-.87.48-1.68,1.35-1.81l5.26-.77c.88-.13,1.68.47,1.81,1.35.13.87-.47,1.68-1.35,1.81l-5.27.77c-.08.01-.16.02-.23.02Zm10.53-1.54c-.78,0-1.46-.57-1.58-1.36-.13-.87.47-1.68,1.35-1.81l5.26-.78c.87-.13,1.68.47,1.81,1.34.13.87-.47,1.68-1.34,1.81l-5.27.78c-.08.01-.16.02-.23.02Zm10.55-1.56c-.78,0-1.46-.57-1.58-1.36-.13-.87.47-1.68,1.34-1.81l5.27-.79c.88-.13,1.68.47,1.81,1.34.13.87-.47,1.68-1.34,1.81l-5.27.79c-.08.01-.16.02-.24.02Zm10.52-1.58c-.78,0-1.46-.57-1.57-1.36-.13-.87.47-1.68,1.34-1.81l5.26-.79c.87-.13,1.68.47,1.81,1.34.13.87-.47,1.68-1.34,1.81l-5.26.79c-.08.01-.16.02-.24.02Zm-170.33-.33c-.28,0-.57-.08-.83-.24-1.48-.91-2.99-1.85-4.53-2.81-.75-.47-.97-1.45-.51-2.2.46-.75,1.45-.97,2.2-.51,1.54.96,3.04,1.89,4.52,2.8.75.46.98,1.44.52,2.19-.3.49-.82.76-1.36.76Zm180.85-1.26c-.77,0-1.45-.57-1.57-1.35-.13-.87.47-1.68,1.34-1.82l5.26-.8c.87-.13,1.68.47,1.82,1.34.13.87-.47,1.68-1.34,1.82l-5.26.8c-.08.01-.16.02-.24.02Zm10.52-1.6c-.77,0-1.45-.56-1.57-1.35-.13-.87.46-1.68,1.33-1.82l5.26-.81c.88-.13,1.68.46,1.82,1.33.13.87-.46,1.68-1.33,1.82l-5.26.81c-.08.01-.16.02-.24.02h0Zm10.52-1.62c-.77,0-1.45-.56-1.57-1.35-.13-.87.46-1.68,1.33-1.82l5.26-.81c.87-.13,1.68.46,1.82,1.33.13.87-.46,1.68-1.33,1.82l-5.26.81c-.08.01-.16.02-.24.02Zm-210.93-1.17c-.29,0-.59-.08-.85-.25-1.48-.93-2.98-1.89-4.5-2.86-.74-.48-.96-1.46-.48-2.2.48-.74,1.46-.96,2.2-.48,1.52.97,3.01,1.92,4.48,2.85.74.47.97,1.46.49,2.2-.3.48-.82.74-1.35.74Zm221.45-.46c-.77,0-1.45-.56-1.57-1.35-.13-.87.46-1.68,1.33-1.82l5.26-.82c.88-.14,1.69.46,1.82,1.33.14.87-.46,1.69-1.33,1.82l-5.26.82c-.08.01-.17.02-.25.02Zm10.52-1.64c-.77,0-1.45-.56-1.57-1.35-.14-.87.46-1.69,1.33-1.82l5.26-.82c.87-.13,1.69.46,1.82,1.33.14.87-.46,1.69-1.33,1.82l-5.26.82c-.08.01-.17.02-.25.02Zm10.52-1.65c-.77,0-1.45-.56-1.57-1.35-.14-.87.46-1.69,1.33-1.82l5.26-.83c.88-.14,1.69.46,1.82,1.33.14.87-.46,1.69-1.33,1.82l-5.26.83c-.08.01-.17.02-.25.02Zm10.52-1.66c-.77,0-1.45-.56-1.57-1.35-.14-.87.46-1.69,1.33-1.82l5.26-.83c.86-.14,1.69.46,1.82,1.33.14.87-.46,1.69-1.33,1.82l-5.26.83c-.08.01-.17.02-.25.02Zm-261.98-.34c-.3,0-.6-.08-.86-.26-1.47-.95-2.96-1.92-4.47-2.9-.74-.48-.95-1.47-.47-2.21.48-.74,1.47-.95,2.21-.46,1.5.98,2.99,1.94,4.46,2.89.74.48.95,1.46.47,2.2-.3.47-.82.73-1.34.73Zm272.5-1.33c-.77,0-1.45-.56-1.57-1.34-.14-.87.45-1.69,1.32-1.83l5.26-.84c.87-.15,1.69.45,1.83,1.32.14.87-.45,1.69-1.32,1.83l-5.27.84c-.08.01-.17.02-.25.02Zm10.53-1.68c-.77,0-1.45-.56-1.57-1.34-.14-.87.45-1.69,1.32-1.83l5.27-.84c.86-.14,1.69.45,1.83,1.32.14.87-.45,1.69-1.32,1.83l-5.27.84c-.08.01-.17.02-.25.02h0Zm10.55-1.69c-.77,0-1.45-.56-1.57-1.34-.14-.87.45-1.69,1.32-1.83l5.32-.86c.87-.14,1.69.45,1.83,1.32.14.87-.45,1.69-1.32,1.83l-5.32.86c-.09.01-.17.02-.26.02Zm-302.51-1.11c-.3,0-.6-.08-.87-.26-1.47-.96-2.95-1.94-4.45-2.93-.73-.49-.94-1.47-.45-2.21.48-.74,1.47-.94,2.21-.45,1.49.99,2.97,1.96,4.44,2.92.74.48.94,1.47.46,2.21-.31.47-.82.72-1.33.72h0Zm-8.88-5.87c-.3,0-.61-.09-.88-.27-1.47-.98-2.95-1.96-4.43-2.95-.73-.49-.93-1.48-.44-2.21.49-.73,1.48-.93,2.21-.44,1.48.99,2.96,1.97,4.42,2.95.73.49.93,1.48.45,2.21-.31.46-.81.71-1.33.71h0Zm-8.85-5.91c-.3,0-.61-.09-.89-.27l-4.42-2.97c-.73-.49-.92-1.48-.43-2.21.49-.73,1.48-.93,2.21-.43l4.41,2.97c.73.49.93,1.48.43,2.21-.31.46-.81.71-1.33.71h0Zm-8.82-5.95c-.31,0-.62-.09-.89-.27l-4.41-2.99c-.73-.5-.92-1.49-.42-2.21.5-.73,1.49-.92,2.21-.42l4.4,2.98c.73.49.92,1.48.43,2.21-.31.46-.81.7-1.32.7Zm-8.8-5.98c-.31,0-.62-.09-.9-.28l-4.39-3c-.73-.5-.91-1.49-.42-2.22.5-.73,1.49-.91,2.22-.42l4.38,2.99c.73.5.92,1.49.42,2.22-.31.45-.81.7-1.32.7h0Zm-8.78-6c-.31,0-.62-.09-.9-.28l-4.4-3.02c-.72-.5-.91-1.49-.41-2.22.5-.73,1.49-.91,2.22-.41l4.39,3.02c.73.5.91,1.49.41,2.22-.31.45-.81.69-1.32.69h0Zm-8.78-6.04c-.31,0-.63-.09-.9-.28l-4.38-3.02c-.72-.5-.91-1.49-.41-2.22.5-.73,1.5-.9,2.22-.4l4.38,3.02c.72.5.91,1.49.41,2.22-.31.45-.81.69-1.31.69h0Zm-8.75-6.05c-.31,0-.63-.09-.91-.28l-4.37-3.03c-.72-.5-.9-1.5-.4-2.22.5-.72,1.5-.9,2.22-.4l4.37,3.03c.72.5.9,1.5.4,2.22-.31.45-.81.69-1.31.69h0Zm-8.74-6.07c-.31,0-.63-.09-.91-.29l-4.37-3.04c-.72-.5-.9-1.5-.4-2.22.5-.72,1.5-.9,2.22-.4l4.37,3.04c.72.5.9,1.5.4,2.22-.31.45-.81.68-1.31.68h0Zm-8.73-6.09c-.32,0-.63-.09-.91-.29l-4.33-3.03c-.72-.5-.91-1.51-.41-2.23.51-.72,1.48-.91,2.21-.4l4.36,3.05c.72.5.9,1.5.39,2.22-.31.44-.8.68-1.31.68h0Zm-8.72-6.1c-.32,0-.64-.09-.91-.29l-4.36-3.06c-.72-.51-.89-1.5-.39-2.22.51-.72,1.5-.89,2.22-.39l4.36,3.06c.72.51.9,1.5.39,2.22-.31.44-.8.68-1.31.68h0Zm-8.71-6.12c-.32,0-.64-.09-.92-.29l-4.35-3.06c-.72-.51-.89-1.5-.39-2.22.51-.72,1.5-.89,2.22-.39l4.35,3.06c.72.51.89,1.5.39,2.22-.31.44-.8.68-1.31.68h0Zm-8.71-6.13c-.32,0-.64-.09-.92-.29l-4.35-3.07c-.72-.51-.89-1.5-.38-2.22.51-.72,1.5-.89,2.22-.38l4.35,3.07c.72.51.89,1.5.38,2.22-.31.44-.8.68-1.3.68Zm-8.7-6.14c-.32,0-.64-.09-.92-.29l-4.35-3.07c-.72-.51-.89-1.5-.38-2.22.51-.72,1.5-.89,2.22-.38l4.35,3.07c.72.51.89,1.5.38,2.22-.31.44-.8.67-1.3.67Zm-8.7-6.15c-.32,0-.64-.09-.92-.29l-4.35-3.08c-.72-.51-.89-1.5-.38-2.22.51-.72,1.51-.89,2.22-.38l4.35,3.08c.72.51.89,1.5.38,2.22-.31.44-.8.67-1.3.67h0Zm-8.7-6.16c-.32,0-.64-.1-.92-.29l-4.35-3.08c-.72-.51-.89-1.5-.38-2.22.51-.72,1.51-.89,2.22-.38l4.35,3.08c.72.51.89,1.5.38,2.22-.31.44-.8.67-1.3.67Zm-8.71-6.16c-.32,0-.64-.09-.92-.29l-4.36-3.08c-.72-.51-.89-1.5-.39-2.22.51-.72,1.5-.89,2.22-.39l4.36,3.08c.72.51.89,1.5.38,2.22-.31.44-.8.67-1.3.67h0Zm-8.74-6.15c-.32,0-.63-.09-.91-.29-2-1.39-3.48-2.42-4.39-3.02-.73-.49-.93-1.48-.45-2.21.49-.73,1.48-.93,2.21-.45.92.61,2.43,1.65,4.45,3.06.72.5.9,1.5.39,2.22-.31.44-.8.68-1.31.68Z"/>
          <path class="cls-6" d="m1694.57,585.27s2.99,95.23,1.49,96.72c-1.49,1.49-18.3-10.83-18.3-10.83,0,0-1.96-75.94-.37-80.66,1.58-4.72,17.18-5.23,17.18-5.23h0Z"/>
          <path class="cls-6" d="m1882.36,666.88s-72.95-60.07-84.19-62.98c0,0,73.67,16.65,130.7,32.88,57.02,16.23,298.44,12.9,298.44,12.9v24.14l-344.95-6.95"/>
        </g>
      </g>
    </g>
    <g>
      <path class="cls-3" d="m2229.1,721.89s5.8-9.26,16.65-10.77,14.37,0,14.37,0c0,0,29.12,78.9,23.83,80.57-5.28,1.67-17.23,1.95-20.85-1.39s-31.03-41.48-31.03-41.48c0,0,1.77-20.63-2.98-26.93h0Z"/>
      <g class="cls-25">
        <g>
          <path class="cls-6" d="m2237.28,759.32s7.74-8.82,11.46-8.62c2.31.12,3.3,1.71,3.72,2.9.26.74.08,1.57-.43,2.16-2.17,2.48-8.47,9.52-9.85,9.18-1.67-.42-4.9-5.62-4.9-5.62h0Z"/>
          <path class="cls-6" d="m2245.07,770.75s7.74-8.82,11.46-8.62c2.31.12,3.3,1.71,3.72,2.9.26.74.08,1.57-.43,2.16-2.17,2.48-8.47,9.52-9.85,9.18-1.67-.42-4.9-5.62-4.9-5.62Z"/>
          <path class="cls-6" d="m2252.22,709.18s27.32,81.76,27.13,85.18c0,0,9.11-.57,9.11-2.85s-22.39-81.95-25.23-82.33-11,0-11,0h0Z"/>
        </g>
      </g>
    </g>
    <g>
      <path class="cls-12" d="m2221.61,636.27s33.54,4.66,34.17,6.34c.63,1.68.75,24.31.75,24.31l-34.92.06v-30.72Z"/>
      <g>
        <path class="cls-3" d="m2254.4,641.94s3.95-9.92,15.48-10.55c11.54-.63,38.53,13.73,40.93,14.74,2.41,1.01,34.91,9.76,35.48,10.05,6.95,3.52.76,11.82.76,11.82l-90.53-1.07-2.13-24.99h0Z"/>
        <g class="cls-30">
          <g>
            <path class="cls-6" d="m2263.64,631.36c1.1,1.02,40.02,19.52,45.8,20.26,5.78.75,41.39,10.33,41.39,10.33,0,0,1.92-4.87-1.24-6.7-3.17-1.83-37.56-10.04-40.3-11.57-2.74-1.52-35.91-14.91-38.65-14.46-2.74.46-7,2.12-7,2.12h0Z"/>
            <path class="cls-6" d="m2273.47,668.76c.71-2.57,3.26-14.97,5.19-15.4,1.94-.43,6.64.86,6.5,1.57s-1.14,14.26-4.28,14.26-7.41-.43-7.41-.43Z"/>
            <path class="cls-6" d="m2291.9,672.32c.71-2.57,3.26-14.97,5.19-15.4s6.64.86,6.5,1.57c-.14.71-1.14,14.26-4.28,14.26s-7.41-.43-7.41-.43Z"/>
          </g>
        </g>
      </g>
    </g>
  </g>
</svg>