<?xml version="1.0" encoding="UTF-8"?>
<svg id="Layer_2" data-name="Layer 2" xmlns="http://www.w3.org/2000/svg" viewBox="0 0 83.57 43.38">
  <g id="_276" data-name="276">
    <g>
      <path d="m23.88,5.01c0-.07.46-.06,1.29-.28.41-.11.91-.28,1.48-.54.57-.26,1.21-.61,1.92-1.03.47-.29.98-.6,1.53-.93.54-.34,1.12-.7,1.79-1.01.36-.1.67-.31,1.02-.5.35-.19.72-.37,1.16-.36.41-.07.83-.15,1.27-.19.22-.02.44-.04.67-.03.23,0,.47,0,.7.04.12.02.24.03.35.06.12.02.23.07.35.1.11.04.23.08.34.12.11.05.22.1.33.16.23.1.43.23.65.35l.16.09.16.1c.11.07.21.13.33.2.24.1.44.28.62.46.17.2.32.41.46.64.27.46.5.91.89,1.31.55.93.85,2.03.95,3.17-.02.29-.05.58-.04.86,0,.28-.01.56,0,.84.02.28,0,.57.01.85,0,.14,0,.29,0,.43,0,.14-.01.29-.03.43-.38,1.13-.48,2.3-.67,3.54-.68,1.09-1.08,2.23-1.42,3.52-.14.29-.33.56-.5.84-.18.27-.38.54-.57.81-.1.13-.2.26-.3.4l-.15.2-.16.2c-.1.13-.2.27-.3.4-.05.07-.1.13-.15.2l-.08.1-.04.05s-.03.04-.03.04c-.02.04-.07.06-.06.12v.03s0,.02,0,.02h0v.28c0,.33,0,.66,0,1-.01.67-.04,1.34-.1,2.02.16,1.37.06,2.77-.25,4.16.12,1.43-.13,2.86-.45,4.29-.34,1.42-.24,2.96-.79,4.41-.18.74-.37,1.49-.61,2.24-.24.75-.52,1.51-.96,2.24-.24.36-.51.71-.88,1.04-.1.08-.18.17-.3.24-.11.07-.24.16-.39.22-.3.15-.63.18-.95.16-.31-.05-.63-.13-.87-.35-.24-.21-.4-.5-.48-.82-.02-.08-.05-.16-.06-.24l-.04-.21c-.02-.12-.03-.22-.04-.34-.02-.21-.05-.41-.07-.62-.01-.8-.02-1.56-.06-2.32-.04-.76-.07-1.52-.11-2.29-.46-1.49-.71-3-1.08-4.55-.55-1.48-1.01-3.04-1.87-4.43-.04-.09-.09-.18-.14-.27l-.09-.17-.02-.04v-.02s-.02,0-.02,0h0s-.01,0-.01,0l-.23.05h-.06s-.03.02-.03.02c-.01,0,0,0-.04,0l-.32.05-.65.09-.65.05-.33.02h-.33c-.22,0-.44,0-.66-.02l-.66-.04-.33-.02-.32-.04-.65-.07-.65-.09-.32-.04-.15-.02c-.09-.01-.18-.02-.26-.03-.01,0-.02,0-.02,0v.02s-.02.04-.02.04c0,.02-.01.05-.02.07v.02s0,0-.01.03l-.06.14c-.04.09-.08.19-.12.28-.57,1.52-1.42,2.9-1.87,4.43-.36.71-.57,1.48-.71,2.25-.14.77-.23,1.54-.37,2.3-.09.76-.18,1.52-.23,2.29-.04.77-.03,1.53.05,2.33v.31s.02.32.02.32c0,.12,0,.22-.01.34v.09s-.03.13-.03.13c0,.09-.04.18-.06.26-.07.35-.25.67-.51.9-.26.24-.61.34-.95.39-.35.02-.71-.02-1.04-.19-.17-.07-.3-.17-.41-.25l-.09-.06-.07-.07-.14-.14c-.36-.37-.59-.75-.79-1.14-.59-.66-.87-1.44-1.06-2.21-.19-.77-.3-1.54-.51-2.27-.19-1.52-.62-2.95-.78-4.41-.27-1.45-.18-2.9-.45-4.29-.09-1.41-.33-2.79-.25-4.16-.13-.68-.11-1.35-.09-2.02.01-.33.03-.67.03-1v-.25s0-.06,0-.06v-.04s0-.04,0-.04c0-.01-.02-.02-.03-.03-.02-.02-.04-.03-.06-.04l-.16-.18c-.06-.06-.12-.12-.17-.19-.11-.13-.21-.26-.32-.39-.11-.13-.21-.26-.31-.4-.1-.13-.2-.27-.3-.4-.19-.28-.37-.55-.54-.83-.16-.29-.34-.56-.48-.86-.09-.32-.21-.62-.32-.92-.06-.15-.13-.29-.19-.44-.06-.15-.12-.29-.19-.43-.14-.28-.27-.57-.39-.86-.13-.29-.23-.58-.33-.87-.32-1.19-.74-2.35-.67-3.54-.01-.15-.02-.29-.03-.43,0-.15,0-.29-.01-.43,0-.29-.02-.57,0-.85,0-.28,0-.56,0-.84.01-.29,0-.57,0-.86.04-.57.24-1.11.46-1.62.05-.13.11-.25.15-.38.05-.13.11-.25.15-.38.04-.13.08-.26.11-.39.04-.13.07-.27.08-.41.21-.5.57-.91.93-1.28.18-.19.37-.36.54-.55.19-.17.35-.37.51-.58.33-.41.77-.69,1.25-.85.12-.04.24-.08.35-.12.12-.03.24-.05.36-.08.12-.02.24-.06.36-.07.12-.01.24-.03.35-.05.23-.05.47-.05.7-.06.23-.02.46,0,.68.02.45.04.87.13,1.27.23.91.25,1.7.61,2.42.99.72.38,1.36.77,1.96,1.13,1.18.73,2.19,1.32,3.04,1.71.86.39,1.56.58,2.04.67.24.04.42.07.55.09.13.02.19.04.19.06,0,.04-.32.11-.94.07-.62-.04-1.54-.25-2.64-.72-.55-.24-1.14-.53-1.78-.87-.64-.34-1.32-.72-2.07-1.11-.74-.38-1.55-.76-2.43-1.03-.44-.13-.9-.24-1.38-.29-.12,0-.24-.02-.36-.03-.12,0-.24,0-.36,0-.12,0-.24.02-.36.03-.06,0-.12,0-.18.02l-.18.04c-.09.02-.19.04-.29.07-.09.02-.18.07-.28.11-.09.04-.18.08-.28.12-.09.05-.17.1-.26.15-.18.09-.35.21-.53.3l-.14.07-.13.08c-.09.05-.18.1-.29.15-.17.13-.32.29-.47.45-.13.17-.28.34-.41.52-.25.37-.5.74-.75,1.14-.02.12-.05.24-.08.35-.03.12-.06.23-.09.34-.03.11-.08.22-.11.33-.03.11-.07.23-.11.34-.16.45-.3.92-.36,1.42-.02.25-.02.5-.04.75,0,.26,0,.53,0,.8,0,.27.03.54.05.81.01.14.03.27.05.41.02.14.05.27.08.41.04.13.06.27.09.41.03.14.05.27.08.41.04.27.07.55.12.83.05.28.08.56.15.83.07.28.14.56.25.82.16,1.15.66,2.26,1.37,3.23.1.29.25.55.4.81.16.26.34.51.52.75.1.12.2.24.29.36.1.12.2.24.3.35l.31.35.33.35.25.34.06.08s.05.05.04.09v.21s-.03.64-.03.64c0,.33,0,.66.03.99.05.66.14,1.33.23,2,.16,1.34.11,2.72.29,4.1.07,1.39.33,2.79.49,4.21.32,1.4.6,2.81.79,4.26.21.7.4,1.4.62,2.08.22.68.47,1.36.8,1.95.19.27.38.53.57.7l.07.06.03.03.03.02s.07.05.07.05c.02.01.04.02.06.02.05,0,.1-.02.12-.08,0,0,0-.01,0-.02v-.06c.02-.07.02-.16.03-.24v-.27s0-.28,0-.28c-.04-.76,0-1.58.06-2.4.06-.82.13-1.63.1-2.47.18-1.65.66-3.27,1.14-4.87.57-1.58,1.27-3.11,1.96-4.66l.19-.26.09-.13s.04-.07.06-.1l.07-.12.28-.47.14-.23.07-.12.03-.06s.04,0,.06,0c.32.07.64.12.96.18l.24.04.12.02s.09.02.11.02l.3.03c.2.02.4.04.6.05h.6s.3,0,.3,0h.3s.6-.04.6-.04l.6-.04.3-.02.3-.03.6-.05.59-.07.3-.03.5-.08c.34-.06.68-.11,1.03-.16.02,0,.04-.01.06,0l.03.07.07.13.14.27.27.53.2.39.14.29c.78,1.5,1.44,3.07,1.96,4.66.3.79.52,1.6.68,2.42.17.82.3,1.64.46,2.45.17.82.2,1.65.19,2.47,0,.82-.07,1.63-.03,2.4v.28s.03.26.03.26c0,.08.02.17.03.24v.05s.01,0,.01,0c0,0,0,0,0,.01.02.03.05.04.08.04.01,0,.03,0,.04,0,0,0,.11-.06.2-.15.19-.17.39-.42.59-.68.33-.58.66-1.23.92-1.91.26-.68.46-1.39.51-2.12.28-1.43.21-2.9.79-4.26.1-1.43.53-2.8.49-4.21.4-1.36.22-2.76.29-4.1.06-.67.12-1.34.16-2,.02-.33.03-.66.03-.99v-.86s-.01-.04,0-.05l.03-.04.07-.08.27-.33.15-.2c.05-.06.1-.12.14-.18.09-.12.19-.25.29-.36l.15-.18.14-.18.29-.36c.18-.24.37-.48.54-.73.16-.26.33-.5.46-.78.11-.28.24-.55.37-.81.07-.13.14-.26.21-.39.07-.13.13-.26.2-.39.14-.26.26-.53.37-.8.11-.27.18-.55.22-.84.36-1.09.51-2.22.68-3.3-.03-.14-.05-.28-.06-.42-.01-.14-.02-.27-.02-.41,0-.27.04-.54.06-.8.03-.26.08-.53.11-.79.02-.25.05-.51.03-.75-.03-.5-.17-.98-.34-1.42-.04-.11-.08-.22-.12-.34-.04-.11-.09-.22-.12-.33-.04-.11-.07-.22-.09-.34-.04-.11-.06-.23-.08-.35-.33-.35-.59-.71-.83-1.08-.12-.18-.25-.36-.37-.54-.14-.16-.27-.34-.43-.49-.08-.07-.16-.14-.24-.21l-.13-.1-.14-.08c-.18-.1-.36-.2-.56-.27-.09-.04-.19-.07-.28-.11-.1-.03-.19-.06-.28-.09-.09-.03-.18-.07-.28-.1-.1-.03-.19-.06-.28-.1-.2,0-.39.02-.58,0-.19-.02-.38-.02-.57-.04-.38-.02-.77,0-1.13.12-.38.02-.74.15-1.08.28-.34.14-.65.31-.98.44-.61.34-1.2.66-1.79.91-.56.3-1.08.59-1.58.85-.75.39-1.43.71-2.04.93-.61.23-1.15.36-1.6.42-.22.04-.42.05-.59.06-.17,0-.31,0-.42,0-.23-.02-.34-.05-.34-.07Z"/>
      <path d="m36.56,4.47c.07-.08.2-.1.39-.06.03,0,.06.02.1.03.04,0,.09,0,.11.04-.07.12.23-.14.11.05-.01.07.06.06.12.06.07,0,0,.13.13.07.23-.15-.15.28.13.08.09-.01.11.04.14.09-.12.18.07.09.14.11-.15.21-.03.18.14.12-.23.26-.15.28.15.13.05.04-.02.18.14.15.06.05.15.07.14.17.23-.07.27,0,.14.17.25-.06.21.06.13.2-.08.13.27.04.14.21.02.08.12.13.12.22-.06.12-.13.24.12.23.09.06.2.12.1.25.28,0,.2.13.09.26.07.08-.09.21.08.27-.02.1.16.16.07.28-.06.11-.12.21.04.28.18.07-.04.19.03.28-.24.11.09.17,0,.27.03.09-.13.18,0,.27.04.08.09.17-.02.26.38.1-.1.17-.02.25-.16.07,0,.16-.04.24.06.09-.19.13-.05.23-.04.07.1.17-.06.22.17.1-.18.11-.06.2-.01.07-.01.14-.06.19-.3,0-.08.11-.08.18-.05.05.13.16-.08.17-.04.05-.18.07-.08.16.03.07-.44-.02-.08.14.05.07-.32,0-.08.13.22.12-.06.08-.08.12-.03.04-.05.07-.08.11-.25.29-.46.42-.6.36-.17-.07-.22-.35-.22-.77,0-.04-.18-.15,0-.13.01-.04-.12-.13,0-.14-.25-.12-.02-.1,0-.14,0-.05.1-.07,0-.15-.14-.09.1-.08,0-.16.18-.01.15-.08.01-.16.17-.02-.02-.12,0-.17.26,0,.09-.1,0-.17-.08-.07.06-.11,0-.18.06-.05-.05-.13,0-.18-.11-.07-.15-.13,0-.19-.08-.07-.01-.12-.01-.19-.1-.06.02-.13,0-.19-.06-.06.26-.14-.02-.19-.04-.06.04-.13-.02-.2.03-.07.05-.14-.03-.19.26-.11.09-.16-.03-.2-.09-.05-.07-.12-.05-.19-.04-.06-.04-.13-.04-.19-.1-.04.07-.16-.05-.18-.13-.02.08-.17-.05-.18-.1-.03-.17-.06-.07-.18-.03-.05.18-.22-.06-.17-.08-.03-.38.07-.07-.17-.11,0,.1-.2-.07-.16.21-.2-.05-.11-.08-.16.01-.08.06-.18-.07-.15-.14.03,0-.13-.07-.15-.16.06.1-.21-.08-.14,0-.06-.08-.06-.07-.14-.32.21-.06-.08-.07-.13,0-.07-.25.1-.07-.13-.24.16-.09-.04-.06-.12.03-.09-.14.03-.05-.12-.17.11.03-.14-.05-.11.06-.12-.05-.05-.05-.1-.06.01-.07-.02-.04-.1-.01-.03-.02-.06-.03-.09-.05-.17-.05-.31.02-.39Z"/>
      <path d="m59.7,4.99s-.11.05-.34.07c-.11,0-.25,0-.42,0-.17-.01-.36-.02-.58-.06-.44-.06-.98-.2-1.59-.42-.61-.22-1.29-.54-2.04-.93-.5-.26-1.02-.55-1.58-.85-.56-.29-1.16-.59-1.79-.91-.29-.22-.64-.3-1-.38-.36-.08-.72-.15-1.05-.34-.36-.12-.74-.19-1.13-.21-.19,0-.39,0-.58.02-.19.03-.39.04-.58.09-.1.02-.19.05-.29.06-.1.02-.19.06-.29.08-.1.03-.19.05-.29.08-.09.04-.19.08-.29.12-.2.07-.37.18-.55.29l-.13.08s-.08.07-.12.1c-.08.07-.16.14-.24.22-.13.18-.27.35-.44.49-.15.16-.33.29-.5.44-.33.31-.65.68-.7,1.18-.36.87-.65,1.79-.76,2.79-.08.24-.1.5-.13.76,0,.26,0,.53.03.8.01.27.07.54.1.81.02.14.04.27.06.41.02.13.05.27.07.41-.13,1.12.19,2.25.69,3.3,0,1.2.51,2.34,1.37,3.24.58,1.05,1.18,2.13,2.16,2.97l.29.31.07.08s.06.05.05.09v.21c.02.22.03.44.04.65.02.33.03.66.05.99.03.66.06,1.33.06,2,.3,1.34.37,2.7.29,4.1.36,1.37.42,2.77.49,4.21.06,1.44.66,2.8.79,4.26.16.71.37,1.41.6,2.09.24.68.51,1.35.83,1.95.15.3.31.58.5.79.09.1.2.19.24.22.04.04.1.05.16.05.06,0,.12-.02.16-.06.04-.04.06-.1.06-.16,0-.01,0-.03,0-.04v-.02s0-.05,0-.05c0-.08,0-.16,0-.25l-.03-.27-.04-.28c-.05-.76-.11-1.58-.1-2.4,0-.82.09-1.65.26-2.46-.02-.84.1-1.68.31-2.49.2-.81.51-1.6.83-2.38.5-1.61,1.33-3.08,1.95-4.66l.15-.28.2-.38.27-.51.13-.26.07-.13.03-.06s.04,0,.06,0c.33.05.67.1,1,.16l.49.08.3.03.6.06.6.04.3.03.3.02c.2.01.4.03.6.04h.61s.3.02.3.02h.3s.6-.03.6-.03l.6-.06.3-.03s.07-.01.1-.02l.12-.02.24-.04.97-.18h.06s.03.05.03.05l.07.12.13.24.27.49.13.23.08.14.17.27c.91,1.44,1.36,3.1,1.95,4.66.14.84.4,1.62.63,2.43.23.8.44,1.61.51,2.44.12.82.15,1.65.15,2.47,0,.82-.03,1.63.02,2.4v.28s.02.27.02.27c0,.08.01.17.02.24v.05s.01.01.01.01c0,0,0,.01,0,.02.01.05.06.08.11.08.02,0,.05,0,.07-.01,0,0,.03-.02.08-.05.04-.02.09-.08.14-.11.19-.17.39-.43.58-.7.16-.68.44-1.31.73-1.98.28-.66.57-1.34.7-2.06.49-1.38.55-2.85.79-4.26.13-1.42.52-2.8.49-4.21.15-1.39.08-2.76.29-4.1-.06-.68,0-1.34.07-2,.04-.33.07-.66.09-.99v-.25s.02-.4.02-.4v-.21s.02-.06.04-.09l.07-.08.26-.32.17-.19c.05-.06.11-.11.15-.18.1-.12.2-.24.29-.36l.15-.18.14-.19c.09-.12.18-.24.27-.37.17-.25.35-.5.51-.75.15-.26.33-.51.47-.77.21-.23.39-.48.53-.74.07-.13.14-.26.2-.4.06-.14.11-.28.16-.42.05-.14.1-.28.14-.42.04-.14.08-.28.12-.42.08-.28.15-.56.22-.84.36-1.1.37-2.24.69-3.3.02-.14.04-.27.06-.41.02-.14.03-.27.05-.41.03-.27.07-.54.08-.81.02-.27.03-.54.03-.8-.02-.26-.03-.51-.09-.76-.08-.49-.05-1-.13-1.49-.02-.12-.04-.25-.07-.37-.03-.12-.08-.23-.13-.34-.05-.11-.11-.22-.17-.32-.08-.1-.16-.19-.26-.27-.24-.4-.43-.82-.66-1.21-.12-.2-.27-.37-.42-.54-.17-.14-.34-.29-.55-.37-.1-.04-.2-.08-.3-.13-.05-.02-.09-.05-.14-.08-.05-.02-.09-.05-.14-.07-.18-.09-.35-.22-.53-.31-.09-.05-.17-.1-.26-.15-.09-.04-.18-.08-.27-.12-.09-.04-.18-.09-.28-.11-.1-.02-.19-.05-.29-.07-.19-.05-.39-.05-.58-.07-.19-.02-.39,0-.58,0-.39.02-.76.08-1.13.16-.83.19-1.59.5-2.29.84-.71.33-1.36.69-1.96,1.02-1.22.67-2.29,1.22-3.2,1.55-.92.34-1.67.46-2.17.48-.25,0-.44,0-.57-.02-.13-.02-.19-.04-.19-.05,0-.05.32-.07.9-.19.58-.12,1.43-.39,2.45-.92.51-.26,1.07-.59,1.69-.96.61-.37,1.28-.79,2.02-1.21.75-.42,1.57-.86,2.53-1.19.48-.16.99-.3,1.54-.37.14-.02.27-.03.41-.04.14,0,.28-.02.42-.02.14,0,.29.01.44.02.07,0,.15,0,.22.01l.22.04c.12.02.24.04.36.06.12.02.23.05.35.08.12.03.24.05.36.09.12.04.23.09.35.13.47.17.91.45,1.26.84.2.16.39.33.59.5.18.18.38.36.55.56.34.4.65.85.84,1.36.09.11.18.22.25.33.07.12.13.24.19.37.06.13.12.25.16.39.04.13.08.27.11.41.14.55.18,1.12.23,1.69.03.28.03.57.04.86,0,.28-.02.56-.03.84,0,.28-.03.57-.04.85,0,.29-.02.58-.03.87,0,.15,0,.29,0,.44,0,.15-.03.29-.05.44-.04.29-.1.59-.17.88-.07.29-.14.59-.23.88-.08.29-.14.59-.21.9-.51,1.14-.94,2.31-1.43,3.53-.18.27-.38.53-.55.81-.18.28-.36.55-.53.83-.09.14-.19.28-.28.42l-.14.21-.15.2c-.1.13-.21.27-.31.4-.05.07-.11.13-.17.19l-.16.18s-.05.01-.08.03c-.01,0-.03.01-.04.02,0,.01-.01.02-.02.04v.04s-.02.02-.02.02h0s0,.04,0,.04l-.02.25c-.03.33-.03.66-.03,1,0,.67.05,1.34.06,2.03.03,1.37-.19,2.74-.25,4.16-.17,1.4-.21,2.85-.45,4.29-.09,1.47-.3,2.96-.79,4.41-.13.75-.33,1.5-.59,2.25-.26.75-.56,1.49-.99,2.24-.2.38-.44.77-.8,1.13-.1.09-.18.18-.3.26-.11.08-.25.18-.42.25-.33.17-.69.2-1.04.18-.34-.06-.69-.16-.95-.39-.26-.23-.43-.55-.5-.9-.02-.09-.05-.17-.06-.26l-.02-.13v-.09c-.02-.12-.02-.23-.03-.34v-.32s0-.31,0-.31c0-.8.08-1.56.1-2.33.02-.77-.03-1.54-.27-2.29-.24-1.52-.53-3.06-1.08-4.55-.47-1.51-1.07-3.01-1.87-4.43-.03-.1-.06-.2-.1-.29l-.05-.14v-.02s0,0,0,0h0v-.03s0-.05,0-.08v-.04s-.02-.02-.02-.02h0s-.02,0-.02,0c-.09,0-.18.01-.28.03l-.16.03-.32.04c-.21.03-.43.07-.64.1-.22.03-.43.05-.65.08l-.33.04-.33.03-.66.06h-.66s-.33,0-.33,0l-.33-.02-.66-.04-.65-.08-.33-.04h-.02s0,0,0,0h-.01s-.03,0-.03,0h-.05s-.21-.06-.21-.06c-.01,0-.01,0-.01,0h0s0,.01,0,.01l-.02.02h0s0,0-.02.03l-.07.13-.15.27c-.7,1.46-1.34,2.93-1.87,4.43-.21.76-.46,1.51-.66,2.26-.2.75-.37,1.51-.42,2.29-.04.77-.13,1.52-.18,2.29-.05.76-.06,1.52.01,2.32l.02.31v.32c0,.12,0,.22,0,.35v.1s-.02.14-.02.14c0,.09-.04.18-.06.27-.08.36-.25.69-.52.92-.27.24-.62.35-.98.4-.36.02-.73-.02-1.07-.2-.18-.08-.31-.18-.42-.26l-.09-.06-.07-.07-.14-.14c-.36-.37-.59-.76-.78-1.15-.42-.75-.65-1.52-.87-2.28-.21-.76-.41-1.5-.7-2.21-.4-1.47-.96-2.9-.79-4.41-.3-1.44-.17-2.9-.45-4.29.16-1.43-.19-2.79-.25-4.16,0-.68,0-1.36,0-2.03,0-.33,0-.67-.03-1v-.25s-.02-.03-.02-.03v-.02s0-.04,0-.04v-.03s-.03-.02-.04-.02c-.02-.01-.04-.03-.06-.04,0,0-.02-.02-.04-.03l-.05-.04-.09-.09c-.06-.06-.12-.12-.18-.18-.11-.13-.22-.26-.33-.39-.11-.13-.21-.26-.3-.4-.09-.14-.19-.28-.29-.41-.18-.28-.35-.57-.52-.85-.16-.29-.33-.57-.49-.85-.19-.27-.35-.55-.48-.85-.06-.15-.13-.3-.18-.45-.05-.15-.1-.3-.15-.46-.1-.3-.19-.61-.28-.9-.1-.29-.2-.59-.33-.87-.32-1.19-.6-2.37-.67-3.54-.06-.14-.11-.28-.16-.42-.04-.14-.06-.29-.08-.43-.03-.29-.05-.58-.02-.86.02-.29.05-.57.08-.85.05-.29.08-.58.12-.86.09-.57.12-1.13.25-1.68.03-.14.07-.27.1-.41.04-.13.1-.26.15-.39.06-.13.12-.25.19-.37.08-.12.16-.23.26-.33.11-.55.41-1.02.77-1.42.18-.2.39-.37.58-.54.22-.15.42-.31.63-.46.11-.07.21-.14.32-.21l.15-.11.16-.1c.21-.13.42-.28.65-.38.11-.06.22-.11.33-.16.12-.04.24-.08.35-.11.12-.03.23-.07.36-.08.12-.01.24-.02.36-.02.22-.1.46-.12.7-.14.24-.02.46.02.69.05.45.08.86.21,1.27.28.77.33,1.53.52,2.18.87.68.28,1.27.63,1.79,1.01.54.33,1.05.64,1.53.93.71.42,1.35.77,1.92,1.03.57.26,1.07.43,1.48.54.82.22,1.28.21,1.28.28Z"/>
      <path d="m72.38,3.89c.07-.08.2-.1.39-.05.03,0,.06.01.1.03.04,0,.09,0,.11.04-.07.12.23-.14.11.05-.01.07.06.06.12.06.07,0,0,.13.12.07.23-.15-.15.28.13.08.09-.01.11.04.14.09-.12.18.07.09.14.11-.15.21-.03.18.14.12-.23.26-.15.27.15.13.05.04-.02.18.14.15.06.04.15.07.14.16.23-.06.27,0,.14.18.25-.06.21.06.13.19-.08.13.27.04.13.2.03.08.12.13.12.22-.06.12-.13.24.12.23.09.06.2.12.1.25.28,0,.2.13.09.26.07.08-.09.22.08.27-.02.1.16.16.07.28-.06.11-.12.21.04.28.18.07-.04.19.03.28-.24.11.09.17,0,.27.03.09-.13.18,0,.26.04.09.09.17-.02.26.37.1-.1.16-.02.25-.16.07,0,.16-.04.24.06.09-.19.13-.05.23-.04.07.1.17-.06.22.17.1-.18.11-.06.2-.01.07-.01.14-.07.19-.3,0-.08.11-.08.18-.04.05.13.16-.08.17-.04.05-.18.07-.08.16.03.07-.44-.02-.08.14.05.07-.32,0-.08.13.22.12-.06.08-.08.12-.03.04-.05.07-.08.11-.25.29-.46.42-.6.36-.17-.07-.22-.35-.22-.77,0-.04-.18-.15,0-.13.01-.04-.12-.13,0-.14-.25-.12-.02-.1,0-.15,0-.05.1-.07,0-.15-.14-.09.1-.08,0-.16.18-.01.15-.08,0-.16.17-.02-.01-.12,0-.17.26-.01.09-.1,0-.17-.08-.07.06-.11,0-.18.05-.05-.05-.13,0-.18-.11-.07-.15-.13,0-.18-.08-.07-.01-.12-.01-.19-.1-.07.02-.13,0-.19-.06-.06.26-.14-.02-.19-.04-.06.04-.13-.02-.19.02-.07.05-.14-.03-.2.26-.11.09-.15-.03-.2-.09-.05-.07-.12-.04-.2-.04-.06-.04-.12-.05-.19-.1-.04.07-.16-.05-.18-.13-.02.08-.17-.05-.18-.1-.03-.16-.06-.06-.18-.03-.05.18-.22-.06-.17-.08-.03-.38.07-.07-.17-.11,0,.1-.2-.07-.17.21-.2-.05-.11-.08-.16.01-.08.06-.18-.07-.15-.14.03,0-.13-.07-.15-.16.06.1-.21-.08-.14,0-.06-.08-.06-.07-.14-.32.21-.06-.08-.07-.13,0-.07-.25.1-.07-.12-.24.16-.09-.04-.06-.12.03-.09-.14.03-.05-.12-.17.12.03-.14-.05-.11.07-.12-.05-.05-.05-.1-.06.01-.07-.02-.04-.1-.01-.03-.02-.06-.03-.09-.05-.17-.05-.31.02-.39Z"/>
      <path d="m18.16,13.38c.11,0,.21.36.3,1.02.02.11.03.23.05.35.03.13.06.26.05.4-.14.14.26.29.04.45-.06.16,0,.32.04.49.05.17-.09.35.04.54.27.19-.3.38.04.58.07.2.05.4.04.62-.21.21,0,.43.04.66-.25.22-.14.45.03.69-.17.12-.24.24-.23.36,0,.06.03.12.08.18.04.03.11.05.19.06,0,.04-.03.09-.04.14-.01.05,0,.11.07.07h0c.1-.02.17-.07.22-.01.03-.06.05-.1.06-.13,0,0,0-.01.01-.02.02,0,.03-.01.05-.01.03,0,.07-.01.1-.01.14,0,.28.05.41.15.28-.25.56-.15.85-.02.29.14.58-.22.87-.02.29.02.59-.06.9-.02.3.1.61.21.92-.01.31-.06.62-.14.94-.01.32-.26.64-.15.96,0,.32-.04.65.14.98,0,.03.02.05,0,.06-.03.01-.02,0-.03.08.03h0s.08,0,.09-.03c0-.03,0-.09-.09-.12-.17-.33.07-.65,0-.98.25-.32-.08-.64,0-.96-.02-.32.14-.63,0-.94-.04-.31-.09-.62.01-.92-.38-.3.1-.6.01-.9.08-.15.07-.29.05-.44-.01-.07-.02-.14-.03-.21,0-.02-.01-.03,0-.05-.03-.02,0-.05.03-.1.03-.05.06-.12.02-.12-.01,0-.03.02-.05.03-.02-.02-.08.01-.11.03-.04.02-.05.02-.08-.05-.01.02-.01.04-.03.05-.03,0-.07.01-.1,0-.07,0-.13-.02-.2-.05-.13-.05-.26-.1-.39-.03-.26,0-.51.01-.76-.03-.25-.29-.49-.05-.73-.03-.24-.03-.47.17-.69-.03-.23-.02-.44-.15-.66-.03-.21.04-.42-.43-.62-.04-.2.07-.39-.3-.58-.04-.18.24-.36-.03-.54-.04-.17-.01-.34-.03-.49-.04-1.41-.13-2.22-.28-2.22-.44,0-.18,1-.34,2.72-.48.17-.01.35-.22.54-.04.19,0,.38-.16.58-.04.2-.27.41-.05.62-.04.21-.01.43.08.66-.04.22-.16.45.08.69-.03.24.17.48.12.73-.03.25.16.5-.03.76-.03.13.13.26.14.39.12.07-.01.13-.04.2-.06l.1-.04s.11-.03.17-.04c.24-.05.49-.04.73-.02.24.01.46.03.74,0,.04,0,.09,0,.13,0,0,.23,0,.44.02.66.01.22.03.45,0,.69.03.12.05.25.07.39.02.09.03.15.03.22,0,.15-.02.29-.09.44.08.29.02.59.02.9.1.3-.01.61.01.92.05.31-.27.62.01.94.04.32-.04.64,0,.96-.04.32-.07.65,0,.98-.14.3-.16.56-.14.86.02.3.09.64.14,1.01h0c-.55.08-1.26.04-1.87,0-.33.03-.65.01-.98,0-.32.08-.64-.12-.96,0-.32.12-.63-.12-.94,0-.31.08-.62.12-.92-.01-.3,0-.6-.25-.9-.02-.3.05-.59.36-.87-.02-.29.1-.57-.18-.85-.02-.14-.14-.28-.14-.41-.11-.03,0-.07.02-.1.03l-.05.02s-.05.01-.08.02c-.12.02-.24.03-.36.03-.22-.02-.42-.06-.62-.08-.2-.02-.4-.01-.65.03,0-.02-.01-.04-.02-.06-.07-.16-.05-.42-.02-.65.03-.24.07-.46.05-.67-.04-.1-.05-.21-.04-.32,0-.06.04-.12.06-.18.05-.12.1-.24,0-.36.04-.24-.02-.47.03-.69-.38-.22,0-.44.03-.66.05-.21-.25-.42.04-.62-.29-.2-.04-.39.04-.58.08-.19-.12-.36.04-.54-.2-.17.11-.34.04-.49.13-.16,0-.31.04-.45-.04-.14-.03-.28.05-.4.02-.13.03-.24.05-.35.09-.66.19-1.02.3-1.02Z"/>
      <path d="m56.42,13.38c.11,0,.21.36.3,1.02.01.11.03.23.05.35.03.13.06.26.04.4-.14.14.26.29.04.45-.06.16,0,.32.04.49.05.17-.09.35.04.54.27.18-.3.38.04.58.07.2.05.41.04.62-.21.21,0,.43.03.66-.25.22-.14.46.03.69-.17.12-.24.24-.23.36,0,.06.03.12.08.18.04.03.11.05.19.06,0,.04-.03.09-.04.14-.01.05,0,.11.07.07h0c.1-.02.17-.07.22-.01.03-.06.05-.1.06-.13,0,0,0-.01.01-.02.02,0,.03-.01.05-.01.03,0,.07-.01.1-.01.14,0,.27.05.41.15.28-.25.56-.15.85-.02.29.14.58-.22.87-.02.29.02.59-.06.9-.02.3.1.61.21.92-.01.31-.06.62-.14.94-.01.32-.26.64-.15.96,0,.32-.04.65.14.98,0,.03.02.05,0,.06-.03.01-.02,0-.03.08.03h0s.08,0,.09-.03c0-.03,0-.09-.09-.12-.17-.33.07-.65,0-.98.25-.32-.08-.64,0-.96-.02-.32.14-.63.01-.94-.04-.31-.09-.62.01-.92-.38-.3.1-.6.02-.9.08-.15.07-.29.05-.44-.01-.07-.02-.14-.03-.21,0-.02-.01-.03,0-.05-.03-.02,0-.05.03-.1.03-.05.06-.12.02-.12-.02,0-.03.02-.05.03-.02-.02-.08.01-.11.03-.04.02-.05.02-.08-.05-.01.02-.01.04-.03.05-.03,0-.07.01-.1,0-.07,0-.13-.02-.2-.05-.13-.05-.26-.1-.39-.03-.26,0-.51.01-.76-.03-.25-.29-.49-.05-.73-.03-.24-.03-.47.17-.69-.03-.22-.02-.44-.15-.66-.03-.21.04-.42-.43-.62-.04-.2.07-.39-.3-.58-.04-.19.24-.37-.03-.54-.04-.17-.01-.34-.03-.49-.04-1.41-.13-2.22-.28-2.22-.44,0-.18,1-.34,2.72-.48.17-.01.35-.22.54-.04.18,0,.38-.16.58-.04.2-.27.41-.05.62-.04.21-.01.43.08.66-.04.22-.16.45.08.69-.03.24.17.48.12.73-.03.25.16.5-.03.76-.03.13.13.26.14.39.12.07-.01.13-.04.2-.06l.1-.04s.11-.03.17-.04c.24-.05.49-.04.73-.02.24.01.46.03.74,0,.04,0,.08,0,.13,0,0,.23,0,.44.02.66.01.22.03.45,0,.69.03.12.05.25.07.39.02.08.03.15.04.22,0,.15-.02.29-.09.44.08.3.02.59.02.9.1.3-.01.61.01.92.05.31-.27.62.01.94.04.32-.04.64,0,.96-.03.32-.07.65,0,.98-.14.3-.16.56-.14.86.02.3.09.64.14,1.01h0c-.56.08-1.26.04-1.87,0-.33.03-.65.01-.98,0-.32.08-.64-.12-.96,0-.32.12-.63-.12-.94,0-.31.08-.62.12-.92-.01-.3,0-.6-.25-.9-.02-.29.05-.59.36-.87-.02-.29.1-.57-.18-.85-.02-.14-.14-.28-.14-.41-.11-.03,0-.07.02-.1.03l-.05.02s-.06.01-.08.02c-.12.02-.24.03-.36.03-.22-.02-.42-.06-.62-.08-.2-.02-.4-.01-.65.03,0-.02-.01-.04-.02-.06-.07-.16-.05-.42-.02-.65.03-.24.07-.46.05-.67-.04-.1-.05-.21-.04-.32,0-.06.04-.12.06-.18.05-.12.1-.24,0-.36.04-.24-.02-.47.03-.69-.38-.22,0-.44.03-.66.05-.21-.25-.42.04-.62-.29-.2-.04-.39.04-.58.08-.19-.12-.37.04-.54-.2-.17.11-.34.04-.49.13-.16,0-.31.04-.45-.04-.14-.03-.28.04-.4.02-.12.03-.24.05-.35.09-.66.2-1.02.3-1.02Z"/>
      <path d="m83.57,17.03c0,.1-.2.21-.57.3-.06.02-.13.03-.2.05-.07.03-.14.06-.22.04-.08-.14-.16.26-.25.04-.09-.06-.18,0-.27.04-.1.05-.2-.09-.3.04-.1.27-.21-.3-.32.04-.11.08-.23.05-.34.04-.12-.21-.24,0-.37.03-.12-.25-.25-.14-.39.03-.13-.34-.27-.29-.4.03-.14.01-.28-.12-.42.03-.14.02-.29.09-.44.03-.15.23-.3.22-.46.02-.16.25-.31.15-.47.02-.16-.14-.32.22-.49.02-.16-.02-.33.05-.5.02-.17-.1-.34-.21-.51.01-.17.06-.35.14-.52.01-.18.26-.35.15-.54,0-.18.04-.36-.14-.54,0-.18-.04-.37.12-.55,0-.19-.08-.37-.15-.55,0-.18.17-.37-.07-.55,0-.18-.25-.36.08-.53,0-.18.02-.35-.14-.52-.01-.17.05-.34.09-.51-.01-.17.38-.33-.1-.5-.02-.16-.16-.33.02-.49-.02-.16.07-.32-.17-.47-.02-.16-.03-.31.12-.46-.02-.15.19-.3-.16-.44-.03-.14,0-.29.01-.42-.03-.14-.29-.27-.05-.41-.03-.13-.03-.26.17-.39-.03-.13-.02-.25-.15-.37-.03-.12.04-.23-.43-.34-.04-.11.07-.22-.3-.32-.04-.1.24-.2-.03-.3-.04-.1-.01-.19-.03-.28-.04-.79-.13-1.24-.28-1.24-.43,0-.18.56-.34,1.52-.48.1-.01.2-.22.3-.04.1,0,.21-.16.32-.04.11-.27.23-.05.34-.04.12-.01.24.08.37-.04.12-.16.25.08.39-.03.13.17.27.12.41-.03.14.16.28-.03.42-.03.14.25.29.08.44-.03.15-.09.3.04.46-.02.15.05.31-.06.47-.02.16-.12.32-.16.49-.02.16-.08.33-.02.5-.02.17-.1.34.01.51-.01.17-.05.35.27.52-.01.18-.04.36.04.53,0,.18.04.36.07.55,0,.18.28.37.11.55,0,.19-.08.37-.04.55,0,.18-.03.36-.01.54,0,.18-.08.36.12.54,0,.18-.12.35.13.52.01.17-.08.34-.12.51.01.17,0,.34.25.5.02.17-.05.33-.36.49.02.16-.1.32.18.47.02.15.28.31.01.46.02.15.05.3.15.44.03.14-.13.29.07.42.03.14-.16.27.21.4.03.13.04.26-.02.39.03.12-.38.25,0,.37.04.12.06.23-.25.34.04.11-.29.22-.04.32.04.1.08.2-.12.3.04.1-.2.19.11.27.04.09.13.17,0,.25.04.08-.05.15-.03.22.04.07.01.14.03.2.05.37.09.57.2.57.3Z"/>
      <path d="m56.43,17.03c0,.1-.32.21-.92.3-.1.01-.21.03-.32.05-.11.03-.23.06-.36.04-.13-.14-.26.26-.4.04-.14-.06-.29,0-.44.04-.15.05-.31-.09-.48.04-.17.27-.34-.3-.52.04-.18.08-.36.05-.55.04-.19-.21-.39,0-.59.03-.2-.25-.41-.14-.62.03-.21-.34-.43-.29-.65.03-.22.01-.45-.12-.68.03-.23.02-.47.09-.71.03-.24.23-.49.22-.74.02-.25.25-.5.15-.76.02-.26-.14-.52.22-.78.02-.26-.02-.53.05-.81.02-.27-.1-.55-.21-.83.01-.28.06-.56.14-.84.01-.29.26-.57.15-.86,0-.29.04-.58-.14-.88,0-.29-.04-.59.12-.89,0-.3-.08-.6-.15-.89,0-.3.17-.59-.07-.88,0-.29-.25-.58.08-.86,0-.29.02-.57-.14-.85-.01-.28.05-.55.09-.83-.01-.27.38-.54-.1-.81-.02-.26-.16-.53.02-.78-.02-.26.07-.51-.17-.76-.02-.25-.03-.5.12-.74-.02-.24.19-.48-.16-.71-.03-.23,0-.46.01-.68-.03-.22-.29-.44-.05-.65-.03-.21-.03-.42.17-.62-.03-.2-.02-.4-.15-.59-.03-.19.04-.38-.43-.55-.04-.18.07-.35-.3-.52-.04-.17.24-.33-.03-.48-.04-.15-.01-.3-.03-.44-.04-1.27-.13-2-.28-2-.43,0-.18.9-.34,2.44-.48.15-.01.31-.22.48-.04.17,0,.34-.16.52-.04.18-.27.36-.05.55-.04.19-.01.39.08.59-.04.2-.16.41.08.62-.03.21.17.43.12.65-.03.22.16.45-.03.68-.03.23.25.47.08.71-.03.24-.09.49.04.74-.02.25.05.5-.06.76-.02.26-.12.52-.16.78-.02.27-.08.53-.02.81-.02.27-.1.55.01.83-.01.28-.05.56.27.85-.01.29-.04.57.04.86,0,.29.04.58.07.88,0,.29.28.59.11.89,0,.3-.08.6-.04.89,0,.3-.03.59-.01.88,0,.29-.08.58.12.86,0,.29-.12.57.13.84.01.28-.08.55-.12.83.01.27,0,.54.25.81.02.26-.05.53-.36.78.02.26-.1.51.18.76.02.25.28.5.01.74.02.24.05.48.15.71.03.23-.13.46.07.68.03.22-.16.44.21.65.03.21.04.42-.02.62.03.2-.38.4,0,.59.04.19.06.38-.25.55.04.18-.29.35-.04.52.04.17.08.33-.12.48.04.16-.2.3.11.44.04.14.13.28,0,.4.04.13-.05.25-.03.36.04.11.02.22.03.32.05.59.09.92.2.92.3Z"/>
      <path d="m18.17,17.03c0,.1-.2.21-.57.3-.06.02-.13.03-.2.05-.07.03-.15.06-.22.04-.08-.14-.16.26-.25.04-.09-.06-.18,0-.28.04-.1.05-.2-.09-.3.04-.1.27-.21-.3-.32.04-.11.08-.23.05-.34.04-.12-.21-.24,0-.37.03-.13-.25-.25-.14-.39.03-.13-.34-.27-.29-.41.03-.14.01-.28-.12-.42.03-.14.02-.29.09-.44.03-.15.23-.3.22-.46.02-.15.25-.31.15-.47.02-.16-.14-.32.22-.49.02-.16-.02-.33.05-.5.02-.17-.1-.34-.21-.51.01-.17.06-.35.14-.52.01-.18.26-.35.15-.53,0-.18.04-.36-.14-.54,0-.18-.04-.37.12-.55,0-.19-.08-.37-.15-.55,0-.18.17-.37-.07-.54,0-.18-.25-.36.08-.53,0-.18.02-.35-.14-.52-.01-.17.05-.34.09-.51-.01-.17.38-.33-.1-.5-.02-.17-.16-.33.02-.49-.02-.16.07-.32-.17-.47-.02-.16-.03-.31.12-.46-.02-.15.19-.3-.16-.44-.03-.14,0-.29.01-.42-.03-.14-.29-.27-.05-.4-.03-.13-.03-.26.17-.39-.03-.12-.02-.25-.15-.37-.03-.12.04-.23-.43-.34-.04-.11.07-.22-.3-.32-.04-.1.24-.21-.03-.3-.04-.1-.01-.19-.03-.28-.04-.79-.13-1.24-.28-1.24-.43,0-.18.56-.34,1.52-.48.09-.01.2-.22.3-.04.1,0,.21-.16.32-.04.11-.27.23-.05.34-.04.12-.01.24.08.37-.04.13-.16.25.08.39-.03.13.17.27.12.4-.03.14.16.28-.03.42-.03.14.25.29.08.44-.03.15-.09.3.04.46-.02.15.05.31-.06.47-.02.16-.12.32-.16.49-.02.16-.08.33-.02.5-.02.17-.1.34.01.51-.01.17-.05.35.27.52-.01.18-.04.35.04.53,0,.18.04.36.07.54,0,.18.28.37.11.55,0,.18-.08.37-.04.55,0,.18-.03.37-.01.54,0,.18-.08.36.12.53,0,.18-.12.35.13.52.01.17-.08.34-.12.51.01.17,0,.34.25.5.02.17-.05.33-.36.49.02.16-.1.32.18.47.02.16.28.31.01.46.02.15.05.3.15.44.03.15-.13.29.07.42.03.14-.16.27.21.41.03.13.04.26-.02.39.03.13-.38.25,0,.37.04.12.06.23-.25.34.04.11-.29.22-.04.32.04.1.08.2-.12.3.04.1-.2.19.11.28.04.09.13.17,0,.25.04.08-.05.15-.03.22.04.07.01.14.03.2.05.37.09.57.2.57.3Z"/>
    </g>
  </g>
</svg>